<svg width="40" height="38" viewBox="0 0 40 38" fill="none" xmlns="http://www.w3.org/2000/svg">
<path d="M11.1006 14.9198H9.81972C8.07184 14.8566 6.32962 15.1533 4.70118 15.7915C3.07275 16.4298 1.59285 17.3958 0.353333 18.6298L0 19.042V31.232H6.00667V24.3126L6.81639 23.3998L7.18444 22.9728C9.10117 21.0038 11.4874 19.5548 14.1186 18.7623C12.8013 17.7599 11.7623 16.4371 11.1006 14.9198Z" fill="#044177"/>
<path d="M39.5733 18.5856C38.3338 17.3516 36.8539 16.3856 35.2255 15.7474C33.5971 15.1092 31.8548 14.8125 30.1069 14.8756C29.5709 14.8771 29.0352 14.9066 28.5022 14.964C27.8281 16.3875 26.8175 17.6254 25.5578 18.5709C28.3667 19.348 30.9113 20.8748 32.9189 22.9876L33.2869 23.3998L34.0819 24.3126V31.2467H39.8825V18.9978L39.5733 18.5856Z" fill="#044177"/>
<path d="M9.77556 12.049H10.2319C10.0199 10.2282 10.3394 8.38494 11.1518 6.74173C11.9643 5.09853 13.235 3.7256 14.8106 2.78868C14.2394 1.91617 13.4515 1.20693 12.5239 0.730435C11.5963 0.253935 10.5609 0.0265031 9.519 0.0704096C8.47711 0.114316 7.46448 0.428056 6.58027 0.980906C5.69607 1.53376 4.97059 2.30677 4.4749 3.22424C3.9792 4.14171 3.73028 5.17219 3.7525 6.21477C3.77472 7.25734 4.06733 8.27628 4.60166 9.1718C5.136 10.0673 5.89374 10.8087 6.8007 11.3234C7.70766 11.8381 8.73274 12.1084 9.77556 12.1078V12.049Z" fill="#044177"/>
<path d="M29.4003 10.9448C29.4182 11.2832 29.4182 11.6222 29.4003 11.9606C29.6828 12.0054 29.9681 12.03 30.2542 12.0342H30.5339C31.5721 11.9789 32.5783 11.6556 33.4545 11.096C34.3308 10.5363 35.0471 9.75928 35.5339 8.84057C36.0207 7.92186 36.2613 6.89275 36.2323 5.85345C36.2033 4.81415 35.9057 3.80007 35.3685 2.90993C34.8312 2.01979 34.0726 1.28393 33.1666 0.773985C32.2605 0.264045 31.2378 -0.00259644 30.1981 1.90576e-05C29.1584 0.00263455 28.1371 0.274419 27.2336 0.788911C26.3301 1.3034 25.5753 2.04307 25.0425 2.9359C26.375 3.80589 27.4707 4.99305 28.2312 6.39087C28.9918 7.78869 29.3935 9.35346 29.4003 10.9448Z" fill="#044177"/>
<path d="M19.7425 17.5403C23.377 17.5403 26.3233 14.594 26.3233 10.9595C26.3233 7.32502 23.377 4.37868 19.7425 4.37868C16.108 4.37868 13.1617 7.32502 13.1617 10.9595C13.1617 14.594 16.108 17.5403 19.7425 17.5403Z" fill="#044177"/>
<path d="M20.0958 21.0442C18.1732 20.9666 16.2547 21.2787 14.4558 21.9619C12.6569 22.645 11.0148 23.685 9.62833 25.0192L9.26028 25.4315V34.7506C9.26602 35.0542 9.33151 35.3536 9.45301 35.6319C9.57451 35.9101 9.74963 36.1617 9.96838 36.3722C10.1871 36.5828 10.4452 36.7481 10.7279 36.8589C11.0106 36.9697 11.3123 37.0237 11.6158 37.0178H28.5317C28.8352 37.0237 29.1369 36.9697 29.4196 36.8589C29.7023 36.7481 29.9604 36.5828 30.1791 36.3722C30.3979 36.1617 30.573 35.9101 30.6945 35.6319C30.816 35.3536 30.8815 35.0542 30.8872 34.7506V25.4609L30.5339 25.0192C29.1564 23.6809 27.52 22.638 25.7251 21.9544C23.9302 21.2709 22.0147 20.9612 20.0958 21.0442Z" fill="#044177"/>
</svg>
