<svg width="32" height="30" viewBox="0 0 32 30" fill="none" xmlns="http://www.w3.org/2000/svg">
<path d="M15.9112 14.4167C18.3112 14.4167 20.1779 12.5834 20.1779 10.3334C20.1779 8.08337 18.2223 6.33337 15.8223 6.33337C13.4223 6.33337 11.5557 8.16671 11.5557 10.3334C11.5557 12.5834 13.5112 14.4167 15.9112 14.4167ZM15.8223 8.00004C15.9112 8.00004 15.9112 8.00004 15.8223 8.00004C17.2446 8.00004 18.4001 9.08337 18.4001 10.4167C18.4001 11.75 17.2446 12.75 15.8223 12.75C14.4001 12.75 13.3334 11.6667 13.3334 10.4167C13.3334 9.08337 14.489 8.00004 15.8223 8.00004Z" fill="white"/>
<path d="M29.0663 13.9166C27.3775 12.5 25.1552 11.75 22.8441 11.8333H22.133C21.9552 12.5 21.6886 13.0833 21.333 13.5833C21.8663 13.5 22.3108 13.5 22.8441 13.5C24.533 13.4166 26.2219 13.9166 27.5552 14.8333V20.8333H29.333V14.1666L29.0663 13.9166Z" fill="white"/>
<path d="M20.8001 6.50004C21.2446 5.50004 22.489 5.00004 23.6446 5.41671C24.7112 5.83337 25.2446 7.00004 24.8001 8.08337C24.4446 8.83337 23.6446 9.33337 22.8446 9.33337C22.6668 9.33337 22.4001 9.33337 22.2223 9.25004C22.3112 9.66671 22.3112 10.0834 22.3112 10.4167V10.9167C22.489 10.9167 22.6668 11 22.8446 11C25.0668 11 26.8446 9.33337 26.8446 7.33337C26.8446 5.25004 25.0668 3.58337 22.9334 3.58337C21.5112 3.58337 20.2668 4.25004 19.5557 5.41671C20.0001 5.66671 20.4446 6.00004 20.8001 6.50004Z" fill="white"/>
<path d="M10.667 13.6667C10.3114 13.1667 10.0448 12.5833 9.86699 11.9167H9.15588C6.84477 11.8333 4.62255 12.5833 2.93366 13.9167L2.66699 14.1667V20.8333H4.44477V14.8333C5.86699 13.9167 7.46699 13.4167 9.15588 13.5C9.68921 13.5 10.2225 13.5833 10.667 13.6667Z" fill="white"/>
<path d="M9.15524 10.9166C9.33302 10.9166 9.5108 10.9166 9.68857 10.8333V10.3333C9.68857 9.91664 9.68858 9.49997 9.77746 9.16664C9.59969 9.24997 9.33302 9.24997 9.15524 9.24997C7.99969 9.24997 7.02191 8.3333 7.02191 7.24997C7.02191 6.16664 7.99969 5.24997 9.15524 5.24997C10.0441 5.24997 10.8441 5.74997 11.1997 6.49997C11.5552 6.0833 12.0886 5.66664 12.533 5.3333C11.3775 3.5833 8.97746 2.99997 7.1108 4.0833C5.24413 5.16664 4.62191 7.41664 5.77746 9.16664C6.48858 10.25 7.73302 10.9166 9.15524 10.9166Z" fill="white"/>
<path d="M23.1998 18.9167L23.022 18.6667C21.2442 16.8333 18.7553 15.75 16.0887 15.8333C13.422 15.75 10.8442 16.8333 9.06645 18.6667L8.88867 18.9167V25.25C8.88867 26 9.51089 26.6667 10.3998 26.6667H21.7776C22.5776 26.6667 23.2887 26 23.2887 25.25V18.9167H23.1998ZM21.422 25H10.6664V19.5C12.0887 18.1667 14.0442 17.5 16.0887 17.5C18.0442 17.4167 19.9998 18.1667 21.422 19.5V25Z" fill="white"/>
</svg>
