<svg width="100" height="100" viewBox="0 0 100 100" fill="none" xmlns="http://www.w3.org/2000/svg">
<path d="M50 25C46.9097 25 43.8887 25.9164 41.3192 27.6333C38.7497 29.3502 36.747 31.7905 35.5644 34.6456C34.3818 37.5007 34.0723 40.6423 34.6752 43.6733C35.2781 46.7042 36.7663 49.4883 38.9515 51.6735C41.1367 53.8587 43.9208 55.3469 46.9517 55.9498C49.9827 56.5527 53.1243 56.2432 55.9794 55.0606C58.8345 53.878 61.2748 51.8753 62.9917 49.3058C64.7086 46.7363 65.625 43.7153 65.625 40.625C65.625 36.481 63.9788 32.5067 61.0485 29.5765C58.1183 26.6462 54.144 25 50 25Z" fill="#05204A"/>
<path d="M49.75 6C41.0971 6 32.6385 8.56589 25.4438 13.3732C18.2492 18.1805 12.6416 25.0133 9.33029 33.0076C6.01896 41.0019 5.15256 49.7985 6.84066 58.2852C8.52877 66.7719 12.6955 74.5674 18.8141 80.6859C24.9326 86.8045 32.7281 90.9713 41.2148 92.6594C49.7015 94.3475 58.4981 93.4811 66.4924 90.1697C74.4867 86.8584 81.3195 81.2509 86.1268 74.0562C90.9341 66.8615 93.5 58.4029 93.5 49.75C93.4868 38.1508 88.8732 27.0305 80.6713 18.8287C72.4695 10.6268 61.3492 6.01323 49.75 6ZM74.725 77.6438C74.6627 73.5448 72.9927 69.6343 70.0747 66.755C67.1568 63.8756 63.2244 62.2577 59.125 62.25H40.375C36.2756 62.2577 32.3433 63.8756 29.4253 66.755C26.5073 69.6343 24.8373 73.5448 24.775 77.6438C19.108 72.5836 15.1117 65.9215 13.3151 58.5396C11.5186 51.1577 12.0066 43.4042 14.7145 36.3058C17.4224 29.2074 22.2226 23.099 28.4793 18.7893C34.736 14.4796 42.1542 12.172 49.7516 12.172C57.3489 12.172 64.7671 14.4796 71.0238 18.7893C77.2806 23.099 82.0807 29.2074 84.7886 36.3058C87.4966 43.4042 87.9846 51.1577 86.188 58.5396C84.3915 65.9215 80.3951 72.5836 74.7281 77.6438H74.725Z" fill="#05204A"/>
</svg>
