<svg width="55" height="54" viewBox="0 0 55 54" fill="none" xmlns="http://www.w3.org/2000/svg">
<path d="M48.8117 5.0625H16.4598C16.1947 5.06228 15.9321 5.11409 15.6871 5.21497C15.4421 5.31586 15.2194 5.46384 15.0317 5.65046C14.8441 5.83709 14.6952 6.05871 14.5935 6.30268C14.4919 6.54664 14.4394 6.80816 14.4392 7.07232V16.0313L33.1871 21.5156L50.834 16.0313V7.07232C50.8338 6.80802 50.7813 6.54636 50.6795 6.30229C50.5777 6.05821 50.4287 5.83652 50.2409 5.64987C50.0531 5.46322 49.8302 5.31527 49.585 5.21449C49.3397 5.11371 49.077 5.06206 48.8117 5.0625Z" fill="#41A5EE"/>
<path d="M50.834 16.0312H14.4392V27L33.1871 30.2906L50.834 27V16.0312Z" fill="#2B7CD3"/>
<path d="M14.4392 27V37.9688L32.0845 40.1625L50.834 37.9688V27H14.4392Z" fill="#185ABD"/>
<path d="M16.4598 48.9375H48.81C49.0754 48.9382 49.3384 48.8867 49.5838 48.786C49.8292 48.6853 50.0523 48.5374 50.2403 48.3507C50.4283 48.1641 50.5775 47.9423 50.6794 47.6981C50.7812 47.4539 50.8338 47.1921 50.834 46.9277V37.9688H14.4392V46.9277C14.4394 47.1918 14.4919 47.4534 14.5935 47.6973C14.6952 47.9413 14.8441 48.1629 15.0317 48.3495C15.2194 48.5362 15.4421 48.6841 15.6871 48.785C15.9321 48.8859 16.1947 48.9377 16.4598 48.9375Z" fill="#103F91"/>
<path opacity="0.1" d="M27.8569 13.8375H14.4392V41.2594H27.8569C28.3916 41.2568 28.9036 41.0443 29.2822 40.6681C29.6607 40.2919 29.8752 39.7823 29.8792 39.2496V15.8473C29.8752 15.3147 29.6607 14.805 29.2822 14.4288C28.9036 14.0526 28.3916 13.8402 27.8569 13.8375Z" fill="black"/>
<path opacity="0.2" d="M26.7543 14.9343H14.4392V42.3562H26.7543C27.2889 42.3536 27.801 42.1411 28.1796 41.7649C28.5581 41.3887 28.7726 40.8791 28.7766 40.3464V16.9441C28.7726 16.4115 28.5581 15.9018 28.1796 15.5256C27.801 15.1494 27.2889 14.937 26.7543 14.9343Z" fill="black"/>
<path opacity="0.2" d="M26.7543 14.9343H14.4392V40.1624H26.7543C27.2889 40.1598 27.801 39.9474 28.1796 39.5712C28.5581 39.195 28.7726 38.6853 28.7766 38.1526V16.9441C28.7726 16.4115 28.5581 15.9018 28.1796 15.5256C27.801 15.1494 27.2889 14.937 26.7543 14.9343Z" fill="black"/>
<path opacity="0.2" d="M25.6517 14.9343H14.4392V40.1624H25.6517C26.1863 40.1598 26.6984 39.9474 27.0769 39.5712C27.4555 39.195 27.67 38.6853 27.674 38.1526V16.9441C27.67 16.4115 27.4555 15.9018 27.0769 15.5256C26.6984 15.1494 26.1863 14.937 25.6517 14.9343Z" fill="black"/>
<path d="M5.43198 14.9343H25.6517C26.1873 14.9339 26.7012 15.1453 27.0804 15.5222C27.4596 15.8991 27.6731 16.4105 27.674 16.9441V37.0558C27.6731 37.5894 27.4596 38.1009 27.0804 38.4777C26.7012 38.8546 26.1873 39.066 25.6517 39.0656H5.43198C5.16671 39.066 4.90395 39.0144 4.65872 38.9136C4.41349 38.8128 4.1906 38.6649 4.00279 38.4782C3.81498 38.2916 3.66593 38.0699 3.56416 37.8258C3.46239 37.5817 3.40989 37.3201 3.40967 37.0558V16.9441C3.40989 16.6798 3.46239 16.4182 3.56416 16.1741C3.66593 15.93 3.81498 15.7083 4.00279 15.5217C4.1906 15.335 4.41349 15.1871 4.65872 15.0863C4.90395 14.9855 5.16671 14.9339 5.43198 14.9343Z" fill="url(#paint0_linear_362_269)"/>
<path d="M11.7089 30.3548C11.7479 30.6653 11.775 30.9353 11.7868 31.1665H11.8342C11.8512 30.9471 11.8884 30.6821 11.9443 30.3733C12.0002 30.0645 12.0493 29.803 12.0951 29.5886L14.2207 20.4643H16.9713L19.1732 29.452C19.3014 30.0079 19.3931 30.5716 19.4475 31.1395H19.4848C19.5253 30.5867 19.6016 30.0371 19.7135 29.4941L21.4732 20.4525H23.9749L20.8855 33.5273H17.9604L15.8653 24.8771C15.8043 24.6274 15.7355 24.3023 15.6587 23.9018C15.5819 23.5013 15.5345 23.2088 15.5164 23.0243H15.4808C15.4571 23.2369 15.4097 23.5525 15.3386 23.971C15.2674 24.3911 15.2115 24.7 15.1692 24.9025L13.1994 33.5323H10.2252L7.1189 20.4643H9.65949L11.5751 29.6072C11.6323 29.854 11.6769 30.1035 11.7089 30.3548Z" fill="white"/>
<defs>
<linearGradient id="paint0_linear_362_269" x1="7.63382" y1="13.3548" x2="23.3626" y2="40.6953" gradientUnits="userSpaceOnUse">
<stop stop-color="#2368C4"/>
<stop offset="0.5" stop-color="#1A5DBE"/>
<stop offset="1" stop-color="#1146AC"/>
</linearGradient>
</defs>
</svg>
