<svg width="51" height="51" viewBox="0 0 51 51" fill="none" xmlns="http://www.w3.org/2000/svg">
<path d="M34.4089 24.2109L34.6667 31C34.7049 31.9883 34.3134 32.9049 33.4922 33.75C32.671 34.5951 31.549 35.2646 30.1263 35.7588C28.7036 36.2529 27.1615 36.5 25.5 36.5C23.8385 36.5 22.2964 36.2529 20.8737 35.7588C19.451 35.2646 18.329 34.5951 17.5078 33.75C16.6866 32.9049 16.2951 31.9883 16.3333 31L16.5911 24.2109L24.8125 28.0996C25.0226 28.1999 25.2517 28.25 25.5 28.25C25.7483 28.25 25.9774 28.1999 26.1875 28.0996L34.4089 24.2109ZM42 17.25C42 17.5794 41.895 17.8014 41.6849 17.916L25.6432 25.4785C25.605 25.4928 25.5573 25.5 25.5 25.5C25.4427 25.5 25.395 25.4928 25.3568 25.4785L16.0182 21.0527C15.6076 21.5397 15.2687 22.3382 15.0013 23.4482C14.7339 24.5583 14.5716 25.8366 14.5143 27.2832C15.1159 27.7988 15.4167 28.5794 15.4167 29.625C15.4167 30.6133 15.1398 31.3796 14.5859 31.9238L15.4167 41.2266C15.4358 41.4271 15.3976 41.6061 15.3021 41.7637C15.2161 41.9212 15.1016 42 14.9583 42H12.2083C12.0651 42 11.9505 41.9212 11.8646 41.7637C11.7691 41.6061 11.7309 41.4271 11.75 41.2266L12.5807 31.9238C12.0269 31.3796 11.75 30.6133 11.75 29.625C11.75 28.5794 12.0603 27.7845 12.681 27.2402C12.786 24.2754 13.2539 21.9121 14.0846 20.1504L9.3151 17.916C9.10503 17.8014 9 17.5794 9 17.25C9 16.9206 9.10503 16.6986 9.3151 16.584L25.3568 9.02148C25.395 9.00716 25.4427 9 25.5 9C25.5573 9 25.605 9.00716 25.6432 9.02148L41.6849 16.584C41.895 16.6986 42 16.9206 42 17.25Z" fill="#044177"/>
<path d="M25.5 49C38.4787 49 49 38.4787 49 25.5C49 12.5213 38.4787 2 25.5 2C12.5213 2 2 12.5213 2 25.5C2 38.4787 12.5213 49 25.5 49Z" stroke="#044177" stroke-width="3"/>
</svg>
