<svg width="24" height="16" viewBox="0 0 24 16" fill="none" xmlns="http://www.w3.org/2000/svg">
<path d="M12 0.75C16.8197 0.75 21.0455 3.55602 23.1865 7.73162C23.2282 7.81484 23.25 7.90666 23.25 7.99979C23.25 8.09299 23.2282 8.18488 23.1864 8.26815C21.0466 12.442 16.8196 15.25 12 15.25C7.18029 15.25 2.95461 12.444 0.813558 8.26847C0.771768 8.18523 0.75 8.09337 0.75 8.00021C0.75 7.90704 0.771771 7.81517 0.813568 7.73193C2.9534 3.55801 7.18034 0.75 12 0.75ZM8.24989 13.6124C9.35983 14.3541 10.6647 14.7499 11.9996 14.75L18.75 7.99964C18.7499 6.66474 18.3541 5.35983 17.6124 4.2499C16.8707 3.13987 15.8165 2.2747 14.5831 1.76381C13.3497 1.25292 11.9925 1.11925 10.6831 1.3797C9.37376 1.64015 8.17103 2.28302 7.22702 3.22703C6.28302 4.17103 5.64014 5.37377 5.37969 6.68314C5.11924 7.99251 5.25291 9.34971 5.7638 10.5831C6.2747 11.8165 7.13986 12.8707 8.24989 13.6124ZM12 14.75C12.8865 14.7504 13.7643 14.5761 14.5834 14.237C15.4026 13.898 16.1469 13.4007 16.7738 12.7738C17.4008 12.1469 17.898 11.4026 18.237 10.5834C18.5761 9.76432 18.7504 8.88647 18.75 8L12 14.75ZM12.0755 5.54655C12.0959 5.27764 12.0763 5.0094 12.0192 4.75001C12.6911 4.75204 13.3458 4.96282 13.8928 5.3534C14.4445 5.74737 14.8587 6.30442 15.0772 6.94616C15.2958 7.5879 15.3076 8.28201 15.1109 8.9308C14.9143 9.57958 14.5192 10.1504 13.9811 10.5628C13.4431 10.9753 12.7893 11.2086 12.1117 11.23C11.4341 11.2514 10.7669 11.0598 10.2039 10.6822C9.64093 10.3045 9.21056 9.75976 8.97338 9.12468C8.84095 8.77009 8.77246 8.3973 8.76872 8.02329C9.02229 8.07723 9.2841 8.09537 9.54655 8.07551C10.2008 8.02602 10.8157 7.74368 11.2797 7.27971C11.7437 6.81573 12.026 6.20084 12.0755 5.54655Z" stroke="#808080" stroke-width="1.5"/>
</svg>
