<svg width="212" height="87" viewBox="0 0 212 87" fill="none" xmlns="http://www.w3.org/2000/svg">
<circle cx="12.5" cy="39.5" r="12.5" fill="#044177"/>
<path d="M12.5 27C5.5971 27 0 32.5971 0 39.5C0 46.4029 5.5971 52 12.5 52C19.4029 52 25 46.4029 25 39.5C25 32.5971 19.4029 27 12.5 27ZM12.5 49.8795C6.76897 49.8795 2.12054 45.231 2.12054 39.5C2.12054 33.769 6.76897 29.1205 12.5 29.1205C18.231 29.1205 22.8795 33.769 22.8795 39.5C22.8795 45.231 18.231 49.8795 12.5 49.8795Z" fill="white"/>
<path d="M11.1607 34.5893C11.1607 34.9445 11.3018 35.2851 11.553 35.5363C11.8041 35.7875 12.1448 35.9286 12.5 35.9286C12.8552 35.9286 13.1959 35.7875 13.447 35.5363C13.6982 35.2851 13.8393 34.9445 13.8393 34.5893C13.8393 34.2341 13.6982 33.8934 13.447 33.6423C13.1959 33.3911 12.8552 33.25 12.5 33.25C12.1448 33.25 11.8041 33.3911 11.553 33.6423C11.3018 33.8934 11.1607 34.2341 11.1607 34.5893ZM13.1696 37.7143H11.8304C11.7076 37.7143 11.6071 37.8147 11.6071 37.9375V45.5268C11.6071 45.6496 11.7076 45.75 11.8304 45.75H13.1696C13.2924 45.75 13.3929 45.6496 13.3929 45.5268V37.9375C13.3929 37.8147 13.2924 37.7143 13.1696 37.7143Z" fill="white"/>
<path d="M28 43.5L43 29.373V57.627L28 43.5Z" fill="#044177"/>
<rect x="39" width="173" height="87" rx="20" fill="#044177"/>
<path d="M106.596 20.8765H102.928L102.34 22.6125H99.8344L103.39 12.7845H106.162L109.718 22.6125H107.184L106.596 20.8765ZM105.98 19.0285L104.762 15.4305L103.558 19.0285H105.98ZM120.027 12.7845L116.541 22.6125H113.545L110.059 12.7845H112.607L115.043 20.2045L117.493 12.7845H120.027ZM123.421 12.7845V22.6125H121.027V12.7845H123.421ZM128.712 22.7105C127.993 22.7105 127.349 22.5938 126.78 22.3605C126.211 22.1272 125.753 21.7818 125.408 21.3245C125.072 20.8672 124.895 20.3165 124.876 19.6725H127.424C127.461 20.0365 127.587 20.3165 127.802 20.5125C128.017 20.6992 128.297 20.7925 128.642 20.7925C128.997 20.7925 129.277 20.7132 129.482 20.5545C129.687 20.3865 129.79 20.1578 129.79 19.8685C129.79 19.6258 129.706 19.4252 129.538 19.2665C129.379 19.1078 129.179 18.9772 128.936 18.8745C128.703 18.7718 128.367 18.6552 127.928 18.5245C127.293 18.3285 126.775 18.1325 126.374 17.9365C125.973 17.7405 125.627 17.4512 125.338 17.0685C125.049 16.6858 124.904 16.1865 124.904 15.5705C124.904 14.6558 125.235 13.9418 125.898 13.4285C126.561 12.9058 127.424 12.6445 128.488 12.6445C129.571 12.6445 130.443 12.9058 131.106 13.4285C131.769 13.9418 132.123 14.6605 132.17 15.5845H129.58C129.561 15.2672 129.445 15.0198 129.23 14.8425C129.015 14.6558 128.74 14.5625 128.404 14.5625C128.115 14.5625 127.881 14.6418 127.704 14.8005C127.527 14.9498 127.438 15.1692 127.438 15.4585C127.438 15.7758 127.587 16.0232 127.886 16.2005C128.185 16.3778 128.651 16.5692 129.286 16.7745C129.921 16.9892 130.434 17.1945 130.826 17.3905C131.227 17.5865 131.573 17.8712 131.862 18.2445C132.151 18.6178 132.296 19.0985 132.296 19.6865C132.296 20.2465 132.151 20.7552 131.862 21.2125C131.582 21.6698 131.171 22.0338 130.63 22.3045C130.089 22.5752 129.449 22.7105 128.712 22.7105ZM138.417 22.7105C137.493 22.7105 136.644 22.4958 135.869 22.0665C135.104 21.6372 134.493 21.0398 134.035 20.2745C133.587 19.4998 133.363 18.6318 133.363 17.6705C133.363 16.7092 133.587 15.8458 134.035 15.0805C134.493 14.3152 135.104 13.7178 135.869 13.2885C136.644 12.8592 137.493 12.6445 138.417 12.6445C139.341 12.6445 140.186 12.8592 140.951 13.2885C141.726 13.7178 142.333 14.3152 142.771 15.0805C143.219 15.8458 143.443 16.7092 143.443 17.6705C143.443 18.6318 143.219 19.4998 142.771 20.2745C142.323 21.0398 141.717 21.6372 140.951 22.0665C140.186 22.4958 139.341 22.7105 138.417 22.7105ZM138.417 20.5265C139.201 20.5265 139.827 20.2652 140.293 19.7425C140.769 19.2198 141.007 18.5292 141.007 17.6705C141.007 16.8025 140.769 16.1118 140.293 15.5985C139.827 15.0758 139.201 14.8145 138.417 14.8145C137.624 14.8145 136.989 15.0712 136.513 15.5845C136.047 16.0978 135.813 16.7932 135.813 17.6705C135.813 18.5385 136.047 19.2338 136.513 19.7565C136.989 20.2698 137.624 20.5265 138.417 20.5265ZM147.925 12.4345L147.645 19.1405H145.615L145.335 12.4345H147.925ZM146.665 22.7245C146.245 22.7245 145.9 22.6032 145.629 22.3605C145.368 22.1085 145.237 21.8005 145.237 21.4365C145.237 21.0632 145.368 20.7505 145.629 20.4985C145.9 20.2465 146.245 20.1205 146.665 20.1205C147.076 20.1205 147.412 20.2465 147.673 20.4985C147.944 20.7505 148.079 21.0632 148.079 21.4365C148.079 21.8005 147.944 22.1085 147.673 22.3605C147.412 22.6032 147.076 22.7245 146.665 22.7245Z" fill="white"/>
<path d="M60.8216 36.236H62.9726L62.8556 35.885L61.9106 32.969C61.8386 33.227 61.5146 34.202 60.9386 35.894L60.8216 36.236ZM63.7106 38.45L63.1796 36.857H60.6146L60.0746 38.45H59.2916L61.4066 32.384H62.4146L64.4936 38.45H63.7106ZM67.4765 37.874C67.8605 37.874 68.1755 37.724 68.4215 37.424C68.6675 37.118 68.7905 36.686 68.7905 36.128C68.7905 35.63 68.6705 35.228 68.4305 34.922C68.1905 34.616 67.8875 34.463 67.5215 34.463C67.1555 34.463 66.8375 34.598 66.5675 34.868C66.3035 35.132 66.1715 35.567 66.1715 36.173C66.1715 36.755 66.3065 37.184 66.5765 37.46C66.8465 37.736 67.1465 37.874 67.4765 37.874ZM66.1715 33.887V34.58C66.4895 34.07 66.9605 33.815 67.5845 33.815C68.1905 33.815 68.6645 34.037 69.0065 34.481C69.3545 34.919 69.5285 35.468 69.5285 36.128C69.5285 36.83 69.3455 37.406 68.9795 37.856C68.6195 38.3 68.1485 38.522 67.5665 38.522C66.9665 38.522 66.5015 38.267 66.1715 37.757V40.223H65.4695V33.887H66.1715ZM73.4829 35.876V35.696C73.4829 35.318 73.3809 35.018 73.1769 34.796C72.9729 34.568 72.6909 34.454 72.3309 34.454C71.9889 34.454 71.6979 34.577 71.4579 34.823C71.2179 35.069 71.0769 35.42 71.0349 35.876H73.4829ZM73.9059 37.55V38.216C73.5519 38.402 73.1199 38.495 72.6099 38.495C71.9199 38.495 71.3619 38.285 70.9359 37.865C70.5159 37.439 70.3059 36.878 70.3059 36.182C70.3059 35.456 70.4949 34.883 70.8729 34.463C71.2509 34.043 71.7369 33.833 72.3309 33.833C72.9009 33.833 73.3539 34.016 73.6899 34.382C74.0259 34.748 74.1939 35.267 74.1939 35.939C74.1939 36.131 74.1789 36.308 74.1489 36.47H71.0349C71.0889 36.92 71.2599 37.265 71.5479 37.505C71.8359 37.745 72.2139 37.865 72.6819 37.865C73.1919 37.865 73.5999 37.76 73.9059 37.55ZM75.9801 33.887V34.679C76.2501 34.109 76.7301 33.824 77.4201 33.824C77.8641 33.824 78.2181 33.959 78.4821 34.229C78.7461 34.499 78.8781 34.859 78.8781 35.309V38.45H78.1671V35.498C78.1671 35.162 78.0801 34.907 77.9061 34.733C77.7381 34.553 77.5161 34.463 77.2401 34.463C76.8981 34.463 76.6011 34.595 76.3491 34.859C76.1031 35.123 75.9801 35.489 75.9801 35.957V38.45H75.2781V33.887H75.9801ZM82.5954 36.344H81.8034C81.4194 36.344 81.1314 36.419 80.9394 36.569C80.7474 36.719 80.6514 36.908 80.6514 37.136C80.6514 37.364 80.7264 37.55 80.8764 37.694C81.0264 37.832 81.2454 37.901 81.5334 37.901C81.8574 37.901 82.1154 37.811 82.3074 37.631C82.4994 37.445 82.5954 37.211 82.5954 36.929V36.344ZM80.2374 34.841V34.13C80.5794 33.92 81.0294 33.815 81.5874 33.815C82.7334 33.815 83.3064 34.397 83.3064 35.561V38.45H82.6044V37.91C82.3704 38.3 81.9444 38.495 81.3264 38.495C80.9004 38.495 80.5554 38.369 80.2914 38.117C80.0334 37.865 79.9044 37.547 79.9044 37.163C79.9044 36.725 80.0694 36.386 80.3994 36.146C80.7354 35.9 81.1914 35.777 81.7674 35.777H82.5954V35.543C82.5954 35.183 82.5144 34.913 82.3524 34.733C82.1904 34.547 81.9174 34.454 81.5334 34.454C81.0474 34.454 80.6154 34.583 80.2374 34.841ZM87.0521 34.04V34.715C86.7761 34.547 86.3981 34.463 85.9181 34.463C85.6781 34.463 85.4861 34.52 85.3421 34.634C85.2041 34.742 85.1351 34.883 85.1351 35.057C85.1351 35.165 85.1561 35.261 85.1981 35.345C85.2401 35.423 85.3211 35.501 85.4411 35.579C85.5671 35.657 85.6571 35.711 85.7111 35.741C85.7711 35.765 85.8971 35.819 86.0891 35.903C86.4731 36.059 86.7731 36.236 86.9891 36.434C87.2051 36.632 87.3131 36.899 87.3131 37.235C87.3131 37.625 87.1751 37.934 86.8991 38.162C86.6291 38.39 86.2571 38.504 85.7831 38.504C85.2311 38.504 84.7841 38.411 84.4421 38.225V37.532C84.8441 37.772 85.2761 37.892 85.7381 37.892C86.0141 37.892 86.2241 37.838 86.3681 37.73C86.5121 37.622 86.5841 37.475 86.5841 37.289C86.5841 37.073 86.5031 36.905 86.3411 36.785C86.1851 36.665 85.9211 36.53 85.5491 36.38C85.2071 36.248 84.9311 36.083 84.7211 35.885C84.5171 35.687 84.4151 35.42 84.4151 35.084C84.4151 34.706 84.5561 34.406 84.8381 34.184C85.1261 33.956 85.4831 33.842 85.9091 33.842C86.3831 33.842 86.7641 33.908 87.0521 34.04ZM92.9584 34.04V34.715C92.6824 34.547 92.3044 34.463 91.8244 34.463C91.5844 34.463 91.3924 34.52 91.2484 34.634C91.1104 34.742 91.0414 34.883 91.0414 35.057C91.0414 35.165 91.0624 35.261 91.1044 35.345C91.1464 35.423 91.2274 35.501 91.3474 35.579C91.4734 35.657 91.5634 35.711 91.6174 35.741C91.6774 35.765 91.8034 35.819 91.9954 35.903C92.3794 36.059 92.6794 36.236 92.8954 36.434C93.1114 36.632 93.2194 36.899 93.2194 37.235C93.2194 37.625 93.0814 37.934 92.8054 38.162C92.5354 38.39 92.1634 38.504 91.6894 38.504C91.1374 38.504 90.6904 38.411 90.3484 38.225V37.532C90.7504 37.772 91.1824 37.892 91.6444 37.892C91.9204 37.892 92.1304 37.838 92.2744 37.73C92.4184 37.622 92.4904 37.475 92.4904 37.289C92.4904 37.073 92.4094 36.905 92.2474 36.785C92.0914 36.665 91.8274 36.53 91.4554 36.38C91.1134 36.248 90.8374 36.083 90.6274 35.885C90.4234 35.687 90.3214 35.42 90.3214 35.084C90.3214 34.706 90.4624 34.406 90.7444 34.184C91.0324 33.956 91.3894 33.842 91.8154 33.842C92.2894 33.842 92.6704 33.908 92.9584 34.04ZM97.0184 33.887H97.7294V38.45H97.0184V37.658C96.7784 38.222 96.3014 38.504 95.5874 38.504C95.1374 38.504 94.7804 38.372 94.5164 38.108C94.2584 37.838 94.1294 37.478 94.1294 37.028V33.887H94.8404V36.848C94.8404 37.178 94.9244 37.43 95.0924 37.604C95.2604 37.778 95.4884 37.865 95.7764 37.865C96.1544 37.865 96.4544 37.733 96.6764 37.469C96.9044 37.205 97.0184 36.848 97.0184 36.398V33.887ZM101.501 36.344H100.709C100.325 36.344 100.037 36.419 99.8447 36.569C99.6527 36.719 99.5567 36.908 99.5567 37.136C99.5567 37.364 99.6317 37.55 99.7817 37.694C99.9317 37.832 100.151 37.901 100.439 37.901C100.763 37.901 101.021 37.811 101.213 37.631C101.405 37.445 101.501 37.211 101.501 36.929V36.344ZM99.1427 34.841V34.13C99.4847 33.92 99.9347 33.815 100.493 33.815C101.639 33.815 102.212 34.397 102.212 35.561V38.45H101.51V37.91C101.276 38.3 100.85 38.495 100.232 38.495C99.8057 38.495 99.4607 38.369 99.1967 38.117C98.9387 37.865 98.8097 37.547 98.8097 37.163C98.8097 36.725 98.9747 36.386 99.3047 36.146C99.6407 35.9 100.097 35.777 100.673 35.777H101.501V35.543C101.501 35.183 101.42 34.913 101.258 34.733C101.096 34.547 100.823 34.454 100.439 34.454C99.9527 34.454 99.5207 34.583 99.1427 34.841ZM108.578 35.876V35.696C108.578 35.318 108.476 35.018 108.272 34.796C108.068 34.568 107.786 34.454 107.426 34.454C107.084 34.454 106.793 34.577 106.553 34.823C106.313 35.069 106.172 35.42 106.13 35.876H108.578ZM109.001 37.55V38.216C108.647 38.402 108.215 38.495 107.705 38.495C107.015 38.495 106.457 38.285 106.031 37.865C105.611 37.439 105.401 36.878 105.401 36.182C105.401 35.456 105.59 34.883 105.968 34.463C106.346 34.043 106.832 33.833 107.426 33.833C107.996 33.833 108.449 34.016 108.785 34.382C109.121 34.748 109.289 35.267 109.289 35.939C109.289 36.131 109.274 36.308 109.244 36.47H106.13C106.184 36.92 106.355 37.265 106.643 37.505C106.931 37.745 107.309 37.865 107.777 37.865C108.287 37.865 108.695 37.76 109.001 37.55ZM112.857 34.04V34.715C112.581 34.547 112.203 34.463 111.723 34.463C111.483 34.463 111.291 34.52 111.147 34.634C111.009 34.742 110.94 34.883 110.94 35.057C110.94 35.165 110.961 35.261 111.003 35.345C111.045 35.423 111.126 35.501 111.246 35.579C111.372 35.657 111.462 35.711 111.516 35.741C111.576 35.765 111.702 35.819 111.894 35.903C112.278 36.059 112.578 36.236 112.794 36.434C113.01 36.632 113.118 36.899 113.118 37.235C113.118 37.625 112.98 37.934 112.704 38.162C112.434 38.39 112.062 38.504 111.588 38.504C111.036 38.504 110.589 38.411 110.247 38.225V37.532C110.649 37.772 111.081 37.892 111.543 37.892C111.819 37.892 112.029 37.838 112.173 37.73C112.317 37.622 112.389 37.475 112.389 37.289C112.389 37.073 112.308 36.905 112.146 36.785C111.99 36.665 111.726 36.53 111.354 36.38C111.012 36.248 110.736 36.083 110.526 35.885C110.322 35.687 110.22 35.42 110.22 35.084C110.22 34.706 110.361 34.406 110.643 34.184C110.931 33.956 111.288 33.842 111.714 33.842C112.188 33.842 112.569 33.908 112.857 34.04ZM114.55 36.191C114.556 36.683 114.706 37.094 115 37.424C115.294 37.748 115.711 37.91 116.251 37.91C116.599 37.91 116.923 37.811 117.223 37.613V38.288C116.935 38.462 116.581 38.549 116.161 38.549C115.441 38.549 114.868 38.321 114.442 37.865C114.022 37.403 113.812 36.842 113.812 36.182C113.812 35.534 114.022 34.976 114.442 34.508C114.868 34.04 115.447 33.806 116.179 33.806C116.569 33.806 116.917 33.89 117.223 34.058V34.733C116.947 34.547 116.623 34.454 116.251 34.454C115.735 34.454 115.321 34.622 115.009 34.958C114.703 35.288 114.55 35.699 114.55 36.191ZM120.172 38.531C119.518 38.531 118.999 38.312 118.615 37.874C118.237 37.43 118.048 36.872 118.048 36.2C118.048 35.522 118.243 34.958 118.633 34.508C119.029 34.052 119.542 33.824 120.172 33.824C120.862 33.824 121.393 34.046 121.765 34.49C122.143 34.934 122.332 35.498 122.332 36.182C122.332 36.86 122.14 37.421 121.756 37.865C121.372 38.309 120.844 38.531 120.172 38.531ZM120.172 34.454C119.74 34.454 119.401 34.622 119.155 34.958C118.909 35.294 118.786 35.705 118.786 36.191C118.786 36.665 118.912 37.07 119.164 37.406C119.416 37.736 119.752 37.901 120.172 37.901C120.628 37.901 120.979 37.739 121.225 37.415C121.471 37.085 121.594 36.677 121.594 36.191C121.594 35.687 121.477 35.273 121.243 34.949C121.009 34.619 120.652 34.454 120.172 34.454ZM123.408 38.45V32.087H124.119V38.45H123.408ZM127.929 36.344H127.137C126.753 36.344 126.465 36.419 126.273 36.569C126.081 36.719 125.985 36.908 125.985 37.136C125.985 37.364 126.06 37.55 126.21 37.694C126.36 37.832 126.579 37.901 126.867 37.901C127.191 37.901 127.449 37.811 127.641 37.631C127.833 37.445 127.929 37.211 127.929 36.929V36.344ZM125.571 34.841V34.13C125.913 33.92 126.363 33.815 126.921 33.815C128.067 33.815 128.64 34.397 128.64 35.561V38.45H127.938V37.91C127.704 38.3 127.278 38.495 126.66 38.495C126.234 38.495 125.889 38.369 125.625 38.117C125.367 37.865 125.238 37.547 125.238 37.163C125.238 36.725 125.403 36.386 125.733 36.146C126.069 35.9 126.525 35.777 127.101 35.777H127.929V35.543C127.929 35.183 127.848 34.913 127.686 34.733C127.524 34.547 127.251 34.454 126.867 34.454C126.381 34.454 125.949 34.583 125.571 34.841ZM133.953 38.531C133.299 38.531 132.78 38.312 132.396 37.874C132.018 37.43 131.829 36.872 131.829 36.2C131.829 35.522 132.024 34.958 132.414 34.508C132.81 34.052 133.323 33.824 133.953 33.824C134.643 33.824 135.174 34.046 135.546 34.49C135.924 34.934 136.113 35.498 136.113 36.182C136.113 36.86 135.921 37.421 135.537 37.865C135.153 38.309 134.625 38.531 133.953 38.531ZM133.953 34.454C133.521 34.454 133.182 34.622 132.936 34.958C132.69 35.294 132.567 35.705 132.567 36.191C132.567 36.665 132.693 37.07 132.945 37.406C133.197 37.736 133.533 37.901 133.953 37.901C134.409 37.901 134.76 37.739 135.006 37.415C135.252 37.085 135.375 36.677 135.375 36.191C135.375 35.687 135.258 35.273 135.024 34.949C134.79 34.619 134.433 34.454 133.953 34.454ZM139.988 33.887H140.699V38.45H139.988V37.658C139.748 38.222 139.271 38.504 138.557 38.504C138.107 38.504 137.75 38.372 137.486 38.108C137.228 37.838 137.099 37.478 137.099 37.028V33.887H137.81V36.848C137.81 37.178 137.894 37.43 138.062 37.604C138.23 37.778 138.458 37.865 138.746 37.865C139.124 37.865 139.424 37.733 139.646 37.469C139.874 37.205 139.988 36.848 139.988 36.398V33.887ZM147.046 33.887H147.757V38.45H147.046V37.658C146.806 38.222 146.329 38.504 145.615 38.504C145.165 38.504 144.808 38.372 144.544 38.108C144.286 37.838 144.157 37.478 144.157 37.028V33.887H144.868V36.848C144.868 37.178 144.952 37.43 145.12 37.604C145.288 37.778 145.516 37.865 145.804 37.865C146.182 37.865 146.482 37.733 146.704 37.469C146.932 37.205 147.046 36.848 147.046 36.398V33.887ZM149.773 33.887V34.625C150.025 34.091 150.454 33.824 151.06 33.824C151.762 33.824 152.206 34.121 152.392 34.715C152.524 34.427 152.707 34.208 152.941 34.058C153.181 33.902 153.448 33.824 153.742 33.824C154.216 33.824 154.573 33.959 154.813 34.229C155.053 34.499 155.173 34.862 155.173 35.318V38.45H154.462V35.498C154.462 34.808 154.171 34.463 153.589 34.463C153.301 34.463 153.043 34.595 152.815 34.859C152.587 35.117 152.473 35.483 152.473 35.957V38.45H151.762V35.498C151.762 34.808 151.471 34.463 150.889 34.463C150.601 34.463 150.343 34.595 150.115 34.859C149.887 35.117 149.773 35.483 149.773 35.957V38.45H149.071V33.887H149.773ZM160.371 37.874C160.743 37.874 161.058 37.736 161.316 37.46C161.58 37.184 161.712 36.743 161.712 36.137C161.712 35.561 161.577 35.138 161.307 34.868C161.037 34.598 160.74 34.463 160.416 34.463C160.038 34.463 159.723 34.616 159.471 34.922C159.225 35.222 159.102 35.654 159.102 36.218C159.102 36.71 159.222 37.109 159.462 37.415C159.702 37.721 160.005 37.874 160.371 37.874ZM161.712 32.087H162.423V38.45H161.712V37.775C161.388 38.273 160.92 38.522 160.308 38.522C159.702 38.522 159.225 38.297 158.877 37.847C158.535 37.397 158.364 36.851 158.364 36.209C158.364 35.495 158.547 34.919 158.913 34.481C159.279 34.037 159.75 33.815 160.326 33.815C160.92 33.815 161.382 34.07 161.712 34.58V32.087ZM165.594 38.531C164.94 38.531 164.421 38.312 164.037 37.874C163.659 37.43 163.47 36.872 163.47 36.2C163.47 35.522 163.665 34.958 164.055 34.508C164.451 34.052 164.964 33.824 165.594 33.824C166.284 33.824 166.815 34.046 167.187 34.49C167.565 34.934 167.754 35.498 167.754 36.182C167.754 36.86 167.562 37.421 167.178 37.865C166.794 38.309 166.266 38.531 165.594 38.531ZM165.594 34.454C165.162 34.454 164.823 34.622 164.577 34.958C164.331 35.294 164.208 35.705 164.208 36.191C164.208 36.665 164.334 37.07 164.586 37.406C164.838 37.736 165.174 37.901 165.594 37.901C166.05 37.901 166.401 37.739 166.647 37.415C166.893 37.085 167.016 36.677 167.016 36.191C167.016 35.687 166.899 35.273 166.665 34.949C166.431 34.619 166.074 34.454 165.594 34.454ZM171.278 34.04V34.715C171.002 34.547 170.624 34.463 170.144 34.463C169.904 34.463 169.712 34.52 169.568 34.634C169.43 34.742 169.361 34.883 169.361 35.057C169.361 35.165 169.382 35.261 169.424 35.345C169.466 35.423 169.547 35.501 169.667 35.579C169.793 35.657 169.883 35.711 169.937 35.741C169.997 35.765 170.123 35.819 170.315 35.903C170.699 36.059 170.999 36.236 171.215 36.434C171.431 36.632 171.539 36.899 171.539 37.235C171.539 37.625 171.401 37.934 171.125 38.162C170.855 38.39 170.483 38.504 170.009 38.504C169.457 38.504 169.01 38.411 168.668 38.225V37.532C169.07 37.772 169.502 37.892 169.964 37.892C170.24 37.892 170.45 37.838 170.594 37.73C170.738 37.622 170.81 37.475 170.81 37.289C170.81 37.073 170.729 36.905 170.567 36.785C170.411 36.665 170.147 36.53 169.775 36.38C169.433 36.248 169.157 36.083 168.947 35.885C168.743 35.687 168.641 35.42 168.641 35.084C168.641 34.706 168.782 34.406 169.064 34.184C169.352 33.956 169.709 33.842 170.135 33.842C170.609 33.842 170.99 33.908 171.278 34.04ZM177.184 34.04V34.715C176.908 34.547 176.53 34.463 176.05 34.463C175.81 34.463 175.618 34.52 175.474 34.634C175.336 34.742 175.267 34.883 175.267 35.057C175.267 35.165 175.288 35.261 175.33 35.345C175.372 35.423 175.453 35.501 175.573 35.579C175.699 35.657 175.789 35.711 175.843 35.741C175.903 35.765 176.029 35.819 176.221 35.903C176.605 36.059 176.905 36.236 177.121 36.434C177.337 36.632 177.445 36.899 177.445 37.235C177.445 37.625 177.307 37.934 177.031 38.162C176.761 38.39 176.389 38.504 175.915 38.504C175.363 38.504 174.916 38.411 174.574 38.225V37.532C174.976 37.772 175.408 37.892 175.87 37.892C176.146 37.892 176.356 37.838 176.5 37.73C176.644 37.622 176.716 37.475 176.716 37.289C176.716 37.073 176.635 36.905 176.473 36.785C176.317 36.665 176.053 36.53 175.681 36.38C175.339 36.248 175.063 36.083 174.853 35.885C174.649 35.687 174.547 35.42 174.547 35.084C174.547 34.706 174.688 34.406 174.97 34.184C175.258 33.956 175.615 33.842 176.041 33.842C176.515 33.842 176.896 33.908 177.184 34.04ZM181.316 35.876V35.696C181.316 35.318 181.214 35.018 181.01 34.796C180.806 34.568 180.524 34.454 180.164 34.454C179.822 34.454 179.531 34.577 179.291 34.823C179.051 35.069 178.91 35.42 178.868 35.876H181.316ZM181.739 37.55V38.216C181.385 38.402 180.953 38.495 180.443 38.495C179.753 38.495 179.195 38.285 178.769 37.865C178.349 37.439 178.139 36.878 178.139 36.182C178.139 35.456 178.328 34.883 178.706 34.463C179.084 34.043 179.57 33.833 180.164 33.833C180.734 33.833 181.187 34.016 181.523 34.382C181.859 34.748 182.027 35.267 182.027 35.939C182.027 36.131 182.012 36.308 181.982 36.47H178.868C178.922 36.92 179.093 37.265 179.381 37.505C179.669 37.745 180.047 37.865 180.515 37.865C181.025 37.865 181.433 37.76 181.739 37.55ZM185.946 33.887H186.657V38.45H185.946V37.658C185.706 38.222 185.229 38.504 184.515 38.504C184.065 38.504 183.708 38.372 183.444 38.108C183.186 37.838 183.057 37.478 183.057 37.028V33.887H183.768V36.848C183.768 37.178 183.852 37.43 184.02 37.604C184.188 37.778 184.416 37.865 184.704 37.865C185.082 37.865 185.382 37.733 185.604 37.469C185.832 37.205 185.946 36.848 185.946 36.398V33.887ZM190.455 34.04V34.715C190.179 34.547 189.801 34.463 189.321 34.463C189.081 34.463 188.889 34.52 188.745 34.634C188.607 34.742 188.538 34.883 188.538 35.057C188.538 35.165 188.559 35.261 188.601 35.345C188.643 35.423 188.724 35.501 188.844 35.579C188.97 35.657 189.06 35.711 189.114 35.741C189.174 35.765 189.3 35.819 189.492 35.903C189.876 36.059 190.176 36.236 190.392 36.434C190.608 36.632 190.716 36.899 190.716 37.235C190.716 37.625 190.578 37.934 190.302 38.162C190.032 38.39 189.66 38.504 189.186 38.504C188.634 38.504 188.187 38.411 187.845 38.225V37.532C188.247 37.772 188.679 37.892 189.141 37.892C189.417 37.892 189.627 37.838 189.771 37.73C189.915 37.622 189.987 37.475 189.987 37.289C189.987 37.073 189.906 36.905 189.744 36.785C189.588 36.665 189.324 36.53 188.952 36.38C188.61 36.248 188.334 36.083 188.124 35.885C187.92 35.687 187.818 35.42 187.818 35.084C187.818 34.706 187.959 34.406 188.241 34.184C188.529 33.956 188.886 33.842 189.312 33.842C189.786 33.842 190.167 33.908 190.455 34.04ZM56.5121 48.874C56.8961 48.874 57.2111 48.724 57.4571 48.424C57.7031 48.118 57.8261 47.686 57.8261 47.128C57.8261 46.63 57.7061 46.228 57.4661 45.922C57.2261 45.616 56.9231 45.463 56.5571 45.463C56.1911 45.463 55.8731 45.598 55.6031 45.868C55.3391 46.132 55.2071 46.567 55.2071 47.173C55.2071 47.755 55.3421 48.184 55.6121 48.46C55.8821 48.736 56.1821 48.874 56.5121 48.874ZM55.2071 44.887V45.58C55.5251 45.07 55.9961 44.815 56.6201 44.815C57.2261 44.815 57.7001 45.037 58.0421 45.481C58.3901 45.919 58.5641 46.468 58.5641 47.128C58.5641 47.83 58.3811 48.406 58.0151 48.856C57.6551 49.3 57.1841 49.522 56.6021 49.522C56.0021 49.522 55.5371 49.267 55.2071 48.757V51.223H54.5051V44.887H55.2071ZM60.3136 44.887V45.688C60.5536 45.124 60.9676 44.842 61.5556 44.842C61.6636 44.842 61.7476 44.848 61.8076 44.86V45.562C61.6816 45.52 61.5526 45.499 61.4206 45.499C61.1026 45.499 60.8386 45.646 60.6286 45.94C60.4186 46.234 60.3136 46.573 60.3136 46.957V49.45H59.6026L59.6116 44.887H60.3136ZM64.4011 49.531C63.7471 49.531 63.2281 49.312 62.8441 48.874C62.4661 48.43 62.2771 47.872 62.2771 47.2C62.2771 46.522 62.4721 45.958 62.8621 45.508C63.2581 45.052 63.7711 44.824 64.4011 44.824C65.0911 44.824 65.6221 45.046 65.9941 45.49C66.3721 45.934 66.5611 46.498 66.5611 47.182C66.5611 47.86 66.3691 48.421 65.9851 48.865C65.6011 49.309 65.0731 49.531 64.4011 49.531ZM64.4011 45.454C63.9691 45.454 63.6301 45.622 63.3841 45.958C63.1381 46.294 63.0151 46.705 63.0151 47.191C63.0151 47.665 63.1411 48.07 63.3931 48.406C63.6451 48.736 63.9811 48.901 64.4011 48.901C64.8571 48.901 65.2081 48.739 65.4541 48.415C65.7001 48.085 65.8231 47.677 65.8231 47.191C65.8231 46.687 65.7061 46.273 65.4721 45.949C65.2381 45.619 64.8811 45.454 64.4011 45.454ZM69.7788 43.087V43.735C69.6348 43.687 69.4968 43.663 69.3648 43.663C69.1728 43.663 69.0138 43.729 68.8878 43.861C68.7678 43.993 68.7078 44.197 68.7078 44.473V44.887H69.7158V45.463H68.7078V49.45H67.9968V45.463H67.2138V44.887H67.9968V44.464C67.9968 44.02 68.1138 43.669 68.3478 43.411C68.5878 43.153 68.9178 43.024 69.3378 43.024C69.4818 43.024 69.6288 43.045 69.7788 43.087ZM73.4698 46.876V46.696C73.4698 46.318 73.3678 46.018 73.1638 45.796C72.9598 45.568 72.6778 45.454 72.3178 45.454C71.9758 45.454 71.6848 45.577 71.4448 45.823C71.2048 46.069 71.0638 46.42 71.0218 46.876H73.4698ZM73.8928 48.55V49.216C73.5388 49.402 73.1068 49.495 72.5968 49.495C71.9068 49.495 71.3488 49.285 70.9228 48.865C70.5028 48.439 70.2928 47.878 70.2928 47.182C70.2928 46.456 70.4818 45.883 70.8598 45.463C71.2378 45.043 71.7238 44.833 72.3178 44.833C72.8878 44.833 73.3408 45.016 73.6768 45.382C74.0128 45.748 74.1808 46.267 74.1808 46.939C74.1808 47.131 74.1658 47.308 74.1358 47.47H71.0218C71.0758 47.92 71.2468 48.265 71.5348 48.505C71.8228 48.745 72.2008 48.865 72.6688 48.865C73.1788 48.865 73.5868 48.76 73.8928 48.55ZM77.7489 45.04V45.715C77.4729 45.547 77.0949 45.463 76.6149 45.463C76.3749 45.463 76.1829 45.52 76.0389 45.634C75.9009 45.742 75.8319 45.883 75.8319 46.057C75.8319 46.165 75.8529 46.261 75.8949 46.345C75.9369 46.423 76.0179 46.501 76.1379 46.579C76.2639 46.657 76.3539 46.711 76.4079 46.741C76.4679 46.765 76.5939 46.819 76.7859 46.903C77.1699 47.059 77.4699 47.236 77.6859 47.434C77.9019 47.632 78.0099 47.899 78.0099 48.235C78.0099 48.625 77.8719 48.934 77.5959 49.162C77.3259 49.39 76.9539 49.504 76.4799 49.504C75.9279 49.504 75.4809 49.411 75.1389 49.225V48.532C75.5409 48.772 75.9729 48.892 76.4349 48.892C76.7109 48.892 76.9209 48.838 77.0649 48.73C77.2089 48.622 77.2809 48.475 77.2809 48.289C77.2809 48.073 77.1999 47.905 77.0379 47.785C76.8819 47.665 76.6179 47.53 76.2459 47.38C75.9039 47.248 75.6279 47.083 75.4179 46.885C75.2139 46.687 75.1119 46.42 75.1119 46.084C75.1119 45.706 75.2529 45.406 75.5349 45.184C75.8229 44.956 76.1799 44.842 76.6059 44.842C77.0799 44.842 77.4609 44.908 77.7489 45.04ZM81.4579 45.04V45.715C81.1819 45.547 80.8039 45.463 80.3239 45.463C80.0839 45.463 79.8919 45.52 79.7479 45.634C79.6099 45.742 79.5409 45.883 79.5409 46.057C79.5409 46.165 79.5619 46.261 79.6039 46.345C79.6459 46.423 79.7269 46.501 79.8469 46.579C79.9729 46.657 80.0629 46.711 80.1169 46.741C80.1769 46.765 80.3029 46.819 80.4949 46.903C80.8789 47.059 81.1789 47.236 81.3949 47.434C81.6109 47.632 81.7189 47.899 81.7189 48.235C81.7189 48.625 81.5809 48.934 81.3049 49.162C81.0349 49.39 80.6629 49.504 80.1889 49.504C79.6369 49.504 79.1899 49.411 78.8479 49.225V48.532C79.2499 48.772 79.6819 48.892 80.1439 48.892C80.4199 48.892 80.6299 48.838 80.7739 48.73C80.9179 48.622 80.9899 48.475 80.9899 48.289C80.9899 48.073 80.9089 47.905 80.7469 47.785C80.5909 47.665 80.3269 47.53 79.9549 47.38C79.6129 47.248 79.3369 47.083 79.1269 46.885C78.9229 46.687 78.8209 46.42 78.8209 46.084C78.8209 45.706 78.9619 45.406 79.2439 45.184C79.5319 44.956 79.8889 44.842 80.3149 44.842C80.7889 44.842 81.1699 44.908 81.4579 45.04ZM84.5369 49.531C83.8829 49.531 83.3639 49.312 82.9799 48.874C82.6019 48.43 82.4129 47.872 82.4129 47.2C82.4129 46.522 82.6079 45.958 82.9979 45.508C83.3939 45.052 83.9069 44.824 84.5369 44.824C85.2269 44.824 85.7579 45.046 86.1299 45.49C86.5079 45.934 86.6969 46.498 86.6969 47.182C86.6969 47.86 86.5049 48.421 86.1209 48.865C85.7369 49.309 85.2089 49.531 84.5369 49.531ZM84.5369 45.454C84.1049 45.454 83.7659 45.622 83.5199 45.958C83.2739 46.294 83.1509 46.705 83.1509 47.191C83.1509 47.665 83.2769 48.07 83.5289 48.406C83.7809 48.736 84.1169 48.901 84.5369 48.901C84.9929 48.901 85.3439 48.739 85.5899 48.415C85.8359 48.085 85.9589 47.677 85.9589 47.191C85.9589 46.687 85.8419 46.273 85.6079 45.949C85.3739 45.619 85.0169 45.454 84.5369 45.454ZM88.4386 44.887V45.688C88.6786 45.124 89.0926 44.842 89.6806 44.842C89.7886 44.842 89.8726 44.848 89.9326 44.86V45.562C89.8066 45.52 89.6776 45.499 89.5456 45.499C89.2276 45.499 88.9636 45.646 88.7536 45.94C88.5436 46.234 88.4386 46.573 88.4386 46.957V49.45H87.7276L87.7366 44.887H88.4386ZM93.5791 46.876V46.696C93.5791 46.318 93.4771 46.018 93.2731 45.796C93.0691 45.568 92.7871 45.454 92.4271 45.454C92.0851 45.454 91.7941 45.577 91.5541 45.823C91.3141 46.069 91.1731 46.42 91.1311 46.876H93.5791ZM94.0021 48.55V49.216C93.6481 49.402 93.2161 49.495 92.7061 49.495C92.0161 49.495 91.4581 49.285 91.0321 48.865C90.6121 48.439 90.4021 47.878 90.4021 47.182C90.4021 46.456 90.5911 45.883 90.9691 45.463C91.3471 45.043 91.8331 44.833 92.4271 44.833C92.9971 44.833 93.4501 45.016 93.7861 45.382C94.1221 45.748 94.2901 46.267 94.2901 46.939C94.2901 47.131 94.2751 47.308 94.2451 47.47H91.1311C91.1851 47.92 91.3561 48.265 91.6441 48.505C91.9321 48.745 92.3101 48.865 92.7781 48.865C93.2881 48.865 93.6961 48.76 94.0021 48.55ZM97.8583 45.04V45.715C97.5823 45.547 97.2043 45.463 96.7243 45.463C96.4843 45.463 96.2923 45.52 96.1483 45.634C96.0103 45.742 95.9413 45.883 95.9413 46.057C95.9413 46.165 95.9623 46.261 96.0043 46.345C96.0463 46.423 96.1273 46.501 96.2473 46.579C96.3733 46.657 96.4633 46.711 96.5173 46.741C96.5773 46.765 96.7033 46.819 96.8953 46.903C97.2793 47.059 97.5793 47.236 97.7953 47.434C98.0113 47.632 98.1193 47.899 98.1193 48.235C98.1193 48.625 97.9813 48.934 97.7053 49.162C97.4353 49.39 97.0633 49.504 96.5893 49.504C96.0373 49.504 95.5903 49.411 95.2483 49.225V48.532C95.6503 48.772 96.0823 48.892 96.5443 48.892C96.8203 48.892 97.0303 48.838 97.1743 48.73C97.3183 48.622 97.3903 48.475 97.3903 48.289C97.3903 48.073 97.3093 47.905 97.1473 47.785C96.9913 47.665 96.7273 47.53 96.3553 47.38C96.0133 47.248 95.7373 47.083 95.5273 46.885C95.3233 46.687 95.2213 46.42 95.2213 46.084C95.2213 45.706 95.3623 45.406 95.6443 45.184C95.9323 44.956 96.2893 44.842 96.7153 44.842C97.1893 44.842 97.5703 44.908 97.8583 45.04ZM103.288 48.874C103.672 48.874 103.987 48.724 104.233 48.424C104.479 48.118 104.602 47.686 104.602 47.128C104.602 46.63 104.482 46.228 104.242 45.922C104.002 45.616 103.699 45.463 103.333 45.463C102.967 45.463 102.649 45.598 102.379 45.868C102.115 46.132 101.983 46.567 101.983 47.173C101.983 47.755 102.118 48.184 102.388 48.46C102.658 48.736 102.958 48.874 103.288 48.874ZM101.983 44.887V45.58C102.301 45.07 102.772 44.815 103.396 44.815C104.002 44.815 104.476 45.037 104.818 45.481C105.166 45.919 105.34 46.468 105.34 47.128C105.34 47.83 105.157 48.406 104.791 48.856C104.431 49.3 103.96 49.522 103.378 49.522C102.778 49.522 102.313 49.267 101.983 48.757V51.223H101.281V44.887H101.983ZM108.241 49.531C107.587 49.531 107.068 49.312 106.684 48.874C106.306 48.43 106.117 47.872 106.117 47.2C106.117 46.522 106.312 45.958 106.702 45.508C107.098 45.052 107.611 44.824 108.241 44.824C108.931 44.824 109.462 45.046 109.834 45.49C110.212 45.934 110.401 46.498 110.401 47.182C110.401 47.86 110.209 48.421 109.825 48.865C109.441 49.309 108.913 49.531 108.241 49.531ZM108.241 45.454C107.809 45.454 107.47 45.622 107.224 45.958C106.978 46.294 106.855 46.705 106.855 47.191C106.855 47.665 106.981 48.07 107.233 48.406C107.485 48.736 107.821 48.901 108.241 48.901C108.697 48.901 109.048 48.739 109.294 48.415C109.54 48.085 109.663 47.677 109.663 47.191C109.663 46.687 109.546 46.273 109.312 45.949C109.078 45.619 108.721 45.454 108.241 45.454ZM113.178 48.874C113.55 48.874 113.865 48.736 114.123 48.46C114.387 48.184 114.519 47.743 114.519 47.137C114.519 46.561 114.384 46.138 114.114 45.868C113.844 45.598 113.547 45.463 113.223 45.463C112.845 45.463 112.53 45.616 112.278 45.922C112.032 46.222 111.909 46.654 111.909 47.218C111.909 47.71 112.029 48.109 112.269 48.415C112.509 48.721 112.812 48.874 113.178 48.874ZM114.519 43.087H115.23V49.45H114.519V48.775C114.195 49.273 113.727 49.522 113.115 49.522C112.509 49.522 112.032 49.297 111.684 48.847C111.342 48.397 111.171 47.851 111.171 47.209C111.171 46.495 111.354 45.919 111.72 45.481C112.086 45.037 112.557 44.815 113.133 44.815C113.727 44.815 114.189 45.07 114.519 45.58V43.087ZM119.454 46.876V46.696C119.454 46.318 119.352 46.018 119.148 45.796C118.944 45.568 118.662 45.454 118.302 45.454C117.96 45.454 117.669 45.577 117.429 45.823C117.189 46.069 117.048 46.42 117.006 46.876H119.454ZM119.877 48.55V49.216C119.523 49.402 119.091 49.495 118.581 49.495C117.891 49.495 117.333 49.285 116.907 48.865C116.487 48.439 116.277 47.878 116.277 47.182C116.277 46.456 116.466 45.883 116.844 45.463C117.222 45.043 117.708 44.833 118.302 44.833C118.872 44.833 119.325 45.016 119.661 45.382C119.997 45.748 120.165 46.267 120.165 46.939C120.165 47.131 120.15 47.308 120.12 47.47H117.006C117.06 47.92 117.231 48.265 117.519 48.505C117.807 48.745 118.185 48.865 118.653 48.865C119.163 48.865 119.571 48.76 119.877 48.55ZM121.951 44.887V45.625C122.203 45.091 122.632 44.824 123.238 44.824C123.94 44.824 124.384 45.121 124.57 45.715C124.702 45.427 124.885 45.208 125.119 45.058C125.359 44.902 125.626 44.824 125.92 44.824C126.394 44.824 126.751 44.959 126.991 45.229C127.231 45.499 127.351 45.862 127.351 46.318V49.45H126.64V46.498C126.64 45.808 126.349 45.463 125.767 45.463C125.479 45.463 125.221 45.595 124.993 45.859C124.765 46.117 124.651 46.483 124.651 46.957V49.45H123.94V46.498C123.94 45.808 123.649 45.463 123.067 45.463C122.779 45.463 122.521 45.595 122.293 45.859C122.065 46.117 121.951 46.483 121.951 46.957V49.45H121.249V44.887H121.951ZM133.269 47.344H132.477C132.093 47.344 131.805 47.419 131.613 47.569C131.421 47.719 131.325 47.908 131.325 48.136C131.325 48.364 131.4 48.55 131.55 48.694C131.7 48.832 131.919 48.901 132.207 48.901C132.531 48.901 132.789 48.811 132.981 48.631C133.173 48.445 133.269 48.211 133.269 47.929V47.344ZM130.911 45.841V45.13C131.253 44.92 131.703 44.815 132.261 44.815C133.407 44.815 133.98 45.397 133.98 46.561V49.45H133.278V48.91C133.044 49.3 132.618 49.495 132 49.495C131.574 49.495 131.229 49.369 130.965 49.117C130.707 48.865 130.578 48.547 130.578 48.163C130.578 47.725 130.743 47.386 131.073 47.146C131.409 46.9 131.865 46.777 132.441 46.777H133.269V46.543C133.269 46.183 133.188 45.913 133.026 45.733C132.864 45.547 132.591 45.454 132.207 45.454C131.721 45.454 131.289 45.583 130.911 45.841ZM135.277 49.45V43.087H135.988V49.45H135.277ZM138.323 45.463V48.136C138.323 48.622 138.551 48.865 139.007 48.865C139.241 48.865 139.448 48.796 139.628 48.658V49.333C139.43 49.441 139.208 49.495 138.962 49.495C138.062 49.495 137.612 49.036 137.612 48.118V45.463H136.883V44.887H137.612V43.753H138.323V44.887H139.583V45.463H138.323ZM143.571 46.876V46.696C143.571 46.318 143.469 46.018 143.265 45.796C143.061 45.568 142.779 45.454 142.419 45.454C142.077 45.454 141.786 45.577 141.546 45.823C141.306 46.069 141.165 46.42 141.123 46.876H143.571ZM143.994 48.55V49.216C143.64 49.402 143.208 49.495 142.698 49.495C142.008 49.495 141.45 49.285 141.024 48.865C140.604 48.439 140.394 47.878 140.394 47.182C140.394 46.456 140.583 45.883 140.961 45.463C141.339 45.043 141.825 44.833 142.419 44.833C142.989 44.833 143.442 45.016 143.778 45.382C144.114 45.748 144.282 46.267 144.282 46.939C144.282 47.131 144.267 47.308 144.237 47.47H141.123C141.177 47.92 141.348 48.265 141.636 48.505C141.924 48.745 142.302 48.865 142.77 48.865C143.28 48.865 143.688 48.76 143.994 48.55ZM146.068 44.887V45.688C146.308 45.124 146.722 44.842 147.31 44.842C147.418 44.842 147.502 44.848 147.562 44.86V45.562C147.436 45.52 147.307 45.499 147.175 45.499C146.857 45.499 146.593 45.646 146.383 45.94C146.173 46.234 146.068 46.573 146.068 46.957V49.45H145.357L145.366 44.887H146.068ZM150.759 47.344H149.967C149.583 47.344 149.295 47.419 149.103 47.569C148.911 47.719 148.815 47.908 148.815 48.136C148.815 48.364 148.89 48.55 149.04 48.694C149.19 48.832 149.409 48.901 149.697 48.901C150.021 48.901 150.279 48.811 150.471 48.631C150.663 48.445 150.759 48.211 150.759 47.929V47.344ZM148.401 45.841V45.13C148.743 44.92 149.193 44.815 149.751 44.815C150.897 44.815 151.47 45.397 151.47 46.561V49.45H150.768V48.91C150.534 49.3 150.108 49.495 149.49 49.495C149.064 49.495 148.719 49.369 148.455 49.117C148.197 48.865 148.068 48.547 148.068 48.163C148.068 47.725 148.233 47.386 148.563 47.146C148.899 46.9 149.355 46.777 149.931 46.777H150.759V46.543C150.759 46.183 150.678 45.913 150.516 45.733C150.354 45.547 150.081 45.454 149.697 45.454C149.211 45.454 148.779 45.583 148.401 45.841ZM153.434 44.887V45.688C153.674 45.124 154.088 44.842 154.676 44.842C154.784 44.842 154.868 44.848 154.928 44.86V45.562C154.802 45.52 154.673 45.499 154.541 45.499C154.223 45.499 153.959 45.646 153.749 45.94C153.539 46.234 153.434 46.573 153.434 46.957V49.45H152.723L152.732 44.887H153.434ZM160.349 45.04V45.715C160.073 45.547 159.695 45.463 159.215 45.463C158.975 45.463 158.783 45.52 158.639 45.634C158.501 45.742 158.432 45.883 158.432 46.057C158.432 46.165 158.453 46.261 158.495 46.345C158.537 46.423 158.618 46.501 158.738 46.579C158.864 46.657 158.954 46.711 159.008 46.741C159.068 46.765 159.194 46.819 159.386 46.903C159.77 47.059 160.07 47.236 160.286 47.434C160.502 47.632 160.61 47.899 160.61 48.235C160.61 48.625 160.472 48.934 160.196 49.162C159.926 49.39 159.554 49.504 159.08 49.504C158.528 49.504 158.081 49.411 157.739 49.225V48.532C158.141 48.772 158.573 48.892 159.035 48.892C159.311 48.892 159.521 48.838 159.665 48.73C159.809 48.622 159.881 48.475 159.881 48.289C159.881 48.073 159.8 47.905 159.638 47.785C159.482 47.665 159.218 47.53 158.846 47.38C158.504 47.248 158.228 47.083 158.018 46.885C157.814 46.687 157.712 46.42 157.712 46.084C157.712 45.706 157.853 45.406 158.135 45.184C158.423 44.956 158.78 44.842 159.206 44.842C159.68 44.842 160.061 44.908 160.349 45.04ZM164.481 46.876V46.696C164.481 46.318 164.379 46.018 164.175 45.796C163.971 45.568 163.689 45.454 163.329 45.454C162.987 45.454 162.696 45.577 162.456 45.823C162.216 46.069 162.075 46.42 162.033 46.876H164.481ZM164.904 48.55V49.216C164.55 49.402 164.118 49.495 163.608 49.495C162.918 49.495 162.36 49.285 161.934 48.865C161.514 48.439 161.304 47.878 161.304 47.182C161.304 46.456 161.493 45.883 161.871 45.463C162.249 45.043 162.735 44.833 163.329 44.833C163.899 44.833 164.352 45.016 164.688 45.382C165.024 45.748 165.192 46.267 165.192 46.939C165.192 47.131 165.177 47.308 165.147 47.47H162.033C162.087 47.92 162.258 48.265 162.546 48.505C162.834 48.745 163.212 48.865 163.68 48.865C164.19 48.865 164.598 48.76 164.904 48.55ZM169.111 44.887H169.822V49.45H169.111V48.658C168.871 49.222 168.394 49.504 167.68 49.504C167.23 49.504 166.873 49.372 166.609 49.108C166.351 48.838 166.222 48.478 166.222 48.028V44.887H166.933V47.848C166.933 48.178 167.017 48.43 167.185 48.604C167.353 48.778 167.581 48.865 167.869 48.865C168.247 48.865 168.547 48.733 168.769 48.469C168.997 48.205 169.111 47.848 169.111 47.398V44.887ZM174.035 44.887V45.679C174.305 45.109 174.785 44.824 175.475 44.824C175.919 44.824 176.273 44.959 176.537 45.229C176.801 45.499 176.933 45.859 176.933 46.309V49.45H176.222V46.498C176.222 46.162 176.135 45.907 175.961 45.733C175.793 45.553 175.571 45.463 175.295 45.463C174.953 45.463 174.656 45.595 174.404 45.859C174.158 46.123 174.035 46.489 174.035 46.957V49.45H173.333V44.887H174.035ZM180.048 49.531C179.394 49.531 178.875 49.312 178.491 48.874C178.113 48.43 177.924 47.872 177.924 47.2C177.924 46.522 178.119 45.958 178.509 45.508C178.905 45.052 179.418 44.824 180.048 44.824C180.738 44.824 181.269 45.046 181.641 45.49C182.019 45.934 182.208 46.498 182.208 47.182C182.208 47.86 182.016 48.421 181.632 48.865C181.248 49.309 180.72 49.531 180.048 49.531ZM180.048 45.454C179.616 45.454 179.277 45.622 179.031 45.958C178.785 46.294 178.662 46.705 178.662 47.191C178.662 47.665 178.788 48.07 179.04 48.406C179.292 48.736 179.628 48.901 180.048 48.901C180.504 48.901 180.855 48.739 181.101 48.415C181.347 48.085 181.47 47.677 181.47 47.191C181.47 46.687 181.353 46.273 181.119 45.949C180.885 45.619 180.528 45.454 180.048 45.454ZM183.949 44.887V45.625C184.201 45.091 184.63 44.824 185.236 44.824C185.938 44.824 186.382 45.121 186.568 45.715C186.7 45.427 186.883 45.208 187.117 45.058C187.357 44.902 187.624 44.824 187.918 44.824C188.392 44.824 188.749 44.959 188.989 45.229C189.229 45.499 189.349 45.862 189.349 46.318V49.45H188.638V46.498C188.638 45.808 188.347 45.463 187.765 45.463C187.477 45.463 187.219 45.595 186.991 45.859C186.763 46.117 186.649 46.483 186.649 46.957V49.45H185.938V46.498C185.938 45.808 185.647 45.463 185.065 45.463C184.777 45.463 184.519 45.595 184.291 45.859C184.063 46.117 183.949 46.483 183.949 46.957V49.45H183.247V44.887H183.949ZM193.52 46.876V46.696C193.52 46.318 193.418 46.018 193.214 45.796C193.01 45.568 192.728 45.454 192.368 45.454C192.026 45.454 191.735 45.577 191.495 45.823C191.255 46.069 191.114 46.42 191.072 46.876H193.52ZM193.943 48.55V49.216C193.589 49.402 193.157 49.495 192.647 49.495C191.957 49.495 191.399 49.285 190.973 48.865C190.553 48.439 190.343 47.878 190.343 47.182C190.343 46.456 190.532 45.883 190.91 45.463C191.288 45.043 191.774 44.833 192.368 44.833C192.938 44.833 193.391 45.016 193.727 45.382C194.063 45.748 194.231 46.267 194.231 46.939C194.231 47.131 194.216 47.308 194.186 47.47H191.072C191.126 47.92 191.297 48.265 191.585 48.505C191.873 48.745 192.251 48.865 192.719 48.865C193.229 48.865 193.637 48.76 193.943 48.55ZM195.027 49.369C194.925 49.267 194.874 49.141 194.874 48.991C194.874 48.841 194.925 48.715 195.027 48.613C195.129 48.511 195.255 48.46 195.405 48.46C195.555 48.46 195.681 48.511 195.783 48.613C195.885 48.715 195.936 48.841 195.936 48.991C195.936 49.141 195.885 49.267 195.783 49.369C195.681 49.471 195.555 49.522 195.405 49.522C195.255 49.522 195.129 49.471 195.027 49.369ZM51.6007 59.811H54.2557V60.45H50.8717V54.384H54.2107V55.023H51.6007V57.102H53.9047V57.741H51.6007V59.811ZM56.0465 55.887V56.625C56.2985 56.091 56.7275 55.824 57.3335 55.824C58.0355 55.824 58.4795 56.121 58.6655 56.715C58.7975 56.427 58.9805 56.208 59.2145 56.058C59.4545 55.902 59.7215 55.824 60.0155 55.824C60.4895 55.824 60.8465 55.959 61.0865 56.229C61.3265 56.499 61.4465 56.862 61.4465 57.318V60.45H60.7355V57.498C60.7355 56.808 60.4445 56.463 59.8625 56.463C59.5745 56.463 59.3165 56.595 59.0885 56.859C58.8605 57.117 58.7465 57.483 58.7465 57.957V60.45H58.0355V57.498C58.0355 56.808 57.7445 56.463 57.1625 56.463C56.8745 56.463 56.6165 56.595 56.3885 56.859C56.1605 57.117 56.0465 57.483 56.0465 57.957V60.45H55.3445V55.887H56.0465ZM65.375 58.191C65.381 58.683 65.531 59.094 65.825 59.424C66.119 59.748 66.536 59.91 67.076 59.91C67.424 59.91 67.748 59.811 68.048 59.613V60.288C67.76 60.462 67.406 60.549 66.986 60.549C66.266 60.549 65.693 60.321 65.267 59.865C64.847 59.403 64.637 58.842 64.637 58.182C64.637 57.534 64.847 56.976 65.267 56.508C65.693 56.04 66.272 55.806 67.004 55.806C67.394 55.806 67.742 55.89 68.048 56.058V56.733C67.772 56.547 67.448 56.454 67.076 56.454C66.56 56.454 66.146 56.622 65.834 56.958C65.528 57.288 65.375 57.699 65.375 58.191ZM71.6003 58.344H70.8083C70.4243 58.344 70.1363 58.419 69.9443 58.569C69.7523 58.719 69.6563 58.908 69.6563 59.136C69.6563 59.364 69.7313 59.55 69.8813 59.694C70.0313 59.832 70.2503 59.901 70.5383 59.901C70.8623 59.901 71.1203 59.811 71.3123 59.631C71.5043 59.445 71.6003 59.211 71.6003 58.929V58.344ZM69.2423 56.841V56.13C69.5843 55.92 70.0343 55.815 70.5923 55.815C71.7383 55.815 72.3113 56.397 72.3113 57.561V60.45H71.6093V59.91C71.3753 60.3 70.9493 60.495 70.3313 60.495C69.9053 60.495 69.5603 60.369 69.2963 60.117C69.0383 59.865 68.9093 59.547 68.9093 59.163C68.9093 58.725 69.0743 58.386 69.4043 58.146C69.7403 57.9 70.1963 57.777 70.7723 57.777H71.6003V57.543C71.6003 57.183 71.5193 56.913 71.3573 56.733C71.1953 56.547 70.9223 56.454 70.5383 56.454C70.0523 56.454 69.6203 56.583 69.2423 56.841ZM76.057 56.04V56.715C75.781 56.547 75.403 56.463 74.923 56.463C74.683 56.463 74.491 56.52 74.347 56.634C74.209 56.742 74.14 56.883 74.14 57.057C74.14 57.165 74.161 57.261 74.203 57.345C74.245 57.423 74.326 57.501 74.446 57.579C74.572 57.657 74.662 57.711 74.716 57.741C74.776 57.765 74.902 57.819 75.094 57.903C75.478 58.059 75.778 58.236 75.994 58.434C76.21 58.632 76.318 58.899 76.318 59.235C76.318 59.625 76.18 59.934 75.904 60.162C75.634 60.39 75.262 60.504 74.788 60.504C74.236 60.504 73.789 60.411 73.447 60.225V59.532C73.849 59.772 74.281 59.892 74.743 59.892C75.019 59.892 75.229 59.838 75.373 59.73C75.517 59.622 75.589 59.475 75.589 59.289C75.589 59.073 75.508 58.905 75.346 58.785C75.19 58.665 74.926 58.53 74.554 58.38C74.212 58.248 73.936 58.083 73.726 57.885C73.522 57.687 73.42 57.42 73.42 57.084C73.42 56.706 73.561 56.406 73.843 56.184C74.131 55.956 74.488 55.842 74.914 55.842C75.388 55.842 75.769 55.908 76.057 56.04ZM79.136 60.531C78.482 60.531 77.963 60.312 77.579 59.874C77.201 59.43 77.012 58.872 77.012 58.2C77.012 57.522 77.207 56.958 77.597 56.508C77.993 56.052 78.506 55.824 79.136 55.824C79.826 55.824 80.357 56.046 80.729 56.49C81.107 56.934 81.296 57.498 81.296 58.182C81.296 58.86 81.104 59.421 80.72 59.865C80.336 60.309 79.808 60.531 79.136 60.531ZM79.136 56.454C78.704 56.454 78.365 56.622 78.119 56.958C77.873 57.294 77.75 57.705 77.75 58.191C77.75 58.665 77.876 59.07 78.128 59.406C78.38 59.736 78.716 59.901 79.136 59.901C79.592 59.901 79.943 59.739 80.189 59.415C80.435 59.085 80.558 58.677 80.558 58.191C80.558 57.687 80.441 57.273 80.207 56.949C79.973 56.619 79.616 56.454 79.136 56.454ZM86.27 59.874C86.642 59.874 86.957 59.736 87.215 59.46C87.479 59.184 87.611 58.743 87.611 58.137C87.611 57.561 87.476 57.138 87.206 56.868C86.936 56.598 86.639 56.463 86.315 56.463C85.937 56.463 85.622 56.616 85.37 56.922C85.124 57.222 85.001 57.654 85.001 58.218C85.001 58.71 85.121 59.109 85.361 59.415C85.601 59.721 85.904 59.874 86.27 59.874ZM87.611 54.087H88.322V60.45H87.611V59.775C87.287 60.273 86.819 60.522 86.207 60.522C85.601 60.522 85.124 60.297 84.776 59.847C84.434 59.397 84.263 58.851 84.263 58.209C84.263 57.495 84.446 56.919 84.812 56.481C85.178 56.037 85.649 55.815 86.225 55.815C86.819 55.815 87.281 56.07 87.611 56.58V54.087ZM92.5464 57.876V57.696C92.5464 57.318 92.4444 57.018 92.2404 56.796C92.0364 56.568 91.7544 56.454 91.3944 56.454C91.0524 56.454 90.7614 56.577 90.5214 56.823C90.2814 57.069 90.1404 57.42 90.0984 57.876H92.5464ZM92.9694 59.55V60.216C92.6154 60.402 92.1834 60.495 91.6734 60.495C90.9834 60.495 90.4254 60.285 89.9994 59.865C89.5794 59.439 89.3694 58.878 89.3694 58.182C89.3694 57.456 89.5584 56.883 89.9364 56.463C90.3144 56.043 90.8004 55.833 91.3944 55.833C91.9644 55.833 92.4174 56.016 92.7534 56.382C93.0894 56.748 93.2574 57.267 93.2574 57.939C93.2574 58.131 93.2424 58.308 93.2124 58.47H90.0984C90.1524 58.92 90.3234 59.265 90.6114 59.505C90.8994 59.745 91.2774 59.865 91.7454 59.865C92.2554 59.865 92.6634 59.76 92.9694 59.55ZM99.4458 57.876V57.696C99.4458 57.318 99.3438 57.018 99.1398 56.796C98.9358 56.568 98.6538 56.454 98.2938 56.454C97.9518 56.454 97.6608 56.577 97.4208 56.823C97.1808 57.069 97.0398 57.42 96.9978 57.876H99.4458ZM99.8688 59.55V60.216C99.5148 60.402 99.0828 60.495 98.5728 60.495C97.8828 60.495 97.3248 60.285 96.8988 59.865C96.4788 59.439 96.2688 58.878 96.2688 58.182C96.2688 57.456 96.4578 56.883 96.8358 56.463C97.2138 56.043 97.6998 55.833 98.2938 55.833C98.8638 55.833 99.3168 56.016 99.6528 56.382C99.9888 56.748 100.157 57.267 100.157 57.939C100.157 58.131 100.142 58.308 100.112 58.47H96.9978C97.0518 58.92 97.2228 59.265 97.5108 59.505C97.7988 59.745 98.1768 59.865 98.6448 59.865C99.1548 59.865 99.5628 59.76 99.8688 59.55ZM101.943 55.887V56.688C102.183 56.124 102.597 55.842 103.185 55.842C103.293 55.842 103.377 55.848 103.437 55.86V56.562C103.311 56.52 103.182 56.499 103.05 56.499C102.732 56.499 102.468 56.646 102.258 56.94C102.048 57.234 101.943 57.573 101.943 57.957V60.45H101.232L101.241 55.887H101.943ZM104.879 55.887V56.688C105.119 56.124 105.533 55.842 106.121 55.842C106.229 55.842 106.313 55.848 106.373 55.86V56.562C106.247 56.52 106.118 56.499 105.986 56.499C105.668 56.499 105.404 56.646 105.194 56.94C104.984 57.234 104.879 57.573 104.879 57.957V60.45H104.168L104.177 55.887H104.879ZM108.966 60.531C108.312 60.531 107.793 60.312 107.409 59.874C107.031 59.43 106.842 58.872 106.842 58.2C106.842 57.522 107.037 56.958 107.427 56.508C107.823 56.052 108.336 55.824 108.966 55.824C109.656 55.824 110.187 56.046 110.559 56.49C110.937 56.934 111.126 57.498 111.126 58.182C111.126 58.86 110.934 59.421 110.55 59.865C110.166 60.309 109.638 60.531 108.966 60.531ZM108.966 56.454C108.534 56.454 108.195 56.622 107.949 56.958C107.703 57.294 107.58 57.705 107.58 58.191C107.58 58.665 107.706 59.07 107.958 59.406C108.21 59.736 108.546 59.901 108.966 59.901C109.422 59.901 109.773 59.739 110.019 59.415C110.265 59.085 110.388 58.677 110.388 58.191C110.388 57.687 110.271 57.273 110.037 56.949C109.803 56.619 109.446 56.454 108.966 56.454ZM117.27 57.876V57.696C117.27 57.318 117.168 57.018 116.964 56.796C116.76 56.568 116.478 56.454 116.118 56.454C115.776 56.454 115.485 56.577 115.245 56.823C115.005 57.069 114.864 57.42 114.822 57.876H117.27ZM117.693 59.55V60.216C117.339 60.402 116.907 60.495 116.397 60.495C115.707 60.495 115.149 60.285 114.723 59.865C114.303 59.439 114.093 58.878 114.093 58.182C114.093 57.456 114.282 56.883 114.66 56.463C115.038 56.043 115.524 55.833 116.118 55.833C116.688 55.833 117.141 56.016 117.477 56.382C117.813 56.748 117.981 57.267 117.981 57.939C117.981 58.131 117.966 58.308 117.936 58.47H114.822C114.876 58.92 115.047 59.265 115.335 59.505C115.623 59.745 116.001 59.865 116.469 59.865C116.979 59.865 117.387 59.76 117.693 59.55ZM119.767 55.887V56.679C120.037 56.109 120.517 55.824 121.207 55.824C121.651 55.824 122.005 55.959 122.269 56.229C122.533 56.499 122.665 56.859 122.665 57.309V60.45H121.954V57.498C121.954 57.162 121.867 56.907 121.693 56.733C121.525 56.553 121.303 56.463 121.027 56.463C120.685 56.463 120.388 56.595 120.136 56.859C119.89 57.123 119.767 57.489 119.767 57.957V60.45H119.065V55.887H119.767ZM124.907 56.463V59.136C124.907 59.622 125.135 59.865 125.591 59.865C125.825 59.865 126.032 59.796 126.212 59.658V60.333C126.014 60.441 125.792 60.495 125.546 60.495C124.646 60.495 124.196 60.036 124.196 59.118V56.463H123.467V55.887H124.196V54.753H124.907V55.887H126.167V56.463H124.907ZM127.95 55.887V56.688C128.19 56.124 128.604 55.842 129.192 55.842C129.3 55.842 129.384 55.848 129.444 55.86V56.562C129.318 56.52 129.189 56.499 129.057 56.499C128.739 56.499 128.475 56.646 128.265 56.94C128.055 57.234 127.95 57.573 127.95 57.957V60.45H127.239L127.248 55.887H127.95ZM133.09 57.876V57.696C133.09 57.318 132.988 57.018 132.784 56.796C132.58 56.568 132.298 56.454 131.938 56.454C131.596 56.454 131.305 56.577 131.065 56.823C130.825 57.069 130.684 57.42 130.642 57.876H133.09ZM133.513 59.55V60.216C133.159 60.402 132.727 60.495 132.217 60.495C131.527 60.495 130.969 60.285 130.543 59.865C130.123 59.439 129.913 58.878 129.913 58.182C129.913 57.456 130.102 56.883 130.48 56.463C130.858 56.043 131.344 55.833 131.938 55.833C132.508 55.833 132.961 56.016 133.297 56.382C133.633 56.748 133.801 57.267 133.801 57.939C133.801 58.131 133.786 58.308 133.756 58.47H130.642C130.696 58.92 130.867 59.265 131.155 59.505C131.443 59.745 131.821 59.865 132.289 59.865C132.799 59.865 133.207 59.76 133.513 59.55ZM139.99 57.876V57.696C139.99 57.318 139.888 57.018 139.684 56.796C139.48 56.568 139.198 56.454 138.838 56.454C138.496 56.454 138.205 56.577 137.965 56.823C137.725 57.069 137.584 57.42 137.542 57.876H139.99ZM140.413 59.55V60.216C140.059 60.402 139.627 60.495 139.117 60.495C138.427 60.495 137.869 60.285 137.443 59.865C137.023 59.439 136.813 58.878 136.813 58.182C136.813 57.456 137.002 56.883 137.38 56.463C137.758 56.043 138.244 55.833 138.838 55.833C139.408 55.833 139.861 56.016 140.197 56.382C140.533 56.748 140.701 57.267 140.701 57.939C140.701 58.131 140.686 58.308 140.656 58.47H137.542C137.596 58.92 137.767 59.265 138.055 59.505C138.343 59.745 138.721 59.865 139.189 59.865C139.699 59.865 140.107 59.76 140.413 59.55ZM142.487 55.887V56.625C142.739 56.091 143.168 55.824 143.774 55.824C144.476 55.824 144.92 56.121 145.106 56.715C145.238 56.427 145.421 56.208 145.655 56.058C145.895 55.902 146.162 55.824 146.456 55.824C146.93 55.824 147.287 55.959 147.527 56.229C147.767 56.499 147.887 56.862 147.887 57.318V60.45H147.176V57.498C147.176 56.808 146.885 56.463 146.303 56.463C146.015 56.463 145.757 56.595 145.529 56.859C145.301 57.117 145.187 57.483 145.187 57.957V60.45H144.476V57.498C144.476 56.808 144.185 56.463 143.603 56.463C143.315 56.463 143.057 56.595 142.829 56.859C142.601 57.117 142.487 57.483 142.487 57.957V60.45H141.785V55.887H142.487ZM151.815 58.191C151.821 58.683 151.971 59.094 152.265 59.424C152.559 59.748 152.976 59.91 153.516 59.91C153.864 59.91 154.188 59.811 154.488 59.613V60.288C154.2 60.462 153.846 60.549 153.426 60.549C152.706 60.549 152.133 60.321 151.707 59.865C151.287 59.403 151.077 58.842 151.077 58.182C151.077 57.534 151.287 56.976 151.707 56.508C152.133 56.04 152.712 55.806 153.444 55.806C153.834 55.806 154.182 55.89 154.488 56.058V56.733C154.212 56.547 153.888 56.454 153.516 56.454C153 56.454 152.586 56.622 152.274 56.958C151.968 57.288 151.815 57.699 151.815 58.191ZM157.438 60.531C156.784 60.531 156.265 60.312 155.881 59.874C155.503 59.43 155.314 58.872 155.314 58.2C155.314 57.522 155.509 56.958 155.899 56.508C156.295 56.052 156.808 55.824 157.438 55.824C158.128 55.824 158.659 56.046 159.031 56.49C159.409 56.934 159.598 57.498 159.598 58.182C159.598 58.86 159.406 59.421 159.022 59.865C158.638 60.309 158.11 60.531 157.438 60.531ZM157.438 56.454C157.006 56.454 156.667 56.622 156.421 56.958C156.175 57.294 156.052 57.705 156.052 58.191C156.052 58.665 156.178 59.07 156.43 59.406C156.682 59.736 157.018 59.901 157.438 59.901C157.894 59.901 158.245 59.739 158.491 59.415C158.737 59.085 158.86 58.677 158.86 58.191C158.86 57.687 158.743 57.273 158.509 56.949C158.275 56.619 157.918 56.454 157.438 56.454ZM161.339 55.887V56.679C161.609 56.109 162.089 55.824 162.779 55.824C163.223 55.824 163.577 55.959 163.841 56.229C164.105 56.499 164.237 56.859 164.237 57.309V60.45H163.526V57.498C163.526 57.162 163.439 56.907 163.265 56.733C163.097 56.553 162.875 56.463 162.599 56.463C162.257 56.463 161.96 56.595 161.708 56.859C161.462 57.123 161.339 57.489 161.339 57.957V60.45H160.637V55.887H161.339ZM166.479 56.463V59.136C166.479 59.622 166.707 59.865 167.163 59.865C167.397 59.865 167.604 59.796 167.784 59.658V60.333C167.586 60.441 167.364 60.495 167.118 60.495C166.218 60.495 165.768 60.036 165.768 59.118V56.463H165.039V55.887H165.768V54.753H166.479V55.887H167.739V56.463H166.479ZM171.277 58.344H170.485C170.101 58.344 169.813 58.419 169.621 58.569C169.429 58.719 169.333 58.908 169.333 59.136C169.333 59.364 169.408 59.55 169.558 59.694C169.708 59.832 169.927 59.901 170.215 59.901C170.539 59.901 170.797 59.811 170.989 59.631C171.181 59.445 171.277 59.211 171.277 58.929V58.344ZM168.919 56.841V56.13C169.261 55.92 169.711 55.815 170.269 55.815C171.415 55.815 171.988 56.397 171.988 57.561V60.45H171.286V59.91C171.052 60.3 170.626 60.495 170.008 60.495C169.582 60.495 169.237 60.369 168.973 60.117C168.715 59.865 168.586 59.547 168.586 59.163C168.586 58.725 168.751 58.386 169.081 58.146C169.417 57.9 169.873 57.777 170.449 57.777H171.277V57.543C171.277 57.183 171.196 56.913 171.034 56.733C170.872 56.547 170.599 56.454 170.215 56.454C169.729 56.454 169.297 56.583 168.919 56.841ZM174.231 56.463V59.136C174.231 59.622 174.459 59.865 174.915 59.865C175.149 59.865 175.356 59.796 175.536 59.658V60.333C175.338 60.441 175.116 60.495 174.87 60.495C173.97 60.495 173.52 60.036 173.52 59.118V56.463H172.791V55.887H173.52V54.753H174.231V55.887H175.491V56.463H174.231ZM178.426 60.531C177.772 60.531 177.253 60.312 176.869 59.874C176.491 59.43 176.302 58.872 176.302 58.2C176.302 57.522 176.497 56.958 176.887 56.508C177.283 56.052 177.796 55.824 178.426 55.824C179.116 55.824 179.647 56.046 180.019 56.49C180.397 56.934 180.586 57.498 180.586 58.182C180.586 58.86 180.394 59.421 180.01 59.865C179.626 60.309 179.098 60.531 178.426 60.531ZM178.426 56.454C177.994 56.454 177.655 56.622 177.409 56.958C177.163 57.294 177.04 57.705 177.04 58.191C177.04 58.665 177.166 59.07 177.418 59.406C177.67 59.736 178.006 59.901 178.426 59.901C178.882 59.901 179.233 59.739 179.479 59.415C179.725 59.085 179.848 58.677 179.848 58.191C179.848 57.687 179.731 57.273 179.497 56.949C179.263 56.619 178.906 56.454 178.426 56.454ZM184.291 58.191C184.297 58.683 184.447 59.094 184.741 59.424C185.035 59.748 185.452 59.91 185.992 59.91C186.34 59.91 186.664 59.811 186.964 59.613V60.288C186.676 60.462 186.322 60.549 185.902 60.549C185.182 60.549 184.609 60.321 184.183 59.865C183.763 59.403 183.553 58.842 183.553 58.182C183.553 57.534 183.763 56.976 184.183 56.508C184.609 56.04 185.188 55.806 185.92 55.806C186.31 55.806 186.658 55.89 186.964 56.058V56.733C186.688 56.547 186.364 56.454 185.992 56.454C185.476 56.454 185.062 56.622 184.75 56.958C184.444 57.288 184.291 57.699 184.291 58.191ZM189.913 60.531C189.259 60.531 188.74 60.312 188.356 59.874C187.978 59.43 187.789 58.872 187.789 58.2C187.789 57.522 187.984 56.958 188.374 56.508C188.77 56.052 189.283 55.824 189.913 55.824C190.603 55.824 191.134 56.046 191.506 56.49C191.884 56.934 192.073 57.498 192.073 58.182C192.073 58.86 191.881 59.421 191.497 59.865C191.113 60.309 190.585 60.531 189.913 60.531ZM189.913 56.454C189.481 56.454 189.142 56.622 188.896 56.958C188.65 57.294 188.527 57.705 188.527 58.191C188.527 58.665 188.653 59.07 188.905 59.406C189.157 59.736 189.493 59.901 189.913 59.901C190.369 59.901 190.72 59.739 190.966 59.415C191.212 59.085 191.335 58.677 191.335 58.191C191.335 57.687 191.218 57.273 190.984 56.949C190.75 56.619 190.393 56.454 189.913 56.454ZM193.815 55.887V56.625C194.067 56.091 194.496 55.824 195.102 55.824C195.804 55.824 196.248 56.121 196.434 56.715C196.566 56.427 196.749 56.208 196.983 56.058C197.223 55.902 197.49 55.824 197.784 55.824C198.258 55.824 198.615 55.959 198.855 56.229C199.095 56.499 199.215 56.862 199.215 57.318V60.45H198.504V57.498C198.504 56.808 198.213 56.463 197.631 56.463C197.343 56.463 197.085 56.595 196.857 56.859C196.629 57.117 196.515 57.483 196.515 57.957V60.45H195.804V57.498C195.804 56.808 195.513 56.463 194.931 56.463C194.643 56.463 194.385 56.595 194.157 56.859C193.929 57.117 193.815 57.483 193.815 57.957V60.45H193.113V55.887H193.815ZM66.7549 68.876V68.696C66.7549 68.318 66.6529 68.018 66.4489 67.796C66.2449 67.568 65.9629 67.454 65.6029 67.454C65.2609 67.454 64.9699 67.577 64.7299 67.823C64.4899 68.069 64.3489 68.42 64.3069 68.876H66.7549ZM67.1779 70.55V71.216C66.8239 71.402 66.3919 71.495 65.8819 71.495C65.1919 71.495 64.6339 71.285 64.2079 70.865C63.7879 70.439 63.5779 69.878 63.5779 69.182C63.5779 68.456 63.7669 67.883 64.1449 67.463C64.5229 67.043 65.0089 66.833 65.6029 66.833C66.1729 66.833 66.6259 67.016 66.9619 67.382C67.2979 67.748 67.4659 68.267 67.4659 68.939C67.4659 69.131 67.4509 69.308 67.4209 69.47H64.3069C64.3609 69.92 64.5319 70.265 64.8199 70.505C65.1079 70.745 65.4859 70.865 65.9539 70.865C66.4639 70.865 66.8719 70.76 67.1779 70.55ZM68.5861 71.45V65.087H69.2971V71.45H68.5861ZM73.5577 68.876V68.696C73.5577 68.318 73.4557 68.018 73.2517 67.796C73.0477 67.568 72.7657 67.454 72.4057 67.454C72.0637 67.454 71.7727 67.577 71.5327 67.823C71.2927 68.069 71.1517 68.42 71.1097 68.876H73.5577ZM73.9807 70.55V71.216C73.6267 71.402 73.1947 71.495 72.6847 71.495C71.9947 71.495 71.4367 71.285 71.0107 70.865C70.5907 70.439 70.3807 69.878 70.3807 69.182C70.3807 68.456 70.5697 67.883 70.9477 67.463C71.3257 67.043 71.8117 66.833 72.4057 66.833C72.9757 66.833 73.4287 67.016 73.7647 67.382C74.1007 67.748 74.2687 68.267 74.2687 68.939C74.2687 69.131 74.2537 69.308 74.2237 69.47H71.1097C71.1637 69.92 71.3347 70.265 71.6227 70.505C71.9107 70.745 72.2887 70.865 72.7567 70.865C73.2667 70.865 73.6747 70.76 73.9807 70.55ZM77.8368 67.04V67.715C77.5608 67.547 77.1828 67.463 76.7028 67.463C76.4628 67.463 76.2708 67.52 76.1268 67.634C75.9888 67.742 75.9198 67.883 75.9198 68.057C75.9198 68.165 75.9408 68.261 75.9828 68.345C76.0248 68.423 76.1058 68.501 76.2258 68.579C76.3518 68.657 76.4418 68.711 76.4958 68.741C76.5558 68.765 76.6818 68.819 76.8738 68.903C77.2578 69.059 77.5578 69.236 77.7738 69.434C77.9898 69.632 78.0978 69.899 78.0978 70.235C78.0978 70.625 77.9598 70.934 77.6838 71.162C77.4138 71.39 77.0418 71.504 76.5678 71.504C76.0158 71.504 75.5688 71.411 75.2268 71.225V70.532C75.6288 70.772 76.0608 70.892 76.5228 70.892C76.7988 70.892 77.0088 70.838 77.1528 70.73C77.2968 70.622 77.3688 70.475 77.3688 70.289C77.3688 70.073 77.2878 69.905 77.1258 69.785C76.9698 69.665 76.7058 69.53 76.3338 69.38C75.9918 69.248 75.7158 69.083 75.5058 68.885C75.3018 68.687 75.1998 68.42 75.1998 68.084C75.1998 67.706 75.3408 67.406 75.6228 67.184C75.9108 66.956 76.2678 66.842 76.6938 66.842C77.1678 66.842 77.5488 66.908 77.8368 67.04ZM83.2661 70.874C83.6501 70.874 83.9651 70.724 84.2111 70.424C84.4571 70.118 84.5801 69.686 84.5801 69.128C84.5801 68.63 84.4601 68.228 84.2201 67.922C83.9801 67.616 83.6771 67.463 83.3111 67.463C82.9451 67.463 82.6271 67.598 82.3571 67.868C82.0931 68.132 81.9611 68.567 81.9611 69.173C81.9611 69.755 82.0961 70.184 82.3661 70.46C82.6361 70.736 82.9361 70.874 83.2661 70.874ZM81.9611 66.887V67.58C82.2791 67.07 82.7501 66.815 83.3741 66.815C83.9801 66.815 84.4541 67.037 84.7961 67.481C85.1441 67.919 85.3181 68.468 85.3181 69.128C85.3181 69.83 85.1351 70.406 84.7691 70.856C84.4091 71.3 83.9381 71.522 83.3561 71.522C82.7561 71.522 82.2911 71.267 81.9611 70.757V73.223H81.2591V66.887H81.9611ZM88.8225 69.344H88.0305C87.6465 69.344 87.3585 69.419 87.1665 69.569C86.9745 69.719 86.8785 69.908 86.8785 70.136C86.8785 70.364 86.9535 70.55 87.1035 70.694C87.2535 70.832 87.4725 70.901 87.7605 70.901C88.0845 70.901 88.3425 70.811 88.5345 70.631C88.7265 70.445 88.8225 70.211 88.8225 69.929V69.344ZM86.4645 67.841V67.13C86.8065 66.92 87.2565 66.815 87.8145 66.815C88.9605 66.815 89.5335 67.397 89.5335 68.561V71.45H88.8315V70.91C88.5975 71.3 88.1715 71.495 87.5535 71.495C87.1275 71.495 86.7825 71.369 86.5185 71.117C86.2605 70.865 86.1315 70.547 86.1315 70.163C86.1315 69.725 86.2965 69.386 86.6265 69.146C86.9625 68.9 87.4185 68.777 87.9945 68.777H88.8225V68.543C88.8225 68.183 88.7415 67.913 88.5795 67.733C88.4175 67.547 88.1445 67.454 87.7605 67.454C87.2745 67.454 86.8425 67.583 86.4645 67.841ZM91.4972 66.887V67.688C91.7372 67.124 92.1512 66.842 92.7392 66.842C92.8472 66.842 92.9312 66.848 92.9912 66.86V67.562C92.8652 67.52 92.7362 67.499 92.6042 67.499C92.2862 67.499 92.0222 67.646 91.8122 67.94C91.6022 68.234 91.4972 68.573 91.4972 68.957V71.45H90.7862L90.7952 66.887H91.4972ZM96.1877 69.344H95.3957C95.0117 69.344 94.7237 69.419 94.5317 69.569C94.3397 69.719 94.2437 69.908 94.2437 70.136C94.2437 70.364 94.3187 70.55 94.4687 70.694C94.6187 70.832 94.8377 70.901 95.1257 70.901C95.4497 70.901 95.7077 70.811 95.8997 70.631C96.0917 70.445 96.1877 70.211 96.1877 69.929V69.344ZM93.8297 67.841V67.13C94.1717 66.92 94.6217 66.815 95.1797 66.815C96.3257 66.815 96.8987 67.397 96.8987 68.561V71.45H96.1967V70.91C95.9627 71.3 95.5367 71.495 94.9187 71.495C94.4927 71.495 94.1477 71.369 93.8837 71.117C93.6257 70.865 93.4967 70.547 93.4967 70.163C93.4967 69.725 93.6617 69.386 93.9917 69.146C94.3277 68.9 94.7837 68.777 95.3597 68.777H96.1877V68.543C96.1877 68.183 96.1067 67.913 95.9447 67.733C95.7827 67.547 95.5097 67.454 95.1257 67.454C94.6397 67.454 94.2077 67.583 93.8297 67.841ZM102.842 67.04V67.715C102.566 67.547 102.188 67.463 101.708 67.463C101.468 67.463 101.276 67.52 101.132 67.634C100.994 67.742 100.925 67.883 100.925 68.057C100.925 68.165 100.946 68.261 100.988 68.345C101.03 68.423 101.111 68.501 101.231 68.579C101.357 68.657 101.447 68.711 101.501 68.741C101.561 68.765 101.687 68.819 101.879 68.903C102.263 69.059 102.563 69.236 102.779 69.434C102.995 69.632 103.103 69.899 103.103 70.235C103.103 70.625 102.965 70.934 102.689 71.162C102.419 71.39 102.047 71.504 101.573 71.504C101.021 71.504 100.574 71.411 100.232 71.225V70.532C100.634 70.772 101.066 70.892 101.528 70.892C101.804 70.892 102.014 70.838 102.158 70.73C102.302 70.622 102.374 70.475 102.374 70.289C102.374 70.073 102.293 69.905 102.131 69.785C101.975 69.665 101.711 69.53 101.339 69.38C100.997 69.248 100.721 69.083 100.511 68.885C100.307 68.687 100.205 68.42 100.205 68.084C100.205 67.706 100.346 67.406 100.628 67.184C100.916 66.956 101.273 66.842 101.699 66.842C102.173 66.842 102.554 66.908 102.842 67.04ZM105.921 71.531C105.267 71.531 104.748 71.312 104.364 70.874C103.986 70.43 103.797 69.872 103.797 69.2C103.797 68.522 103.992 67.958 104.382 67.508C104.778 67.052 105.291 66.824 105.921 66.824C106.611 66.824 107.142 67.046 107.514 67.49C107.892 67.934 108.081 68.498 108.081 69.182C108.081 69.86 107.889 70.421 107.505 70.865C107.121 71.309 106.593 71.531 105.921 71.531ZM105.921 67.454C105.489 67.454 105.15 67.622 104.904 67.958C104.658 68.294 104.535 68.705 104.535 69.191C104.535 69.665 104.661 70.07 104.913 70.406C105.165 70.736 105.501 70.901 105.921 70.901C106.377 70.901 106.728 70.739 106.974 70.415C107.22 70.085 107.343 69.677 107.343 69.191C107.343 68.687 107.226 68.273 106.992 67.949C106.758 67.619 106.401 67.454 105.921 67.454ZM109.156 71.45V65.087H109.867V71.45H109.156ZM114.056 66.887H114.767V71.45H114.056V70.658C113.816 71.222 113.339 71.504 112.625 71.504C112.175 71.504 111.818 71.372 111.554 71.108C111.296 70.838 111.167 70.478 111.167 70.028V66.887H111.878V69.848C111.878 70.178 111.962 70.43 112.13 70.604C112.298 70.778 112.526 70.865 112.814 70.865C113.192 70.865 113.492 70.733 113.714 70.469C113.942 70.205 114.056 69.848 114.056 69.398V66.887ZM116.549 69.191C116.555 69.683 116.705 70.094 116.999 70.424C117.293 70.748 117.71 70.91 118.25 70.91C118.598 70.91 118.922 70.811 119.222 70.613V71.288C118.934 71.462 118.58 71.549 118.16 71.549C117.44 71.549 116.867 71.321 116.441 70.865C116.021 70.403 115.811 69.842 115.811 69.182C115.811 68.534 116.021 67.976 116.441 67.508C116.867 67.04 117.446 66.806 118.178 66.806C118.568 66.806 118.916 66.89 119.222 67.058V67.733C118.946 67.547 118.622 67.454 118.25 67.454C117.734 67.454 117.32 67.622 117.008 67.958C116.702 68.288 116.549 68.699 116.549 69.191ZM120.354 71.45V66.887H121.065V71.45H120.354ZM120.372 65.789C120.288 65.699 120.246 65.588 120.246 65.456C120.246 65.324 120.288 65.213 120.372 65.123C120.462 65.033 120.573 64.988 120.705 64.988C120.837 64.988 120.948 65.033 121.038 65.123C121.128 65.213 121.173 65.324 121.173 65.456C121.173 65.588 121.128 65.699 121.038 65.789C120.948 65.873 120.837 65.915 120.705 65.915C120.573 65.915 120.462 65.873 120.372 65.789ZM124.272 71.531C123.618 71.531 123.099 71.312 122.715 70.874C122.337 70.43 122.148 69.872 122.148 69.2C122.148 68.522 122.343 67.958 122.733 67.508C123.129 67.052 123.642 66.824 124.272 66.824C124.962 66.824 125.493 67.046 125.865 67.49C126.243 67.934 126.432 68.498 126.432 69.182C126.432 69.86 126.24 70.421 125.856 70.865C125.472 71.309 124.944 71.531 124.272 71.531ZM124.272 67.454C123.84 67.454 123.501 67.622 123.255 67.958C123.009 68.294 122.886 68.705 122.886 69.191C122.886 69.665 123.012 70.07 123.264 70.406C123.516 70.736 123.852 70.901 124.272 70.901C124.728 70.901 125.079 70.739 125.325 70.415C125.571 70.085 125.694 69.677 125.694 69.191C125.694 68.687 125.577 68.273 125.343 67.949C125.109 67.619 124.752 67.454 124.272 67.454ZM128.174 66.887V67.679C128.444 67.109 128.924 66.824 129.614 66.824C130.058 66.824 130.412 66.959 130.676 67.229C130.94 67.499 131.072 67.859 131.072 68.309V71.45H130.361V68.498C130.361 68.162 130.274 67.907 130.1 67.733C129.932 67.553 129.71 67.463 129.434 67.463C129.092 67.463 128.795 67.595 128.543 67.859C128.297 68.123 128.174 68.489 128.174 68.957V71.45H127.472V66.887H128.174ZM134.789 69.344H133.997C133.613 69.344 133.325 69.419 133.133 69.569C132.941 69.719 132.845 69.908 132.845 70.136C132.845 70.364 132.92 70.55 133.07 70.694C133.22 70.832 133.439 70.901 133.727 70.901C134.051 70.901 134.309 70.811 134.501 70.631C134.693 70.445 134.789 70.211 134.789 69.929V69.344ZM132.431 67.841V67.13C132.773 66.92 133.223 66.815 133.781 66.815C134.927 66.815 135.5 67.397 135.5 68.561V71.45H134.798V70.91C134.564 71.3 134.138 71.495 133.52 71.495C133.094 71.495 132.749 71.369 132.485 71.117C132.227 70.865 132.098 70.547 132.098 70.163C132.098 69.725 132.263 69.386 132.593 69.146C132.929 68.9 133.385 68.777 133.961 68.777H134.789V68.543C134.789 68.183 134.708 67.913 134.546 67.733C134.384 67.547 134.111 67.454 133.727 67.454C133.241 67.454 132.809 67.583 132.431 67.841ZM137.464 66.887V67.688C137.704 67.124 138.118 66.842 138.706 66.842C138.814 66.842 138.898 66.848 138.958 66.86V67.562C138.832 67.52 138.703 67.499 138.571 67.499C138.253 67.499 137.989 67.646 137.779 67.94C137.569 68.234 137.464 68.573 137.464 68.957V71.45H136.753L136.762 66.887H137.464ZM143.749 71.531C143.095 71.531 142.576 71.312 142.192 70.874C141.814 70.43 141.625 69.872 141.625 69.2C141.625 68.522 141.82 67.958 142.21 67.508C142.606 67.052 143.119 66.824 143.749 66.824C144.439 66.824 144.97 67.046 145.342 67.49C145.72 67.934 145.909 68.498 145.909 69.182C145.909 69.86 145.717 70.421 145.333 70.865C144.949 71.309 144.421 71.531 143.749 71.531ZM143.749 67.454C143.317 67.454 142.978 67.622 142.732 67.958C142.486 68.294 142.363 68.705 142.363 69.191C142.363 69.665 142.489 70.07 142.741 70.406C142.993 70.736 143.329 70.901 143.749 70.901C144.205 70.901 144.556 70.739 144.802 70.415C145.048 70.085 145.171 69.677 145.171 69.191C145.171 68.687 145.054 68.273 144.82 67.949C144.586 67.619 144.229 67.454 143.749 67.454ZM151.153 70.874C151.537 70.874 151.852 70.724 152.098 70.424C152.344 70.118 152.467 69.686 152.467 69.128C152.467 68.63 152.347 68.228 152.107 67.922C151.867 67.616 151.564 67.463 151.198 67.463C150.832 67.463 150.514 67.598 150.244 67.868C149.98 68.132 149.848 68.567 149.848 69.173C149.848 69.755 149.983 70.184 150.253 70.46C150.523 70.736 150.823 70.874 151.153 70.874ZM149.848 66.887V67.58C150.166 67.07 150.637 66.815 151.261 66.815C151.867 66.815 152.341 67.037 152.683 67.481C153.031 67.919 153.205 68.468 153.205 69.128C153.205 69.83 153.022 70.406 152.656 70.856C152.296 71.3 151.825 71.522 151.243 71.522C150.643 71.522 150.178 71.267 149.848 70.757V73.223H149.146V66.887H149.848ZM154.954 66.887V67.688C155.194 67.124 155.608 66.842 156.196 66.842C156.304 66.842 156.388 66.848 156.448 66.86V67.562C156.322 67.52 156.193 67.499 156.061 67.499C155.743 67.499 155.479 67.646 155.269 67.94C155.059 68.234 154.954 68.573 154.954 68.957V71.45H154.243L154.252 66.887H154.954ZM159.042 71.531C158.388 71.531 157.869 71.312 157.485 70.874C157.107 70.43 156.918 69.872 156.918 69.2C156.918 68.522 157.113 67.958 157.503 67.508C157.899 67.052 158.412 66.824 159.042 66.824C159.732 66.824 160.263 67.046 160.635 67.49C161.013 67.934 161.202 68.498 161.202 69.182C161.202 69.86 161.01 70.421 160.626 70.865C160.242 71.309 159.714 71.531 159.042 71.531ZM159.042 67.454C158.61 67.454 158.271 67.622 158.025 67.958C157.779 68.294 157.656 68.705 157.656 69.191C157.656 69.665 157.782 70.07 158.034 70.406C158.286 70.736 158.622 70.901 159.042 70.901C159.498 70.901 159.849 70.739 160.095 70.415C160.341 70.085 160.464 69.677 160.464 69.191C160.464 68.687 160.347 68.273 160.113 67.949C159.879 67.619 159.522 67.454 159.042 67.454ZM164.32 70.874C164.686 70.874 164.989 70.721 165.229 70.415C165.469 70.109 165.589 69.71 165.589 69.218C165.589 68.654 165.463 68.222 165.211 67.922C164.965 67.616 164.653 67.463 164.275 67.463C163.951 67.463 163.654 67.598 163.384 67.868C163.114 68.138 162.979 68.561 162.979 69.137C162.979 69.743 163.108 70.184 163.366 70.46C163.63 70.736 163.948 70.874 164.32 70.874ZM162.979 65.087V67.571C163.309 67.067 163.771 66.815 164.365 66.815C164.941 66.815 165.412 67.037 165.778 67.481C166.144 67.919 166.327 68.495 166.327 69.209C166.327 69.851 166.153 70.397 165.805 70.847C165.463 71.297 164.989 71.522 164.383 71.522C163.771 71.522 163.303 71.273 162.979 70.775V71.45H162.268V65.087H162.979ZM167.41 71.45V65.087H168.121V71.45H167.41ZM172.382 68.876V68.696C172.382 68.318 172.28 68.018 172.076 67.796C171.872 67.568 171.59 67.454 171.23 67.454C170.888 67.454 170.597 67.577 170.357 67.823C170.117 68.069 169.976 68.42 169.934 68.876H172.382ZM172.805 70.55V71.216C172.451 71.402 172.019 71.495 171.509 71.495C170.819 71.495 170.261 71.285 169.835 70.865C169.415 70.439 169.205 69.878 169.205 69.182C169.205 68.456 169.394 67.883 169.772 67.463C170.15 67.043 170.636 66.833 171.23 66.833C171.8 66.833 172.253 67.016 172.589 67.382C172.925 67.748 173.093 68.267 173.093 68.939C173.093 69.131 173.078 69.308 173.048 69.47H169.934C169.988 69.92 170.159 70.265 170.447 70.505C170.735 70.745 171.113 70.865 171.581 70.865C172.091 70.865 172.499 70.76 172.805 70.55ZM174.879 66.887V67.625C175.131 67.091 175.56 66.824 176.166 66.824C176.868 66.824 177.312 67.121 177.498 67.715C177.63 67.427 177.813 67.208 178.047 67.058C178.287 66.902 178.554 66.824 178.848 66.824C179.322 66.824 179.679 66.959 179.919 67.229C180.159 67.499 180.279 67.862 180.279 68.318V71.45H179.568V68.498C179.568 67.808 179.277 67.463 178.695 67.463C178.407 67.463 178.149 67.595 177.921 67.859C177.693 68.117 177.579 68.483 177.579 68.957V71.45H176.868V68.498C176.868 67.808 176.577 67.463 175.995 67.463C175.707 67.463 175.449 67.595 175.221 67.859C174.993 68.117 174.879 68.483 174.879 68.957V71.45H174.177V66.887H174.879ZM183.999 69.344H183.207C182.823 69.344 182.535 69.419 182.343 69.569C182.151 69.719 182.055 69.908 182.055 70.136C182.055 70.364 182.13 70.55 182.28 70.694C182.43 70.832 182.649 70.901 182.937 70.901C183.261 70.901 183.519 70.811 183.711 70.631C183.903 70.445 183.999 70.211 183.999 69.929V69.344ZM181.641 67.841V67.13C181.983 66.92 182.433 66.815 182.991 66.815C184.137 66.815 184.71 67.397 184.71 68.561V71.45H184.008V70.91C183.774 71.3 183.348 71.495 182.73 71.495C182.304 71.495 181.959 71.369 181.695 71.117C181.437 70.865 181.308 70.547 181.308 70.163C181.308 69.725 181.473 69.386 181.803 69.146C182.139 68.9 182.595 68.777 183.171 68.777H183.999V68.543C183.999 68.183 183.918 67.913 183.756 67.733C183.594 67.547 183.321 67.454 182.937 67.454C182.451 67.454 182.019 67.583 181.641 67.841ZM185.684 71.369C185.582 71.267 185.531 71.141 185.531 70.991C185.531 70.841 185.582 70.715 185.684 70.613C185.786 70.511 185.912 70.46 186.062 70.46C186.212 70.46 186.338 70.511 186.44 70.613C186.542 70.715 186.593 70.841 186.593 70.991C186.593 71.141 186.542 71.267 186.44 71.369C186.338 71.471 186.212 71.522 186.062 71.522C185.912 71.522 185.786 71.471 185.684 71.369Z" fill="white"/>
<path d="M12.5 27C5.5971 27 0 32.5971 0 39.5C0 46.4029 5.5971 52 12.5 52C19.4029 52 25 46.4029 25 39.5C25 32.5971 19.4029 27 12.5 27ZM12.5 49.8795C6.76897 49.8795 2.12054 45.231 2.12054 39.5C2.12054 33.769 6.76897 29.1205 12.5 29.1205C18.231 29.1205 22.8795 33.769 22.8795 39.5C22.8795 45.231 18.231 49.8795 12.5 49.8795Z" fill="#044177"/>
</svg>
