<svg width="30" height="30" viewBox="0 0 30 30" fill="none" xmlns="http://www.w3.org/2000/svg">
<path d="M22.5 22.5V24.375H24.8063C24.2822 24.9663 23.6383 25.4392 22.9174 25.7625C22.1965 26.0858 21.4151 26.252 20.625 26.25C19.1337 26.2483 17.704 25.6551 16.6495 24.6006C15.5949 23.546 15.0018 22.1163 15 20.625H13.125C13.122 22.15 13.5848 23.6396 14.4516 24.8944C15.3184 26.1491 16.5478 27.1092 17.9753 27.646C19.4027 28.1828 20.9601 28.2708 22.4389 27.8981C23.9177 27.5255 25.2474 26.7101 26.25 25.5609V28.125H28.125V22.5H22.5ZM20.625 13.125C19.5594 13.1305 18.5072 13.3619 17.5376 13.8038C16.568 14.2458 15.7031 14.8884 15 15.6891V13.125H13.125V18.75H18.75V16.875H16.4438C16.9678 16.2837 17.6117 15.8108 18.3326 15.4875C19.0535 15.1642 19.8349 14.998 20.625 15C22.1163 15.0017 23.5461 15.5949 24.6006 16.6494C25.6551 17.704 26.2483 19.1337 26.25 20.625H28.125C28.1225 18.6366 27.3316 16.7304 25.9256 15.3244C24.5196 13.9185 22.6134 13.1275 20.625 13.125V13.125Z" fill="#272727"/>
<path d="M11.25 26.25H5.625V22.5H7.5V20.625H5.625V15.9375H7.5V14.0625H5.625V9.375H7.5V7.5H5.625V3.75H22.5V11.25H24.375V3.75C24.375 3.25272 24.1775 2.77581 23.8258 2.42417C23.4742 2.07254 22.9973 1.875 22.5 1.875H5.625C5.12772 1.875 4.65081 2.07254 4.29917 2.42417C3.94754 2.77581 3.75 3.25272 3.75 3.75V7.5H1.875V9.375H3.75V14.0625H1.875V15.9375H3.75V20.625H1.875V22.5H3.75V26.25C3.75 26.7473 3.94754 27.2242 4.29917 27.5758C4.65081 27.9275 5.12772 28.125 5.625 28.125H11.25V26.25Z" fill="#272727"/>
</svg>
