<svg width="170" height="111" viewBox="0 0 170 111" fill="none" xmlns="http://www.w3.org/2000/svg">
<path d="M30 34H22.8047L9.84375 11.875V34H3.11719V0.390625H10.3125L23.2734 22.5391V0.390625H30V34Z" fill="white"/>
<path d="M64.0969 34H41.0578V0.390625H64.0969V7.11719H47.7844V13.8438H58.8234V20.5703H47.7844V27.2734H64.0969V34Z" fill="white"/>
<path d="M99.7172 34H91.5609L85.0922 23.1484L78.6 34H70.4906L80.8031 17.1953L70.4906 0.390625H78.6L85.0922 11.2422L91.5609 0.390625H99.7172L89.4047 17.1953L99.7172 34Z" fill="white"/>
<path d="M134.166 20.5703C134.166 22.4297 133.814 24.1797 133.111 25.8203C132.408 27.4453 131.447 28.8672 130.228 30.0859C129.009 31.2891 127.58 32.2422 125.939 32.9453C124.314 33.6484 122.572 34 120.713 34C118.853 34 117.103 33.6484 115.463 32.9453C113.838 32.2422 112.416 31.2891 111.197 30.0859C109.994 28.8672 109.041 27.4453 108.338 25.8203C107.634 24.1797 107.283 22.4297 107.283 20.5703V0.390625H113.986V20.5703C113.986 21.4922 114.158 22.3594 114.502 23.1719C114.861 23.9844 115.345 24.6953 115.955 25.3047C116.564 25.9141 117.275 26.3984 118.088 26.7578C118.916 27.1016 119.791 27.2734 120.713 27.2734C121.634 27.2734 122.502 27.1016 123.314 26.7578C124.142 26.3984 124.861 25.9141 125.47 25.3047C126.08 24.6953 126.556 23.9844 126.9 23.1719C127.259 22.3594 127.439 21.4922 127.439 20.5703V0.390625H134.166V20.5703Z" fill="white"/>
<path d="M142.833 10.4688C142.833 9.07812 143.098 7.77344 143.63 6.55469C144.161 5.33594 144.88 4.27344 145.786 3.36719C146.708 2.44531 147.778 1.71875 148.997 1.1875C150.216 0.65625 151.52 0.390625 152.911 0.390625H168.333V7.11719H152.911C152.442 7.11719 152.005 7.20312 151.598 7.375C151.192 7.54688 150.833 7.78906 150.52 8.10156C150.223 8.39844 149.989 8.75 149.817 9.15625C149.645 9.5625 149.559 10 149.559 10.4688C149.559 10.9375 149.645 11.3828 149.817 11.8047C149.989 12.2109 150.223 12.5703 150.52 12.8828C150.833 13.1797 151.192 13.4141 151.598 13.5859C152.005 13.7578 152.442 13.8438 152.911 13.8438H159.637C161.028 13.8438 162.333 14.1094 163.552 14.6406C164.786 15.1562 165.856 15.875 166.762 16.7969C167.684 17.7031 168.403 18.7734 168.919 20.0078C169.45 21.2266 169.716 22.5312 169.716 23.9219C169.716 25.3125 169.45 26.6172 168.919 27.8359C168.403 29.0547 167.684 30.125 166.762 31.0469C165.856 31.9531 164.786 32.6719 163.552 33.2031C162.333 33.7344 161.028 34 159.637 34H144.708V27.2734H159.637C160.106 27.2734 160.544 27.1875 160.95 27.0156C161.356 26.8438 161.708 26.6094 162.005 26.3125C162.317 26 162.559 25.6406 162.731 25.2344C162.903 24.8281 162.989 24.3906 162.989 23.9219C162.989 23.4531 162.903 23.0156 162.731 22.6094C162.559 22.2031 162.317 21.8516 162.005 21.5547C161.708 21.2422 161.356 21 160.95 20.8281C160.544 20.6562 160.106 20.5703 159.637 20.5703H152.911C151.52 20.5703 150.216 20.3047 148.997 19.7734C147.778 19.2422 146.708 18.5234 145.786 17.6172C144.88 16.6953 144.161 15.625 143.63 14.4062C143.098 13.1719 142.833 11.8594 142.833 10.4688Z" fill="white"/>
<path d="M32.2998 109H19.7314V58.5947H0.791016V45.9824H51.1963V58.5947H32.2998V109Z" fill="white"/>
<path d="M106.172 102.54C103.242 105.06 99.9609 106.993 96.3281 108.341C92.6953 109.688 88.9307 110.362 85.0342 110.362C82.0459 110.362 79.1602 109.967 76.377 109.176C73.623 108.414 71.0303 107.33 68.5986 105.924C66.1963 104.488 63.999 102.774 62.0068 100.782C60.0146 98.79 58.3008 96.5928 56.8652 94.1904C55.459 91.7588 54.3604 89.166 53.5693 86.4121C52.8076 83.6289 52.4268 80.7432 52.4268 77.7549C52.4268 74.7666 52.8076 71.8809 53.5693 69.0977C54.3604 66.3145 55.459 63.7217 56.8652 61.3193C58.3008 58.8877 60.0146 56.6758 62.0068 54.6836C63.999 52.6914 66.1963 50.9922 68.5986 49.5859C71.0303 48.1504 73.623 47.0518 76.377 46.29C79.1602 45.499 82.0459 45.1035 85.0342 45.1035C88.9307 45.1035 92.6953 45.7773 96.3281 47.125C99.9609 48.4434 103.242 50.377 106.172 52.9258L99.4922 63.9121C97.6465 61.9199 95.4639 60.3965 92.9443 59.3418C90.4248 58.2578 87.7881 57.7158 85.0342 57.7158C82.251 57.7158 79.6436 58.2432 77.2119 59.2979C74.7803 60.3525 72.6562 61.7881 70.8398 63.6045C69.0234 65.3916 67.5879 67.5156 66.5332 69.9766C65.4785 72.4082 64.9512 75.001 64.9512 77.7549C64.9512 80.5088 65.4785 83.1016 66.5332 85.5332C67.5879 87.9355 69.0234 90.0449 70.8398 91.8613C72.6562 93.6777 74.7803 95.1133 77.2119 96.168C79.6436 97.2227 82.251 97.75 85.0342 97.75C87.7881 97.75 90.4248 97.2227 92.9443 96.168C95.4639 95.084 97.6465 93.5459 99.4922 91.5537L106.172 102.54Z" fill="white"/>
<path d="M161.982 102.54C159.053 105.06 155.771 106.993 152.139 108.341C148.506 109.688 144.741 110.362 140.845 110.362C137.856 110.362 134.971 109.967 132.188 109.176C129.434 108.414 126.841 107.33 124.409 105.924C122.007 104.488 119.81 102.774 117.817 100.782C115.825 98.79 114.111 96.5928 112.676 94.1904C111.27 91.7588 110.171 89.166 109.38 86.4121C108.618 83.6289 108.237 80.7432 108.237 77.7549C108.237 74.7666 108.618 71.8809 109.38 69.0977C110.171 66.3145 111.27 63.7217 112.676 61.3193C114.111 58.8877 115.825 56.6758 117.817 54.6836C119.81 52.6914 122.007 50.9922 124.409 49.5859C126.841 48.1504 129.434 47.0518 132.188 46.29C134.971 45.499 137.856 45.1035 140.845 45.1035C144.741 45.1035 148.506 45.7773 152.139 47.125C155.771 48.4434 159.053 50.377 161.982 52.9258L155.303 63.9121C153.457 61.9199 151.274 60.3965 148.755 59.3418C146.235 58.2578 143.599 57.7158 140.845 57.7158C138.062 57.7158 135.454 58.2432 133.022 59.2979C130.591 60.3525 128.467 61.7881 126.65 63.6045C124.834 65.3916 123.398 67.5156 122.344 69.9766C121.289 72.4082 120.762 75.001 120.762 77.7549C120.762 80.5088 121.289 83.1016 122.344 85.5332C123.398 87.9355 124.834 90.0449 126.65 91.8613C128.467 93.6777 130.591 95.1133 133.022 96.168C135.454 97.2227 138.062 97.75 140.845 97.75C143.599 97.75 146.235 97.2227 148.755 96.168C151.274 95.084 153.457 93.5459 155.303 91.5537L161.982 102.54Z" fill="white"/>
</svg>
