<svg width="20" height="17" viewBox="0 0 20 17" fill="none" xmlns="http://www.w3.org/2000/svg">
<path d="M18.7999 12.5833L12.4083 1.98333C12.1498 1.57901 11.7937 1.24626 11.3728 1.01578C10.9519 0.785288 10.4798 0.664474 9.99992 0.664474C9.52005 0.664474 9.04791 0.785288 8.62702 1.01578C8.20613 1.24626 7.85004 1.57901 7.59159 1.98333L1.19992 12.5833C0.974132 12.9597 0.851411 13.3889 0.844097 13.8277C0.836783 14.2666 0.945133 14.6996 1.15825 15.0833C1.40465 15.5152 1.7613 15.8739 2.19176 16.1228C2.62221 16.3717 3.11103 16.5019 3.60825 16.5H16.3916C16.8856 16.5053 17.3722 16.3802 17.8023 16.1373C18.2325 15.8944 18.591 15.5423 18.8416 15.1167C19.061 14.729 19.1728 14.2897 19.1655 13.8443C19.1581 13.3989 19.0319 12.9636 18.7999 12.5833ZM17.3833 14.2917C17.2831 14.4638 17.1378 14.6053 16.963 14.7008C16.7882 14.7963 16.5906 14.8421 16.3916 14.8333H3.60825C3.40927 14.8421 3.21168 14.7963 3.03689 14.7008C2.86209 14.6053 2.71674 14.4638 2.61659 14.2917C2.54345 14.165 2.50494 14.0213 2.50494 13.875C2.50494 13.7287 2.54345 13.585 2.61659 13.4583L9.01659 2.84999C9.13159 2.69808 9.28023 2.57488 9.45084 2.49006C9.62145 2.40523 9.80939 2.36108 9.99992 2.36108C10.1905 2.36108 10.3784 2.40523 10.549 2.49006C10.7196 2.57488 10.8683 2.69808 10.9833 2.84999L17.3749 13.45C17.4509 13.5769 17.4917 13.7218 17.4932 13.8697C17.4946 14.0176 17.4567 14.1633 17.3833 14.2917Z" fill="#FFA000"/>
<path d="M9.99984 13.1667C10.4601 13.1667 10.8332 12.7936 10.8332 12.3333C10.8332 11.8731 10.4601 11.5 9.99984 11.5C9.5396 11.5 9.1665 11.8731 9.1665 12.3333C9.1665 12.7936 9.5396 13.1667 9.99984 13.1667Z" fill="#FFA000"/>
<path d="M9.99984 5.66666C9.77882 5.66666 9.56686 5.75445 9.41058 5.91073C9.2543 6.06701 9.1665 6.27898 9.1665 6.49999V9.83332C9.1665 10.0543 9.2543 10.2663 9.41058 10.4226C9.56686 10.5789 9.77882 10.6667 9.99984 10.6667C10.2209 10.6667 10.4328 10.5789 10.5891 10.4226C10.7454 10.2663 10.8332 10.0543 10.8332 9.83332V6.49999C10.8332 6.27898 10.7454 6.06701 10.5891 5.91073C10.4328 5.75445 10.2209 5.66666 9.99984 5.66666Z" fill="#FFA000"/>
</svg>
