<svg width="19" height="19" viewBox="0 0 19 19" fill="none" xmlns="http://www.w3.org/2000/svg">
<path d="M17.7656 2.13281H13.9922V0.695312C13.9922 0.596484 13.9113 0.515625 13.8125 0.515625H12.5547C12.4559 0.515625 12.375 0.596484 12.375 0.695312V2.13281H6.625V0.695312C6.625 0.596484 6.54414 0.515625 6.44531 0.515625H5.1875C5.08867 0.515625 5.00781 0.596484 5.00781 0.695312V2.13281H1.23438C0.836816 2.13281 0.515625 2.454 0.515625 2.85156V17.7656C0.515625 18.1632 0.836816 18.4844 1.23438 18.4844H17.7656C18.1632 18.4844 18.4844 18.1632 18.4844 17.7656V2.85156C18.4844 2.454 18.1632 2.13281 17.7656 2.13281ZM16.8672 16.8672H2.13281V8.33203H16.8672V16.8672ZM2.13281 6.80469V3.75H5.00781V4.82812C5.00781 4.92695 5.08867 5.00781 5.1875 5.00781H6.44531C6.54414 5.00781 6.625 4.92695 6.625 4.82812V3.75H12.375V4.82812C12.375 4.92695 12.4559 5.00781 12.5547 5.00781H13.8125C13.9113 5.00781 13.9922 4.92695 13.9922 4.82812V3.75H16.8672V6.80469H2.13281Z" fill="#05204A"/>
</svg>
