<svg width="23" height="23" viewBox="0 0 23 23" fill="none" xmlns="http://www.w3.org/2000/svg">
<path d="M19.7656 4.13281H15.9922V2.69531C15.9922 2.59648 15.9113 2.51562 15.8125 2.51562H14.5547C14.4559 2.51562 14.375 2.59648 14.375 2.69531V4.13281H8.625V2.69531C8.625 2.59648 8.54414 2.51562 8.44531 2.51562H7.1875C7.08867 2.51562 7.00781 2.59648 7.00781 2.69531V4.13281H3.23438C2.83682 4.13281 2.51562 4.454 2.51562 4.85156V19.7656C2.51562 20.1632 2.83682 20.4844 3.23438 20.4844H19.7656C20.1632 20.4844 20.4844 20.1632 20.4844 19.7656V4.85156C20.4844 4.454 20.1632 4.13281 19.7656 4.13281ZM18.8672 18.8672H4.13281V10.332H18.8672V18.8672ZM4.13281 8.80469V5.75H7.00781V6.82812C7.00781 6.92695 7.08867 7.00781 7.1875 7.00781H8.44531C8.54414 7.00781 8.625 6.92695 8.625 6.82812V5.75H14.375V6.82812C14.375 6.92695 14.4559 7.00781 14.5547 7.00781H15.8125C15.9113 7.00781 15.9922 6.92695 15.9922 6.82812V5.75H18.8672V8.80469H4.13281Z" fill="#05204A"/>
</svg>
