<svg width="20" height="20" viewBox="0 0 20 20" fill="none" xmlns="http://www.w3.org/2000/svg">
<path d="M9.16667 8.33334H7.5V10.8333H5V12.5H7.5V15H9.16667V12.5H11.6667V10.8333H9.16667V8.33334Z" fill="#044177"/>
<path d="M3.33341 18.3333H13.3334C14.2526 18.3333 15.0001 17.5858 15.0001 16.6667V6.66667C15.0001 5.7475 14.2526 5 13.3334 5H3.33341C2.41425 5 1.66675 5.7475 1.66675 6.66667V16.6667C1.66675 17.5858 2.41425 18.3333 3.33341 18.3333ZM3.33341 6.66667H13.3334L13.3351 16.6667H3.33341V6.66667Z" fill="#044177"/>
<path d="M16.6667 1.66666H6.66675V3.33332H16.6667V13.3333H18.3334V3.33332C18.3334 2.41416 17.5859 1.66666 16.6667 1.66666Z" fill="#044177"/>
</svg>
