<svg width="39" height="36" viewBox="0 0 39 36" fill="none" xmlns="http://www.w3.org/2000/svg">
<path d="M12.0557 18C12.0557 18.5967 11.8054 19.169 11.36 19.591C10.9146 20.0129 10.3106 20.25 9.68066 20.25C9.05077 20.25 8.44668 20.0129 8.00129 19.591C7.55589 19.169 7.30566 18.5967 7.30566 18C7.30566 17.4033 7.55589 16.831 8.00129 16.409C8.44668 15.9871 9.05077 15.75 9.68066 15.75C10.3106 15.75 10.9146 15.9871 11.36 16.409C11.8054 16.831 12.0557 17.4033 12.0557 18ZM21.5557 18C21.5557 18.5967 21.3054 19.169 20.86 19.591C20.4146 20.0129 19.8106 20.25 19.1807 20.25C18.5508 20.25 17.9467 20.0129 17.5013 19.591C17.0559 19.169 16.8057 18.5967 16.8057 18C16.8057 17.4033 17.0559 16.831 17.5013 16.409C17.9467 15.9871 18.5508 15.75 19.1807 15.75C19.8106 15.75 20.4146 15.9871 20.86 16.409C21.3054 16.831 21.5557 17.4033 21.5557 18ZM28.6807 20.25C29.3106 20.25 29.9146 20.0129 30.36 19.591C30.8054 19.169 31.0557 18.5967 31.0557 18C31.0557 17.4033 30.8054 16.831 30.36 16.409C29.9146 15.9871 29.3106 15.75 28.6807 15.75C28.0508 15.75 27.4467 15.9871 27.0013 16.409C26.5559 16.831 26.3057 17.4033 26.3057 18C26.3057 18.5967 26.5559 19.169 27.0013 19.591C27.4467 20.0129 28.0508 20.25 28.6807 20.25Z" fill="#05204A"/>
</svg>
