<svg width="65" height="64" viewBox="0 0 65 64" fill="none" xmlns="http://www.w3.org/2000/svg">
<path d="M48.3815 4.14404L59.5505 15.744V59.856H17.8271V60H59.6931V15.89L48.3815 4.14404Z" fill="#909090"/>
<path d="M48.2429 4H17.6846V59.856H59.5505V15.746L48.2409 4" fill="#F4F4F4"/>
<path d="M17.3774 7H4.55029V20.654H44.8986V7H17.3774Z" fill="#7A7B7C"/>
<path d="M45.1134 20.4221H4.81128V6.75806H45.1134V20.4221Z" fill="#DD2025"/>
<path d="M18.1744 9.06799H15.5508V18.668H17.6144V15.43L18.07 15.456C18.5128 15.4484 18.9514 15.3694 19.3688 15.222C19.7348 15.0966 20.0714 14.8986 20.3585 14.64C20.6505 14.3936 20.8808 14.0827 21.0309 13.732C21.2323 13.149 21.3042 12.5294 21.2417 11.916C21.2292 11.4778 21.1521 11.0438 21.0129 10.628C20.8861 10.3278 20.6981 10.0572 20.4607 9.83338C20.2232 9.60956 19.9416 9.43745 19.6338 9.32799C19.3676 9.23199 19.0926 9.16232 18.8128 9.11999C18.6008 9.08741 18.3868 9.07004 18.1724 9.06799H18.1744ZM17.793 13.656H17.6144V10.696H18.0018C18.1728 10.6837 18.3444 10.7099 18.5038 10.7725C18.6633 10.8352 18.8066 10.9327 18.9232 11.058C19.1647 11.38 19.2937 11.772 19.2905 12.174C19.2905 12.666 19.2905 13.112 18.8449 13.426C18.5238 13.6019 18.1584 13.6811 17.793 13.654" fill="#464648"/>
<path d="M25.1621 9.042C24.9392 9.042 24.7224 9.058 24.5699 9.064L24.0921 9.076H22.5264V18.676H24.3691C25.0734 18.6952 25.7745 18.5763 26.4327 18.326C26.9625 18.1166 27.4316 17.7792 27.7977 17.344C28.1538 16.9049 28.4093 16.3937 28.5465 15.846C28.7042 15.2257 28.7811 14.5878 28.7753 13.948C28.8143 13.1923 28.7556 12.4348 28.6007 11.694C28.4537 11.1487 28.1785 10.6462 27.7977 10.228C27.499 9.89033 27.1334 9.61794 26.7238 9.428C26.3721 9.26584 26.0021 9.14631 25.6217 9.072C25.4705 9.04711 25.3173 9.03573 25.1641 9.038L25.1621 9.042ZM24.7987 16.912H24.598V10.784H24.6241C25.0379 10.7366 25.4566 10.811 25.8285 10.998C26.1008 11.2147 26.3227 11.4876 26.4789 11.798C26.6474 12.1247 26.7446 12.4832 26.7639 12.85C26.782 13.29 26.7639 13.65 26.7639 13.948C26.7721 14.2913 26.75 14.6346 26.6977 14.974C26.6358 15.3225 26.5215 15.6596 26.3585 15.974C26.174 16.2663 25.9247 16.5126 25.6298 16.694C25.3821 16.8536 25.0888 16.9281 24.7947 16.906" fill="#464648"/>
<path d="M34.9922 9.07605H30.1143V18.6761H32.1778V14.868H34.7874V13.084H32.1778V10.86H34.9882V9.07605" fill="#464648"/>
<path d="M43.7265 40.51C43.7265 40.51 50.126 39.354 50.126 41.532C50.126 43.71 46.1614 42.824 43.7265 40.51ZM38.9951 40.676C37.9783 40.8999 36.9874 41.2276 36.0382 41.654L36.8411 39.854C37.6441 38.054 38.4772 35.6 38.4772 35.6C39.4353 37.2067 40.5501 38.7153 41.8054 40.104C40.8587 40.2447 39.9206 40.4369 38.9951 40.68V40.676ZM36.4617 27.676C36.4617 25.778 37.078 25.26 37.5578 25.26C38.0375 25.26 38.5775 25.49 38.5956 27.138C38.4393 28.7951 38.091 30.4287 37.5578 32.006C36.8273 30.6817 36.4493 29.1931 36.4597 27.682L36.4617 27.676ZM27.1294 48.708C25.1662 47.538 31.2466 43.936 32.3486 43.82C32.3426 43.822 29.185 49.932 27.1294 48.708ZM51.9949 41.79C51.9748 41.59 51.7941 39.376 47.8396 39.47C46.1913 39.4436 44.5437 39.5593 42.9155 39.816C41.3382 38.2328 39.9799 36.4471 38.8766 34.506C39.5717 32.5049 39.9924 30.4194 40.1272 28.306C40.069 25.906 39.4929 24.53 37.6461 24.55C35.7993 24.57 35.5303 26.18 35.7732 28.576C36.0111 30.1861 36.4599 31.7582 37.1081 33.252C37.1081 33.252 36.255 35.898 35.1268 38.53C33.9987 41.162 33.2279 42.542 33.2279 42.542C31.2661 43.1783 29.4193 44.1236 27.7577 45.342C26.1037 46.876 25.4312 48.054 26.3024 49.232C27.0532 50.248 29.6808 50.478 32.0295 47.412C33.2774 45.8284 34.4174 44.1634 35.442 42.428C35.442 42.428 39.0232 41.45 40.1373 41.182C41.2514 40.914 42.5983 40.702 42.5983 40.702C42.5983 40.702 45.8683 43.98 49.0219 43.864C52.1755 43.748 52.023 41.986 52.0029 41.794" fill="#DD2025"/>
<path d="M48.0884 4.15405V15.9001H59.396L48.0884 4.15405Z" fill="#909090"/>
<path d="M48.2429 4V15.746H59.5505L48.2429 4Z" fill="#F4F4F4"/>
<path d="M18.0199 8.91394H15.3962V18.5139H17.4679V15.2779L17.9255 15.3039C18.3683 15.2964 18.8069 15.2173 19.2243 15.0699C19.5902 14.9445 19.9269 14.7465 20.214 14.4879C20.5038 14.2409 20.732 13.93 20.8804 13.5799C21.0817 12.9969 21.1536 12.3773 21.0912 11.7639C21.0786 11.3258 21.0015 10.8918 20.8623 10.4759C20.7356 10.1758 20.5476 9.90514 20.3101 9.68133C20.0727 9.45751 19.7911 9.2854 19.4833 9.17594C19.2159 9.079 18.9395 9.00866 18.6582 8.96594C18.4463 8.93336 18.2323 8.91598 18.0179 8.91394H18.0199ZM17.6385 13.5019H17.4598V10.5419H17.8493C18.0202 10.5297 18.1918 10.5558 18.3513 10.6185C18.5108 10.6811 18.6541 10.7787 18.7706 10.9039C19.0122 11.226 19.1412 11.6179 19.138 12.0199C19.138 12.5119 19.138 12.9579 18.6924 13.2719C18.3713 13.4479 18.0059 13.5271 17.6405 13.4999" fill="white"/>
<path d="M25.0076 8.88795C24.7848 8.88795 24.568 8.90395 24.4154 8.90995L23.9437 8.92195H22.3779V18.5219H24.2207C24.9249 18.5412 25.6261 18.4223 26.2843 18.172C26.8141 17.9626 27.2832 17.6251 27.6493 17.19C28.0053 16.7509 28.2609 16.2396 28.3981 15.692C28.5558 15.0717 28.6327 14.4338 28.6269 13.794C28.6658 13.0383 28.6071 12.2807 28.4523 11.54C28.3053 10.9947 28.03 10.4921 27.6493 10.074C27.3506 9.73628 26.9849 9.46389 26.5754 9.27395C26.2236 9.11178 25.8536 8.99226 25.4733 8.91795C25.3221 8.89306 25.1689 8.88168 25.0156 8.88395L25.0076 8.88795ZM24.6503 16.7579H24.4495V10.63H24.4756C24.8895 10.5825 25.3082 10.6569 25.6801 10.844C25.9524 11.0606 26.1743 11.3335 26.3305 11.644C26.499 11.9706 26.5961 12.3292 26.6155 12.696C26.6336 13.136 26.6155 13.496 26.6155 13.794C26.6237 14.1372 26.6015 14.4805 26.5493 14.82C26.4874 15.1684 26.373 15.5055 26.21 15.82C26.0255 16.1123 25.7763 16.3586 25.4813 16.54C25.2337 16.6995 24.9404 16.774 24.6463 16.752" fill="white"/>
<path d="M34.8377 8.922H29.9597V18.522H32.0233V14.714H34.6329V12.93H32.0233V10.706H34.8336V8.922" fill="white"/>
</svg>
