<svg width="23" height="23" viewBox="0 0 23 23" fill="none" xmlns="http://www.w3.org/2000/svg">
<path d="M15.3856 1.49932C15.2114 1.42193 15.0135 1.41692 14.8356 1.48539C14.6577 1.55386 14.5142 1.69021 14.4368 1.86444C14.3595 2.03868 14.3544 2.23651 14.4229 2.41444C14.4914 2.59236 14.6277 2.7358 14.802 2.81319C14.8135 2.81894 14.9644 2.88938 15.2088 3.03313C16.6769 3.90657 17.9065 5.12922 18.7882 6.59238C20.2544 9.04907 20.148 11.6553 20.1279 12.1469L20.125 12.2188C20.1248 12.4094 20.2004 12.5923 20.335 12.7272C20.4697 12.8621 20.6524 12.938 20.8431 12.9382C21.0337 12.9384 21.2166 12.8629 21.3515 12.7282C21.4864 12.5936 21.5623 12.4108 21.5625 12.2202V12.2259L21.564 12.1886C21.5956 11.5005 21.5643 10.811 21.4705 10.1286C21.3124 8.93838 20.9315 7.37726 20.0244 5.85638C18.2275 2.84913 15.5523 1.57263 15.3856 1.50076V1.49932ZM15.515 5.17213C15.4375 5.1147 15.3492 5.07347 15.2554 5.05088C15.1616 5.02829 15.0642 5.02481 14.9691 5.04065C14.8739 5.05649 14.7829 5.09132 14.7015 5.14307C14.6201 5.19482 14.5499 5.26243 14.4952 5.34187C14.4405 5.42131 14.4023 5.51096 14.3829 5.60546C14.3636 5.69997 14.3635 5.7974 14.3826 5.89196C14.4017 5.98652 14.4396 6.07626 14.4941 6.15585C14.5486 6.23543 14.6186 6.30323 14.6999 6.35519C15.3708 6.80248 15.9235 7.40539 16.311 8.11251C16.6985 8.81962 16.9092 9.60997 16.9252 10.4161V10.4219C16.9252 10.6125 17.0009 10.7953 17.1357 10.9301C17.2705 11.0649 17.4533 11.1406 17.6439 11.1406C17.8345 11.1406 18.0173 11.0649 18.1521 10.9301C18.2869 10.7953 18.3627 10.6125 18.3627 10.4219V10.3313C18.3549 10.0383 18.3261 9.74621 18.2764 9.45732C18.156 8.75671 17.9235 8.08008 17.5878 7.45344C17.2437 6.81979 16.7962 6.24797 16.2639 5.76151C15.8528 5.38488 15.5107 5.16926 15.515 5.17213ZM3.64841 15.3899C2.91504 14.0712 2.72942 12.517 3.1316 11.0627C3.53378 9.60835 4.49151 8.37038 5.79822 7.61582C7.10493 6.86126 8.65588 6.65058 10.1165 7.02924C11.5772 7.40789 12.8304 8.34552 13.606 9.63988L14.7847 11.6811L17.5246 13.6749C17.6213 13.7454 17.699 13.8389 17.7504 13.9469C17.8019 14.055 17.8255 14.1742 17.8192 14.2937C17.813 14.4132 17.7769 14.5293 17.7144 14.6313C17.6519 14.7334 17.5649 14.8182 17.4613 14.8781L13.8245 16.9783L13.8288 16.9812L9.89291 19.2539V19.2481L6.25603 21.3469C6.15238 21.4067 6.03543 21.4396 5.91581 21.4428C5.79619 21.4459 5.67767 21.4192 5.57102 21.3649C5.46436 21.3107 5.37294 21.2306 5.30504 21.1321C5.23715 21.0336 5.19493 20.9196 5.18222 20.8006L4.82716 17.4326L3.64841 15.3913V15.3899ZM4.89328 14.6711L6.14822 16.8461C6.19832 16.933 6.22966 17.0295 6.24022 17.1293L6.49609 19.55L15.7852 14.1867L13.8158 12.7549C13.735 12.6958 13.6674 12.6204 13.6175 12.5336L12.3611 10.3601C11.7782 9.39188 10.8385 8.69119 9.74424 8.40877C8.64998 8.12634 7.48857 8.28475 6.50991 8.8499C5.53125 9.41506 4.81354 10.3418 4.51121 11.4307C4.20887 12.5197 4.34607 13.6838 4.89328 14.6726V14.6711ZM10.4248 20.608C10.7998 21.0807 11.3323 21.4029 11.9251 21.5157C12.5178 21.6286 13.1314 21.5246 13.6539 21.2227C14.1764 20.9209 14.573 20.4413 14.7713 19.8714C14.9697 19.3015 14.9566 18.6793 14.7344 18.1183L10.4248 20.6066V20.608Z" fill="#DD2025"/>
</svg>
