<svg width="50" height="50" viewBox="0 0 50 50" fill="none" xmlns="http://www.w3.org/2000/svg">
<path d="M25 10.7143C23.2341 10.7143 21.5079 11.2379 20.0396 12.219C18.5713 13.2001 17.4269 14.5946 16.7511 16.226C16.0753 17.8575 15.8985 19.6528 16.243 21.3847C16.5875 23.1167 17.4379 24.7076 18.6866 25.9563C19.9352 27.205 21.5262 28.0554 23.2581 28.3999C24.9901 28.7444 26.7853 28.5676 28.4168 27.8918C30.0483 27.216 31.4428 26.0716 32.4238 24.6033C33.4049 23.135 33.9286 21.4088 33.9286 19.6429C33.9286 17.2748 32.9879 15.0038 31.3135 13.3294C29.639 11.655 27.368 10.7143 25 10.7143Z" fill="#044177"/>
<path d="M25 0C20.0555 0 15.222 1.46622 11.1108 4.21326C6.99952 6.96029 3.79521 10.8648 1.90302 15.4329C0.0108321 20.0011 -0.484251 25.0277 0.480379 29.8773C1.44501 34.7268 3.82603 39.1813 7.32234 42.6777C10.8187 46.174 15.2732 48.555 20.1227 49.5196C24.9723 50.4842 29.9989 49.9892 34.5671 48.097C39.1352 46.2048 43.0397 43.0005 45.7867 38.8892C48.5338 34.778 50 29.9445 50 25C49.9924 18.3719 47.3561 12.0175 42.6693 7.33068C37.9825 2.64391 31.6281 0.007562 25 0ZM39.2714 40.9393C39.2358 38.597 38.2815 36.3625 36.6141 34.7171C34.9467 33.0717 32.6997 32.1473 30.3571 32.1428H19.6429C17.3003 32.1473 15.0533 33.0717 13.3859 34.7171C11.7185 36.3625 10.7642 38.597 10.7286 40.9393C7.4903 38.0478 5.20667 34.2408 4.18007 30.0226C3.15347 25.8044 3.43233 21.3738 4.97972 17.3176C6.52711 13.2614 9.27004 9.77083 12.8453 7.30815C16.4206 4.84547 20.6595 3.52683 25.0009 3.52683C29.3423 3.52683 33.5812 4.84547 37.1565 7.30815C40.7318 9.77083 43.4747 13.2614 45.0221 17.3176C46.5695 21.3738 46.8483 25.8044 45.8217 30.0226C44.7951 34.2408 42.5115 38.0478 39.2732 40.9393H39.2714Z" fill="#044177"/>
</svg>
