<svg width="80" height="80" viewBox="0 0 80 80" fill="none" xmlns="http://www.w3.org/2000/svg">
<circle cx="40" cy="40" r="40" fill="#F4F4F4"/>
<path d="M40 20C28.954 20 20 28.954 20 40C20 51.046 28.954 60 40 60C51.046 60 60 51.046 60 40C60 28.954 51.046 20 40 20ZM40 54.8387C31.7992 54.8387 25.1613 48.2024 25.1613 40C25.1613 31.7992 31.7976 25.1613 40 25.1613C48.2008 25.1613 54.8387 31.7976 54.8387 40C54.8387 48.2008 48.2024 54.8387 40 54.8387ZM40 29.6774C34.2992 29.6774 29.6774 34.2992 29.6774 40C29.6774 45.7008 34.2992 50.3226 40 50.3226C45.7008 50.3226 50.3226 45.7008 50.3226 40C50.3226 34.2992 45.7008 29.6774 40 29.6774ZM40 45.1613C37.154 45.1613 34.8387 42.846 34.8387 40C34.8387 37.154 37.154 34.8387 40 34.8387C42.846 34.8387 45.1613 37.154 45.1613 40C45.1613 42.846 42.846 45.1613 40 45.1613Z" fill="#044177"/>
</svg>
