<svg width="80" height="80" viewBox="0 0 80 80" fill="none" xmlns="http://www.w3.org/2000/svg">
<circle cx="40" cy="40" r="40" fill="#F4F4F4"/>
<path d="M24.8258 50.7887L26.193 49.2894C26.4651 49.0005 26.6073 48.6214 26.5891 48.2336V47.9874C26.5891 47.4405 26.2891 47.1429 25.7031 47.1429H21.25C21.0842 47.1429 20.9253 47.2056 20.8081 47.3172C20.6908 47.4288 20.625 47.5802 20.625 47.7381V48.9286C20.625 49.0864 20.6908 49.2378 20.8081 49.3495C20.9253 49.4611 21.0842 49.5238 21.25 49.5238H23.0336C22.7305 49.8146 22.4437 50.1203 22.1742 50.4397L21.7359 50.9606C21.4234 51.3378 21.3258 51.7143 21.5172 52.0677L21.5992 52.2113C21.8336 52.6399 22.0906 52.7976 22.5562 52.7976H22.9258C23.7328 52.7976 24.1711 52.9792 24.1711 53.474C24.1711 53.8251 23.843 54.0856 23.0492 54.0856C22.6345 54.0824 22.2242 54.0036 21.8406 53.8534C21.3336 53.5647 20.9234 53.593 20.6219 54.0856L20.1852 54.7783C19.8945 55.2344 19.9359 55.6503 20.3906 55.9643C20.993 56.3132 21.9828 56.6667 23.2812 56.6667C25.95 56.6667 27.0703 54.974 27.0703 53.3839C27.068 52.314 26.3578 51.1696 24.8258 50.7887ZM58.75 37.6191H33.75C33.4185 37.6191 33.1005 37.7445 32.8661 37.9677C32.6317 38.191 32.5 38.4938 32.5 38.8095V41.1905C32.5 41.5062 32.6317 41.809 32.8661 42.0323C33.1005 42.2555 33.4185 42.381 33.75 42.381H58.75C59.0815 42.381 59.3995 42.2555 59.6339 42.0323C59.8683 41.809 60 41.5062 60 41.1905V38.8095C60 38.4938 59.8683 38.191 59.6339 37.9677C59.3995 37.7445 59.0815 37.6191 58.75 37.6191ZM58.75 25.7143H33.75C33.4185 25.7143 33.1005 25.8397 32.8661 26.063C32.6317 26.2862 32.5 26.589 32.5 26.9048V29.2857C32.5 29.6015 32.6317 29.9043 32.8661 30.1275C33.1005 30.3508 33.4185 30.4762 33.75 30.4762H58.75C59.0815 30.4762 59.3995 30.3508 59.6339 30.1275C59.8683 29.9043 60 29.6015 60 29.2857V26.9048C60 26.589 59.8683 26.2862 59.6339 26.063C59.3995 25.8397 59.0815 25.7143 58.75 25.7143ZM58.75 49.5238H33.75C33.4185 49.5238 33.1005 49.6492 32.8661 49.8725C32.6317 50.0958 32.5 50.3986 32.5 50.7143V53.0952C32.5 53.411 32.6317 53.7138 32.8661 53.937C33.1005 54.1603 33.4185 54.2857 33.75 54.2857H58.75C59.0815 54.2857 59.3995 54.1603 59.6339 53.937C59.8683 53.7138 60 53.411 60 53.0952V50.7143C60 50.3986 59.8683 50.0958 59.6339 49.8725C59.3995 49.6492 59.0815 49.5238 58.75 49.5238ZM21.25 32.8572H26.25C26.4158 32.8572 26.5747 32.7944 26.6919 32.6828C26.8092 32.5712 26.875 32.4198 26.875 32.2619V31.0714C26.875 30.9136 26.8092 30.7622 26.6919 30.6505C26.5747 30.5389 26.4158 30.4762 26.25 30.4762H25V23.9286C25 23.7707 24.9342 23.6193 24.8169 23.5077C24.6997 23.3961 24.5408 23.3333 24.375 23.3333H22.5C22.3842 23.3335 22.2706 23.3644 22.1721 23.4225C22.0736 23.4805 21.994 23.5635 21.9422 23.6622L21.3172 24.8527C21.2695 24.9434 21.247 25.0441 21.2517 25.1454C21.2564 25.2467 21.2882 25.3452 21.3441 25.4315C21.4 25.5178 21.4781 25.589 21.571 25.6385C21.6639 25.688 21.7685 25.7141 21.875 25.7143H22.5V30.4762H21.25C21.0842 30.4762 20.9253 30.5389 20.8081 30.6505C20.6908 30.7622 20.625 30.9136 20.625 31.0714V32.2619C20.625 32.4198 20.6908 32.5712 20.8081 32.6828C20.9253 32.7944 21.0842 32.8572 21.25 32.8572ZM20.9445 44.7619H26.25C26.4158 44.7619 26.5747 44.6992 26.6919 44.5876C26.8092 44.4759 26.875 44.3245 26.875 44.1667V42.9762C26.875 42.8183 26.8092 42.6669 26.6919 42.5553C26.5747 42.4437 26.4158 42.381 26.25 42.381H23.2281C23.4852 41.6153 27.0047 40.9911 27.0047 38.1816C27.0047 36.0194 25.0516 35.2381 23.5305 35.2381C21.8617 35.2381 20.8898 35.9821 20.3695 36.6332C20.0281 37.0491 20.1352 37.4397 20.5883 37.7768L21.2586 38.2887C21.6969 38.628 22.118 38.4725 22.518 38.1071C22.7153 37.923 22.9808 37.8204 23.257 37.8214C23.5172 37.8214 23.982 37.9375 23.982 38.4725C23.9844 39.4189 20 40.0975 20 43.6153V43.913C20 44.4643 20.3969 44.7619 20.9445 44.7619Z" fill="#044177"/>
</svg>
