<svg width="80" height="80" viewBox="0 0 80 80" fill="none" xmlns="http://www.w3.org/2000/svg">
<circle cx="40" cy="40" r="40" fill="#F4F4F4"/>
<path d="M60.1751 39.0875C56.4091 32.4744 48.9536 28 40.4167 28C31.8799 28 24.4223 32.4775 20.6584 39.0881C20.4995 39.3709 20.4167 39.6834 20.4167 40.0003C20.4167 40.3172 20.4995 40.6297 20.6584 40.9125C24.4244 47.5256 31.8799 52 40.4167 52C48.9536 52 56.4112 47.5225 60.1751 40.9119C60.334 40.6291 60.4167 40.3166 60.4167 39.9997C60.4167 39.6828 60.334 39.3703 60.1751 39.0875ZM40.4167 49C38.4389 49 36.5055 48.4722 34.861 47.4832C33.2165 46.4943 31.9348 45.0887 31.1779 43.4442C30.4211 41.7996 30.223 39.99 30.6089 38.2442C30.9947 36.4984 31.9471 34.8947 33.3457 33.636C34.7442 32.3774 36.526 31.5202 38.4658 31.1729C40.4057 30.8257 42.4163 31.0039 44.2436 31.6851C46.0709 32.3663 47.6326 33.5198 48.7315 34.9999C49.8303 36.4799 50.4168 38.22 50.4168 40C50.4174 41.1821 50.1592 42.3526 49.6569 43.4448C49.1545 44.537 48.418 45.5294 47.4893 46.3652C46.5605 47.2011 45.4579 47.864 44.2443 48.3161C43.0308 48.7682 41.7302 49.0006 40.4167 49ZM40.4167 34C39.8217 34.0075 39.2305 34.0872 38.6591 34.2369C39.1301 34.8129 39.3561 35.5218 39.2962 36.235C39.2362 36.9481 38.8943 37.6183 38.3324 38.1241C37.7705 38.6298 37.0258 38.9375 36.2334 38.9915C35.441 39.0454 34.6533 38.842 34.0133 38.4181C33.6488 39.6266 33.7146 40.9075 34.2014 42.0806C34.6882 43.2537 35.5714 44.2599 36.7269 44.9575C37.8823 45.6551 39.2518 46.009 40.6424 45.9695C42.0331 45.93 43.375 45.4989 44.4792 44.7371C45.5834 43.9752 46.3943 42.9209 46.7979 41.7225C47.2014 40.5241 47.1773 39.242 46.7288 38.0566C46.2803 36.8712 45.4301 35.8423 44.2978 35.1146C43.1655 34.3869 41.8081 33.9971 40.4167 34Z" fill="#044177"/>
</svg>
