<svg width="16" height="16" viewBox="0 0 16 16" fill="none" xmlns="http://www.w3.org/2000/svg">
<path fill-rule="evenodd" clip-rule="evenodd" d="M4.96542 0.0478779C5.79879 0.00921126 6.06508 -0.00012207 8.18694 -0.00012207C10.3088 -0.00012207 10.5751 0.00921126 11.4085 0.0478779C12.6781 0.107211 13.7934 0.425878 14.6886 1.34254C15.5838 2.25921 15.895 3.40121 15.953 4.70121C15.9907 5.55454 15.9999 5.82721 15.9999 7.99988C15.9999 10.1725 15.9907 10.4452 15.953 11.2985C15.895 12.5985 15.5838 13.7405 14.6886 14.6572C13.7934 15.5739 12.6781 15.8925 11.4085 15.9519C10.5751 15.9905 10.3088 15.9999 8.18694 15.9999C6.06508 15.9999 5.79879 15.9905 4.96542 15.9519C3.69582 15.8925 2.58052 15.5739 1.68529 14.6572C0.790061 13.7405 0.478847 12.5985 0.420901 11.2985C0.383139 10.4452 0.374023 10.1725 0.374023 7.99988C0.374023 5.82721 0.383139 5.55454 0.420901 4.70121C0.478847 3.40121 0.790061 2.25921 1.68529 1.34254C2.58052 0.425878 3.69582 0.107211 4.96542 0.0478779ZM11.3434 1.48794C10.5198 1.44927 10.2723 1.44127 8.1863 1.44127C6.10025 1.44127 5.85284 1.44927 5.02923 1.48794C4.13986 1.52927 3.31494 1.71194 2.68014 2.36194C2.04534 3.01194 1.86695 3.8566 1.82658 4.76727C1.78882 5.6106 1.78101 5.86394 1.78101 7.99994C1.78101 10.1359 1.78882 10.3893 1.82658 11.2326C1.86695 12.1433 2.04534 12.9879 2.68014 13.6379C3.31494 14.2879 4.13986 14.4706 5.02923 14.5119C5.85284 14.5506 6.10025 14.5586 8.1863 14.5586C10.2723 14.5586 10.5198 14.5506 11.3434 14.5119C12.2327 14.4706 13.0576 14.2879 13.6924 13.6379C14.3272 12.9879 14.5056 12.1433 14.546 11.2326C14.5838 10.3893 14.5916 10.1359 14.5916 7.99994C14.5916 5.86394 14.5838 5.6106 14.546 4.76727C14.5056 3.8566 14.3272 3.01194 13.6924 2.36194C13.0576 1.71194 12.2327 1.52927 11.3434 1.48794ZM4.17358 7.99948C4.17358 5.73081 5.9699 3.89148 8.18551 3.89148C10.4011 3.89148 12.1974 5.73081 12.1974 7.99948C12.1974 10.2681 10.4011 12.1075 8.18551 12.1075C5.9699 12.1075 4.17358 10.2681 4.17358 7.99948ZM5.58057 7.99955C5.58057 9.47222 6.74664 10.6662 8.18487 10.6662C9.62309 10.6662 10.7892 9.47222 10.7892 7.99955C10.7892 6.52688 9.62309 5.33289 8.18487 5.33289C6.74664 5.33289 5.58057 6.52688 5.58057 7.99955ZM13.2943 3.72953C13.2943 4.25973 12.8745 4.68953 12.3567 4.68953C11.8389 4.68953 11.4192 4.25973 11.4192 3.72953C11.4192 3.19934 11.8389 2.76953 12.3567 2.76953C12.8745 2.76953 13.2943 3.19934 13.2943 3.72953Z" fill="#E3E3E3"/>
</svg>
