<svg width="112" height="72" viewBox="0 0 112 72" fill="none" xmlns="http://www.w3.org/2000/svg">
<path d="M19.3661 22.0045H14.5955L6.00212 7.51898V22.0045H1.54229V0H6.31291L14.9062 14.5009V0H19.3661V22.0045Z" fill="#044177"/>
<path d="M41.9729 22.0045H26.6976V0H41.9729V4.40397H31.1574V8.80795H38.4765V13.2119H31.1574V17.6006H41.9729V22.0045Z" fill="#044177"/>
<path d="M65.5898 22.0045H60.1821L55.8932 14.8999L51.5887 22.0045H46.2121L53.0494 11.0023L46.2121 0H51.5887L55.8932 7.10467L60.1821 0H65.5898L58.7524 11.0023L65.5898 22.0045Z" fill="#044177"/>
<path d="M88.4297 13.2119C88.4297 14.4293 88.1966 15.575 87.7304 16.6492C87.2643 17.7131 86.6271 18.644 85.8191 19.4419C85.011 20.2296 84.0631 20.8537 82.9754 21.314C81.898 21.7744 80.7429 22.0045 79.5101 22.0045C78.2773 22.0045 77.117 21.7744 76.0292 21.314C74.9518 20.8537 74.0091 20.2296 73.201 19.4419C72.4034 18.644 71.7714 17.7131 71.3052 16.6492C70.839 15.575 70.6059 14.4293 70.6059 13.2119V0H75.0502V13.2119C75.0502 13.8155 75.1642 14.3832 75.3921 14.9152C75.6304 15.4472 75.9515 15.9126 76.3556 16.3116C76.7596 16.7106 77.2309 17.0277 77.7697 17.263C78.3187 17.488 78.8988 17.6006 79.5101 17.6006C80.1213 17.6006 80.6963 17.488 81.235 17.263C81.784 17.0277 82.2606 16.7106 82.6646 16.3116C83.0686 15.9126 83.3846 15.4472 83.6125 14.9152C83.8508 14.3832 83.9699 13.8155 83.9699 13.2119V0H88.4297V13.2119Z" fill="#044177"/>
<path d="M94.1762 6.59829C94.1762 5.68783 94.3523 4.83363 94.7046 4.0357C95.0568 3.23777 95.5333 2.54213 96.1342 1.9488C96.7454 1.34523 97.4551 0.869542 98.2631 0.521725C99.0712 0.173908 99.9362 0 100.858 0H111.083V4.40397H100.858C100.547 4.40397 100.257 4.46024 99.988 4.57277C99.7186 4.6853 99.4804 4.84386 99.2732 5.04846C99.0763 5.24283 98.9209 5.473 98.807 5.73898C98.693 6.00496 98.6361 6.29139 98.6361 6.59829C98.6361 6.90519 98.693 7.19674 98.807 7.47295C98.9209 7.73892 99.0763 7.97421 99.2732 8.17881C99.4804 8.37318 99.7186 8.52663 99.988 8.63916C100.257 8.75169 100.547 8.80795 100.858 8.80795H105.318C106.24 8.80795 107.105 8.98186 107.913 9.32967C108.732 9.66726 109.441 10.1378 110.042 10.7414C110.653 11.3347 111.13 12.0355 111.472 12.8436C111.824 13.6416 112 14.4958 112 15.4062C112 16.3167 111.824 17.1709 111.472 17.9688C111.13 18.7668 110.653 19.4675 110.042 20.0711C109.441 20.6644 108.732 21.135 107.913 21.4828C107.105 21.8306 106.24 22.0045 105.318 22.0045H95.4194V17.6006H105.318C105.629 17.6006 105.919 17.5443 106.188 17.4318C106.458 17.3192 106.691 17.1658 106.888 16.9714C107.095 16.7668 107.255 16.5315 107.369 16.2656C107.483 15.9996 107.54 15.7131 107.54 15.4062C107.54 15.0993 107.483 14.8129 107.369 14.5469C107.255 14.2809 107.095 14.0508 106.888 13.8564C106.691 13.6518 106.458 13.4932 106.188 13.3807C105.919 13.2682 105.629 13.2119 105.318 13.2119H100.858C99.9362 13.2119 99.0712 13.038 98.2631 12.6902C97.4551 12.3424 96.7454 11.8718 96.1342 11.2785C95.5333 10.6749 95.0568 9.97416 94.7046 9.17623C94.3523 8.36806 94.1762 7.50875 94.1762 6.59829Z" fill="#044177"/>
<path d="M20.8909 71.1081H12.5578V38.107H0V29.8496H33.4196V38.107H20.8909V71.1081Z" fill="#044177"/>
<path d="M69.8694 66.8787C67.9269 68.5282 65.7514 69.7942 63.3428 70.6765C60.9342 71.5588 58.4381 72 55.8547 72C53.8734 72 51.9601 71.7411 50.1148 71.2232C48.2889 70.7245 46.5699 70.0148 44.9576 69.0941C43.3649 68.1542 41.908 67.0321 40.5872 65.7278C39.2663 64.4235 38.13 62.9849 37.1782 61.412C36.2458 59.82 35.5174 58.1225 34.993 56.3195C34.4879 54.4973 34.2354 52.6079 34.2354 50.6515C34.2354 48.695 34.4879 46.8057 34.993 44.9835C35.5174 43.1613 36.2458 41.4637 37.1782 39.8909C38.13 38.2989 39.2663 36.8507 40.5872 35.5464C41.908 34.2421 43.3649 33.1296 44.9576 32.2089C46.5699 31.269 48.2889 30.5497 50.1148 30.051C51.9601 29.5331 53.8734 29.2742 55.8547 29.2742C58.4381 29.2742 60.9342 29.7153 63.3428 30.5977C65.7514 31.4608 67.9269 32.7267 69.8694 34.3955L65.4406 41.5884C64.2169 40.2841 62.7698 39.2867 61.0993 38.5962C59.4288 37.8865 57.6806 37.5316 55.8547 37.5316C54.0094 37.5316 52.2806 37.8769 50.6684 38.5674C49.0562 39.2579 47.6479 40.1978 46.4436 41.387C45.2393 42.5571 44.2875 43.9477 43.5882 45.5589C42.889 47.1509 42.5393 48.8484 42.5393 50.6515C42.5393 52.4545 42.889 54.152 43.5882 55.744C44.2875 57.3169 45.2393 58.6979 46.4436 59.8872C47.6479 61.0764 49.0562 62.0163 50.6684 62.7068C52.2806 63.3973 54.0094 63.7425 55.8547 63.7425C57.6806 63.7425 59.4288 63.3973 61.0993 62.7068C62.7698 61.9971 64.2169 60.9901 65.4406 59.6858L69.8694 66.8787Z" fill="#044177"/>
<path d="M106.873 66.8787C104.93 68.5282 102.755 69.7942 100.346 70.6765C97.9376 71.5588 95.4415 72 92.8581 72C90.8768 72 88.9635 71.7411 87.1182 71.2232C85.2923 70.7245 83.5733 70.0148 81.961 69.0941C80.3682 68.1542 78.9114 67.0321 77.5906 65.7278C76.2697 64.4235 75.1334 62.9849 74.1816 61.412C73.2492 59.82 72.5208 58.1225 71.9963 56.3195C71.4913 54.4973 71.2388 52.6079 71.2388 50.6515C71.2388 48.695 71.4913 46.8057 71.9963 44.9835C72.5208 43.1613 73.2492 41.4637 74.1816 39.8909C75.1334 38.2989 76.2697 36.8507 77.5906 35.5464C78.9114 34.2421 80.3682 33.1296 81.961 32.2089C83.5733 31.269 85.2923 30.5497 87.1182 30.051C88.9635 29.5331 90.8768 29.2742 92.8581 29.2742C95.4415 29.2742 97.9376 29.7153 100.346 30.5977C102.755 31.4608 104.93 32.7267 106.873 34.3955L102.444 41.5884C101.22 40.2841 99.7732 39.2867 98.1027 38.5962C96.4322 37.8865 94.684 37.5316 92.8581 37.5316C91.0128 37.5316 89.284 37.8769 87.6718 38.5674C86.0596 39.2579 84.6513 40.1978 83.447 41.387C82.2427 42.5571 81.2909 43.9477 80.5916 45.5589C79.8923 47.1509 79.5427 48.8484 79.5427 50.6515C79.5427 52.4545 79.8923 54.152 80.5916 55.744C81.2909 57.3169 82.2427 58.6979 83.447 59.8872C84.6513 61.0764 86.0596 62.0163 87.6718 62.7068C89.284 63.3973 91.0128 63.7425 92.8581 63.7425C94.684 63.7425 96.4322 63.3973 98.1027 62.7068C99.7732 61.9971 101.22 60.9901 102.444 59.6858L106.873 66.8787Z" fill="#044177"/>
</svg>
