<svg width="24" height="16" viewBox="0 0 24 16" fill="none" xmlns="http://www.w3.org/2000/svg">
<path fill-rule="evenodd" clip-rule="evenodd" d="M8.06413 8.5922C8.10527 8.86213 8.17422 9.12853 8.27078 9.38708C8.56285 10.1691 9.09282 10.8399 9.78608 11.305C10.4793 11.7701 11.301 12.006 12.1354 11.9797C12.9698 11.9533 13.7749 11.666 14.4375 11.158C15.1 10.6501 15.5866 9.94726 15.8287 9.14833C16.0708 8.3494 16.0563 7.49466 15.7872 6.70441C15.5181 5.91415 15.008 5.22818 14.3286 4.74305C13.8087 4.37183 13.2098 4.1325 12.5832 4.04145C12.3909 4.01352 12.196 3.99954 12 4C11.643 4.00499 11.2882 4.05811 10.9454 4.15792C11.225 4.53781 11.3607 5.00437 11.3288 5.47462C11.3284 5.47974 11.328 5.48486 11.3276 5.48998C11.2917 5.96542 11.0865 6.41223 10.7494 6.74938C10.4258 7.07298 10.0011 7.27498 9.54714 7.3225C9.52814 7.32449 9.50908 7.3262 9.48997 7.32765C9.01453 7.36362 8.54194 7.22801 8.15791 6.94542C8.01153 7.48472 7.98082 8.04567 8.06413 8.5922ZM9.66013 8.81859C9.66527 8.8332 9.67055 8.84776 9.67598 8.86228C9.85827 9.35039 10.189 9.76905 10.6217 10.0593C11.0544 10.3496 11.5673 10.4969 12.088 10.4804C12.6088 10.464 13.1113 10.2846 13.5248 9.96761C13.9384 9.6506 14.242 9.21191 14.3932 8.71327C14.5443 8.21463 14.5352 7.68115 14.3673 7.18792C14.1993 6.69469 13.8809 6.26655 13.4569 5.96376C13.2606 5.82355 13.0461 5.71349 12.8207 5.63584C12.7509 6.45675 12.3931 7.22697 11.81 7.81004C11.2327 8.38735 10.4719 8.74381 9.66013 8.81859ZM17.4965 2.89716C17.7663 3.1878 18.0138 3.50062 18.236 3.83322C19.06 5.06639 19.4999 6.51616 19.5 7.99927M17.4965 2.89716C19.5986 4.03697 21.3415 5.81356 22.4808 7.9998C21.3429 10.1838 19.6012 11.9598 17.5007 13.1001C18.1052 12.4481 18.5894 11.6931 18.93 10.8702C19.3067 9.96022 19.5004 8.98417 19.5 7.99927M12 14C12.788 14.0004 13.5684 13.8455 14.2966 13.5441C15.0247 13.2427 15.6863 12.8007 16.2435 12.2435C16.8007 11.6863 17.2427 11.0247 17.5441 10.2966C17.8455 9.56843 18.0004 8.78804 18 8C18 6.81331 17.6481 5.65327 16.9888 4.66658C16.3295 3.67988 15.3925 2.91085 14.2961 2.45672C13.1997 2.0026 11.9933 1.88378 10.8295 2.11529C9.66557 2.3468 8.59647 2.91824 7.75735 3.75736C6.91823 4.59647 6.34679 5.66557 6.11528 6.82946C5.88377 7.99334 6.00259 9.19974 6.45671 10.2961C6.91084 11.3925 7.67987 12.3295 8.66657 12.9888C9.65327 13.6481 10.8133 14 12 14ZM6.50354 13.1028C5.90024 12.453 5.41376 11.6979 5.07089 10.8701C4.50323 9.49968 4.35471 7.99168 4.6441 6.53682C4.91527 5.17354 5.55956 3.9143 6.50263 2.89814C4.40059 4.03833 2.65774 5.81503 1.51916 8.0002C2.6585 10.1864 4.40145 11.963 6.50354 13.1028ZM0.144977 7.39208C0.0496614 7.58063 0 7.78894 0 8.00021C0 8.21148 0.0496614 8.41979 0.144977 8.60833C2.40457 13.0171 6.87791 16 12 16C17.1221 16 21.5967 13.015 23.855 8.60792C23.9503 8.41937 24 8.21106 24 7.99979C24 7.78852 23.9503 7.58021 23.855 7.39167C21.5954 2.98292 17.1221 0 12 0C6.87791 0 2.40332 2.985 0.144977 7.39208Z" fill="#808080"/>
</svg>
