<svg width="160" height="104" viewBox="0 0 160 104" fill="none" xmlns="http://www.w3.org/2000/svg">
<path d="M27.6658 31.7843H20.8506L8.57446 10.8608V31.7843H2.20328V0H9.01845L21.2946 20.9457V0H27.6658V31.7843Z" fill="#0664B7"/>
<path d="M59.9613 31.7843H38.1394V0H59.9613V6.3613H44.5106V12.7226H54.9665V19.0839H44.5106V25.423H59.9613V31.7843Z" fill="#0664B7"/>
<path d="M93.6997 31.7843H85.9744L79.8474 21.522L73.6982 31.7843H66.0173L75.7849 15.8922L66.0173 0H73.6982L79.8474 10.2623L85.9744 0H93.6997L83.9321 15.8922L93.6997 31.7843Z" fill="#0664B7"/>
<path d="M126.328 19.0839C126.328 20.8423 125.995 22.4973 125.329 24.0488C124.663 25.5856 123.753 26.9302 122.599 28.0828C121.444 29.2206 120.09 30.122 118.536 30.7869C116.997 31.4518 115.347 31.7843 113.586 31.7843C111.825 31.7843 110.167 31.4518 108.613 30.7869C107.074 30.122 105.727 29.2206 104.573 28.0828C103.433 26.9302 102.531 25.5856 101.865 24.0488C101.199 22.4973 100.866 20.8423 100.866 19.0839V0H107.215V19.0839C107.215 19.9557 107.377 20.7758 107.703 21.5442C108.043 22.3126 108.502 22.9849 109.079 23.5612C109.657 24.1375 110.33 24.5955 111.1 24.9354C111.884 25.2605 112.713 25.423 113.586 25.423C114.459 25.423 115.28 25.2605 116.05 24.9354C116.834 24.5955 117.515 24.1375 118.092 23.5612C118.669 22.9849 119.121 22.3126 119.446 21.5442C119.787 20.7758 119.957 19.9557 119.957 19.0839V0H126.328V19.0839Z" fill="#0664B7"/>
<path d="M134.537 9.53086C134.537 8.21575 134.789 6.98191 135.292 5.82934C135.795 4.67677 136.476 3.67197 137.335 2.81493C138.208 1.94311 139.222 1.25601 140.376 0.753603C141.53 0.251201 142.766 0 144.083 0H158.69V6.3613H144.083C143.639 6.3613 143.225 6.44257 142.84 6.60511C142.455 6.76765 142.115 6.99669 141.819 7.29222C141.538 7.57297 141.316 7.90545 141.153 8.28963C140.99 8.67382 140.909 9.08757 140.909 9.53086C140.909 9.97416 140.99 10.3953 141.153 10.7943C141.316 11.1784 141.538 11.5183 141.819 11.8138C142.115 12.0946 142.455 12.3162 142.84 12.4788C143.225 12.6413 143.639 12.7226 144.083 12.7226H150.454C151.771 12.7226 153.007 12.9738 154.162 13.4762C155.331 13.9638 156.345 14.6435 157.203 15.5154C158.076 16.3724 158.757 17.3846 159.245 18.5519C159.748 19.7045 160 20.9383 160 22.2535C160 23.5686 159.748 24.8024 159.245 25.955C158.757 27.1075 158.076 28.1197 157.203 28.9916C156.345 29.8486 155.331 30.5283 154.162 31.0307C153.007 31.5331 151.771 31.7843 150.454 31.7843H136.313V25.423H150.454C150.898 25.423 151.313 25.3418 151.697 25.1792C152.082 25.0167 152.415 24.795 152.696 24.5143C152.992 24.2187 153.222 23.8789 153.385 23.4947C153.547 23.1105 153.629 22.6968 153.629 22.2535C153.629 21.8102 153.547 21.3964 153.385 21.0122C153.222 20.628 152.992 20.2956 152.696 20.0148C152.415 19.7193 152.082 19.4902 151.697 19.3277C151.313 19.1652 150.898 19.0839 150.454 19.0839H144.083C142.766 19.0839 141.53 18.8327 140.376 18.3303C139.222 17.8279 138.208 17.1482 137.335 16.2911C136.476 15.4193 135.795 14.4071 135.292 13.2545C134.789 12.0872 134.537 10.846 134.537 9.53086Z" fill="#0664B7"/>
<path d="M29.8441 102.712H17.9398V55.0435H0V43.1161H47.7423V55.0435H29.8441V102.712Z" fill="#0664B7"/>
<path d="M99.8134 96.6025C97.0385 98.9852 93.9306 100.814 90.4897 102.088C87.0488 103.363 83.4831 104 79.7924 104C76.962 104 74.2288 103.626 71.5926 102.878C68.9842 102.158 66.5284 101.132 64.2252 99.8026C61.9498 98.445 59.8686 96.8242 57.9817 94.9401C56.0947 93.0561 54.4714 90.9782 53.1117 88.7063C51.7798 86.4067 50.7392 83.9547 49.9899 81.3503C49.2685 78.7183 48.9077 75.9892 48.9077 73.1632C48.9077 70.3372 49.2685 67.6082 49.9899 64.9761C50.7392 62.344 51.7798 59.8921 53.1117 57.6202C54.4714 55.3206 56.0947 53.2288 57.9817 51.3448C59.8686 49.4607 61.9498 47.8538 64.2252 46.5239C66.5284 45.1663 68.9842 44.1273 71.5926 43.407C74.2288 42.6589 76.962 42.2849 79.7924 42.2849C83.4831 42.2849 87.0488 42.9221 90.4897 44.1966C93.9306 45.4434 97.0385 47.272 99.8134 49.6824L93.4866 60.0721C91.7384 58.1881 89.6711 56.7474 87.2847 55.75C84.8983 54.7249 82.4009 54.2123 79.7924 54.2123C77.1563 54.2123 74.6866 54.711 72.3834 55.7085C70.0803 56.7059 68.0685 58.0635 66.348 59.7812C64.6276 61.4713 63.2679 63.48 62.2689 65.8073C61.2699 68.1069 60.7705 70.5589 60.7705 73.1632C60.7705 75.7676 61.2699 78.2196 62.2689 80.5192C63.2679 82.7911 64.6276 84.7859 66.348 86.5037C68.0685 88.2214 70.0803 89.579 72.3834 90.5765C74.6866 91.5739 77.1563 92.0726 79.7924 92.0726C82.4009 92.0726 84.8983 91.5739 87.2847 90.5765C89.6711 89.5513 91.7384 88.0968 93.4866 86.2128L99.8134 96.6025Z" fill="#0664B7"/>
<path d="M152.675 96.6025C149.9 98.9852 146.793 100.814 143.352 102.088C139.911 103.363 136.345 104 132.654 104C129.824 104 127.091 103.626 124.455 102.878C121.846 102.158 119.39 101.132 117.087 99.8026C114.812 98.445 112.731 96.8242 110.844 94.9401C108.957 93.0561 107.333 90.9782 105.974 88.7063C104.642 86.4067 103.601 83.9547 102.852 81.3503C102.13 78.7183 101.77 75.9892 101.77 73.1632C101.77 70.3372 102.13 67.6082 102.852 64.9761C103.601 62.344 104.642 59.8921 105.974 57.6202C107.333 55.3206 108.957 53.2288 110.844 51.3448C112.731 49.4607 114.812 47.8538 117.087 46.5239C119.39 45.1663 121.846 44.1273 124.455 43.407C127.091 42.6589 129.824 42.2849 132.654 42.2849C136.345 42.2849 139.911 42.9221 143.352 44.1966C146.793 45.4434 149.9 47.272 152.675 49.6824L146.349 60.0721C144.6 58.1881 142.533 56.7474 140.147 55.75C137.76 54.7249 135.263 54.2123 132.654 54.2123C130.018 54.2123 127.549 54.711 125.245 55.7085C122.942 56.7059 120.93 58.0635 119.21 59.7812C117.49 61.4713 116.13 63.48 115.131 65.8073C114.132 68.1069 113.632 70.5589 113.632 73.1632C113.632 75.7676 114.132 78.2196 115.131 80.5192C116.13 82.7911 117.49 84.7859 119.21 86.5037C120.93 88.2214 122.942 89.579 125.245 90.5765C127.549 91.5739 130.018 92.0726 132.654 92.0726C135.263 92.0726 137.76 91.5739 140.147 90.5765C142.533 89.5513 144.6 88.0968 146.349 86.2128L152.675 96.6025Z" fill="#0664B7"/>
</svg>
