<svg width="24" height="24" viewBox="0 0 24 24" fill="none" xmlns="http://www.w3.org/2000/svg">
<path d="M18 6.75C18 10.0623 15.3123 12.75 12 12.75C8.68765 12.75 6 10.0623 6 6.75C6 3.43765 8.68765 0.75 12 0.75C15.3123 0.75 18 3.43765 18 6.75ZM12 16.5C13.2719 16.5 14.4826 16.2288 15.5775 15.75H18C20.8998 15.75 23.25 18.1002 23.25 21V21.75C23.25 22.578 22.578 23.25 21.75 23.25H2.25C1.42203 23.25 0.75 22.578 0.75 21.75V21C0.75 18.1002 3.10015 15.75 6 15.75H8.42303C9.52077 16.2284 10.7271 16.5 12 16.5Z" stroke="#808080" stroke-width="1.5"/>
</svg>
