<svg width="130" height="130" viewBox="0 0 130 130" fill="none" xmlns="http://www.w3.org/2000/svg">
<path d="M65.0933 8.03369C53.8445 8.03369 42.8483 11.3694 33.4952 17.6189C24.1422 23.8684 16.8524 32.751 12.5476 43.1436C8.2429 53.5361 7.11659 64.9718 9.31112 76.0045C11.5057 87.0371 16.9225 97.1713 24.8766 105.125C32.8307 113.08 42.9649 118.496 53.9975 120.691C65.0302 122.885 76.4659 121.759 86.8584 117.454C97.2509 113.15 106.134 105.86 112.383 96.5068C118.633 87.1537 121.968 76.1575 121.968 64.9087C121.951 49.8298 115.953 35.3734 105.291 24.711C94.6286 14.0486 80.1722 8.05089 65.0933 8.03369ZM97.5608 101.171C97.4798 95.8419 95.3088 90.7583 91.5154 87.0151C87.7221 83.2719 82.61 81.1687 77.2808 81.1587H52.9058C47.5765 81.1687 42.4645 83.2719 38.6711 87.0151C34.8778 90.7583 32.7067 95.8419 32.6258 101.171C25.2587 94.5924 20.0634 85.9316 17.7279 76.3351C15.3924 66.7387 16.0268 56.6592 19.5471 47.4312C23.0674 38.2033 29.3076 30.2623 37.4414 24.6597C45.5751 19.0571 55.2187 16.0572 65.0953 16.0572C74.9719 16.0572 84.6155 19.0571 92.7493 24.6597C100.883 30.2623 107.123 38.2033 110.643 47.4312C114.164 56.6592 114.798 66.7387 112.463 76.3351C110.127 85.9316 104.932 94.5924 97.5648 101.171H97.5608Z" fill="white"/>
<path d="M65 32.5C60.9826 32.5 57.0554 33.6913 53.715 35.9233C50.3746 38.1552 47.7711 41.3276 46.2337 45.0392C44.6963 48.7509 44.294 52.835 45.0778 56.7753C45.8616 60.7155 47.7962 64.3348 50.6369 67.1756C53.4777 70.0164 57.097 71.9509 61.0372 72.7347C64.9775 73.5185 69.0616 73.1162 72.7733 71.5788C76.4849 70.0414 79.6573 67.4379 81.8892 64.0975C84.1212 60.7571 85.3125 56.8299 85.3125 52.8125C85.3125 47.4253 83.1725 42.2587 79.3631 38.4494C75.5538 34.6401 70.3872 32.5 65 32.5Z" fill="white"/>
<path fill-rule="evenodd" clip-rule="evenodd" d="M11.2069 0C11.6315 0 12.0387 0.166758 12.339 0.463589C12.6392 0.76042 12.8079 1.16301 12.8079 1.58279V9.49675H20.8128C21.2374 9.49675 21.6446 9.66351 21.9449 9.96034C22.2451 10.2572 22.4138 10.6598 22.4138 11.0795C22.4138 11.4993 22.2451 11.9019 21.9449 12.1987C21.6446 12.4956 21.2374 12.6623 20.8128 12.6623H12.8079V20.5763C12.8079 20.9961 12.6392 21.3987 12.339 21.6955C12.0387 21.9923 11.6315 22.1591 11.2069 22.1591C10.7823 22.1591 10.3751 21.9923 10.0748 21.6955C9.77459 21.3987 9.60591 20.9961 9.60591 20.5763V12.6623H1.60099C1.17638 12.6623 0.769161 12.4956 0.468918 12.1987C0.168675 11.9019 0 11.4993 0 11.0795C0 10.6598 0.168675 10.2572 0.468918 9.96034C0.769161 9.66351 1.17638 9.49675 1.60099 9.49675H9.60591V1.58279C9.60591 1.16301 9.77459 0.76042 10.0748 0.463589C10.3751 0.166758 10.7823 0 11.2069 0Z" fill="white"/>
</svg>
