<svg width="80" height="80" viewBox="0 0 80 80" fill="none" xmlns="http://www.w3.org/2000/svg">
<path d="M40 24C46.6274 24 52 18.6274 52 12C52 5.37258 46.6274 0 40 0C33.3725 0 28 5.37258 28 12C28 18.6274 33.3725 24 40 24Z" fill="#05204A"/>
<path d="M76 24C75.192 24 56.6 24.116 40 32.032C23.4 24.116 4.808 24 4 24C2.93913 24 1.92172 24.4214 1.17157 25.1716C0.421427 25.9217 0 26.9391 0 28V67.532C5.22528e-06 68.0687 0.108022 68.5999 0.317617 69.094C0.527213 69.5881 0.834099 70.035 1.22 70.408C2 71.16 3.14 71.628 4.136 71.528L4.644 71.524C7.376 71.524 21.828 71.916 38.308 79.624C38.372 79.656 38.444 79.644 38.508 79.668C38.984 79.864 39.484 80 40 80C40.516 80 41.016 79.864 41.496 79.668C41.56 79.644 41.632 79.656 41.696 79.624C58.176 71.912 72.628 71.524 75.36 71.524L75.868 71.528C76.82 71.628 78 71.16 78.784 70.408C79.56 69.652 80 68.612 80 67.532V28C80 26.9391 79.5786 25.9217 78.8284 25.1716C78.0783 24.4214 77.0609 24 76 24ZM8 32.196C13.94 32.64 25.524 34.116 36 38.964V69.932C24 65.232 13.64 63.956 8 63.628V32.196ZM72 63.628C66.36 63.956 56 65.232 44 69.932V38.964C54.476 34.116 66.06 32.64 72 32.196V63.628Z" fill="#05204A"/>
</svg>
