<svg width="20" height="19" viewBox="0 0 20 19" fill="none" xmlns="http://www.w3.org/2000/svg">
<g filter="url(#filter0_d_141_18)">
<path d="M16.6666 10.6667C16.59 10.72 15 12.4025 15 13.5833C15 14.8283 15.7908 15.6233 16.6666 15.6667C17.4216 15.7033 18.3333 14.9242 18.3333 13.5833C18.3333 12.3333 16.7433 10.72 16.6666 10.6667ZM7.9883 15.6667C8.3033 15.9817 8.72164 16.155 9.16664 16.155C9.61164 16.155 10.03 15.9817 10.345 15.6667L16.1783 9.83333L15.5891 9.24416L9.16664 2.82166L7.2558 0.910828L6.07747 2.08916L7.9883 3.99999L3.3333 8.65499C3.0183 8.96999 2.84497 9.38833 2.84497 9.83333C2.84497 10.2783 3.0183 10.6967 3.3333 11.0117L7.9883 15.6667ZM9.16664 5.17833L13.8216 9.83333H4.51164L9.16664 5.17833Z" fill="#044177"/>
</g>
<defs>
<filter id="filter0_d_141_18" x="-1.15503" y="0.910828" width="23.4883" height="23.2442" filterUnits="userSpaceOnUse" color-interpolation-filters="sRGB">
<feFlood flood-opacity="0" result="BackgroundImageFix"/>
<feColorMatrix in="SourceAlpha" type="matrix" values="0 0 0 0 0 0 0 0 0 0 0 0 0 0 0 0 0 0 127 0" result="hardAlpha"/>
<feOffset dy="4"/>
<feGaussianBlur stdDeviation="2"/>
<feComposite in2="hardAlpha" operator="out"/>
<feColorMatrix type="matrix" values="0 0 0 0 0 0 0 0 0 0 0 0 0 0 0 0 0 0 0.25 0"/>
<feBlend mode="normal" in2="BackgroundImageFix" result="effect1_dropShadow_141_18"/>
<feBlend mode="normal" in="SourceGraphic" in2="effect1_dropShadow_141_18" result="shape"/>
</filter>
</defs>
</svg>
