<svg width="20" height="20" viewBox="0 0 20 20" fill="none" xmlns="http://www.w3.org/2000/svg">
<path d="M16.6666 11.6667C16.59 11.72 15 13.4025 15 14.5833C15 15.8283 15.7908 16.6233 16.6666 16.6667C17.4216 16.7033 18.3333 15.9242 18.3333 14.5833C18.3333 13.3333 16.7433 11.72 16.6666 11.6667ZM7.9883 16.6667C8.3033 16.9817 8.72164 17.155 9.16664 17.155C9.61164 17.155 10.03 16.9817 10.345 16.6667L16.1783 10.8333L15.5891 10.2442L9.16664 3.82166L7.2558 1.91083L6.07747 3.08916L7.9883 4.99999L3.3333 9.65499C3.0183 9.96999 2.84497 10.3883 2.84497 10.8333C2.84497 11.2783 3.0183 11.6967 3.3333 12.0117L7.9883 16.6667ZM9.16664 6.17833L13.8216 10.8333H4.51164L9.16664 6.17833Z" fill="#044177"/>
</svg>
