<svg width="58" height="45" viewBox="0 0 58 45" fill="none" xmlns="http://www.w3.org/2000/svg">
<g clip-path="url(#clip0_262_1509)">
<rect width="58" height="45" rx="10" fill="#E3E3E3"/>
<line x1="-202" y1="44.5" x2="58" y2="44.5" stroke="#05204A"/>
<path d="M25.8977 27.0563C26.4649 26.7516 27.1141 26.5781 27.8055 26.5781H27.8079C27.8782 26.5781 27.911 26.4938 27.8594 26.4469C27.1404 25.8016 26.319 25.2804 25.429 24.9047C25.4196 24.9 25.4102 24.8977 25.4008 24.893C26.8563 23.8359 27.8032 22.118 27.8032 20.1797C27.8032 16.9688 25.2063 14.3672 22.0024 14.3672C18.7985 14.3672 16.204 16.9688 16.204 20.1797C16.204 22.118 17.1508 23.8359 18.6087 24.893C18.5993 24.8977 18.5899 24.9 18.5805 24.9047C17.5329 25.3477 16.593 25.9828 15.7844 26.7938C14.9805 27.5962 14.3405 28.5475 13.9001 29.5945C13.4667 30.6198 13.2329 31.7184 13.211 32.8312C13.2104 32.8563 13.2148 32.8812 13.2239 32.9044C13.233 32.9277 13.2468 32.949 13.2642 32.9669C13.2817 32.9848 13.3026 32.999 13.3256 33.0087C13.3487 33.0184 13.3735 33.0234 13.3985 33.0234H14.8024C14.9032 33.0234 14.9876 32.9414 14.9899 32.8406C15.0368 31.0312 15.761 29.3367 17.043 28.0523C18.3672 26.7234 20.1297 25.9922 22.0047 25.9922C23.3337 25.9922 24.6087 26.3602 25.7079 27.0492C25.7361 27.067 25.7685 27.077 25.8019 27.0782C25.8352 27.0794 25.8682 27.0719 25.8977 27.0563ZM22.0047 24.2109C20.9313 24.2109 19.9212 23.7914 19.1594 23.0297C18.7847 22.6559 18.4875 22.2116 18.2852 21.7225C18.0829 21.2333 17.9793 20.709 17.9805 20.1797C17.9805 19.1039 18.4001 18.0914 19.1594 17.3297C19.9188 16.568 20.929 16.1484 22.0047 16.1484C23.0805 16.1484 24.0883 16.568 24.8501 17.3297C25.2248 17.7035 25.5219 18.1478 25.7243 18.6369C25.9266 19.126 26.0302 19.6504 26.029 20.1797C26.029 21.2555 25.6094 22.268 24.8501 23.0297C24.0883 23.7914 23.0782 24.2109 22.0047 24.2109ZM30.6251 29.7891H28.6563V27.8203C28.6563 27.7172 28.5719 27.6328 28.4688 27.6328H27.1563C27.0532 27.6328 26.9688 27.7172 26.9688 27.8203V29.7891H25.0001C24.8969 29.7891 24.8126 29.8734 24.8126 29.9766V31.2891C24.8126 31.3922 24.8969 31.4766 25.0001 31.4766H26.9688V33.4453C26.9688 33.5484 27.0532 33.6328 27.1563 33.6328H28.4688C28.5719 33.6328 28.6563 33.5484 28.6563 33.4453V31.4766H30.6251C30.7282 31.4766 30.8126 31.3922 30.8126 31.2891V29.9766C30.8126 29.8734 30.7282 29.7891 30.6251 29.7891Z" fill="#5C5C5C"/>
<path d="M40.8 27.8964L44.8 23.8964L40.8 19.8964L41.6 18.2964L47.2 23.8964L41.6 29.4964L40.8 27.8964Z" fill="#5C5C5C"/>
</g>
<defs>
<clipPath id="clip0_262_1509">
<rect width="58" height="45" rx="10" fill="white"/>
</clipPath>
</defs>
</svg>
