<svg width="20" height="20" viewBox="0 0 20 20" fill="none" xmlns="http://www.w3.org/2000/svg">
<path d="M11.25 8.125L10.3688 9.00625L11.9812 10.625H6.25V11.875H11.9812L10.3688 13.4938L11.25 14.375L14.375 11.25L11.25 8.125Z" fill="#044177"/>
<path d="M6.9825 3.75L9.11625 5.88375L9.4825 6.25H17.5V16.25H2.5V3.75H6.9825ZM6.9825 2.5H2.5C2.16848 2.5 1.85054 2.6317 1.61612 2.86612C1.3817 3.10054 1.25 3.41848 1.25 3.75V16.25C1.25 16.5815 1.3817 16.8995 1.61612 17.1339C1.85054 17.3683 2.16848 17.5 2.5 17.5H17.5C17.8315 17.5 18.1495 17.3683 18.3839 17.1339C18.6183 16.8995 18.75 16.5815 18.75 16.25V6.25C18.75 5.91848 18.6183 5.60054 18.3839 5.36612C18.1495 5.1317 17.8315 5 17.5 5H10L7.86625 2.86625C7.63188 2.63181 7.31399 2.50007 6.9825 2.5Z" fill="#044177"/>
</svg>
