<svg width="28" height="28" viewBox="0 0 28 28" fill="none" xmlns="http://www.w3.org/2000/svg">
<path d="M24.7188 14H23.1875C23.0672 14 22.9688 14.0984 22.9688 14.2188V22.9688H5.03125V5.03125H13.7812C13.9016 5.03125 14 4.93281 14 4.8125V3.28125C14 3.16094 13.9016 3.0625 13.7812 3.0625H3.9375C3.45352 3.0625 3.0625 3.45352 3.0625 3.9375V24.0625C3.0625 24.5465 3.45352 24.9375 3.9375 24.9375H24.0625C24.5465 24.9375 24.9375 24.5465 24.9375 24.0625V14.2188C24.9375 14.0984 24.8391 14 24.7188 14Z" fill="white"/>
<path d="M9.73167 14.6262L9.67972 17.8773C9.67698 18.1207 9.87386 18.3203 10.1172 18.3203H10.1282L13.3547 18.241C13.4094 18.2383 13.4641 18.2164 13.5024 18.1781L24.8746 6.83047C24.9594 6.7457 24.9594 6.60625 24.8746 6.52148L21.4758 3.12539C21.4321 3.08164 21.3774 3.0625 21.32 3.0625C21.2625 3.0625 21.2078 3.08438 21.1641 3.12539L9.79456 14.473C9.75507 14.5143 9.73261 14.569 9.73167 14.6262ZM11.468 15.2715L21.32 5.44141L22.5559 6.67461L12.6985 16.5102L11.4489 16.5402L11.468 15.2715Z" fill="white"/>
</svg>
