<svg width="28" height="28" viewBox="0 0 28 28" fill="none" xmlns="http://www.w3.org/2000/svg">
<path d="M13.9902 14.8007C14.8175 14.8007 15.6367 14.6377 16.401 14.3212C17.1654 14.0046 17.8599 13.5406 18.4449 12.9556C19.0298 12.3707 19.4939 11.6763 19.8105 10.912C20.1271 10.1477 20.29 9.32857 20.29 8.50132C20.29 7.67408 20.1271 6.85494 19.8105 6.09067C19.4939 5.3264 19.0298 4.63196 18.4449 4.04701C17.8599 3.46206 17.1654 2.99806 16.401 2.68148C15.6367 2.36491 14.8175 2.20197 13.9902 2.20197C12.3194 2.20197 10.717 2.86565 9.53554 4.04701C8.3541 5.22837 7.69037 6.83063 7.69037 8.50132C7.69037 10.172 8.3541 11.7743 9.53554 12.9556C10.717 14.137 12.3194 14.8007 13.9902 14.8007ZM14 4.4592e-07C15.844 -0.000600191 17.637 0.60559 19.1023 1.72504C20.5676 2.84449 21.6238 4.41498 22.1079 6.19421C22.592 7.97343 22.4771 9.86251 21.781 11.57C21.0848 13.2774 19.8461 14.7083 18.2559 15.642C23.419 17.1958 27.2969 21.5466 27.9926 26.95C28.0584 27.4638 27.6762 27.9299 27.1387 27.9929C26.6025 28.0559 26.1125 27.6919 26.0467 27.1782C25.2907 21.3128 20.2102 16.8963 14.049 16.8963C7.85416 16.8963 2.7079 21.3212 1.95332 27.1782C1.88752 27.6919 1.39753 28.0559 0.861346 27.9929C0.32376 27.9299 -0.0584299 27.4638 0.00736835 26.95C0.70175 21.569 4.60065 17.2238 9.77211 15.656C8.17711 14.7266 6.93274 13.2977 6.23138 11.5901C5.53002 9.88263 5.41075 7.99164 5.892 6.20955C6.37325 4.42746 7.42822 2.85352 8.8938 1.7311C10.3594 0.608683 12.1539 0.000292936 14 4.4592e-07Z" fill="white"/>
</svg>
