<svg width="30" height="30" viewBox="0 0 30 30" fill="none" xmlns="http://www.w3.org/2000/svg">
<path d="M27.1523 22.9805L26.1797 19.3594L22.3008 4.86327C22.1855 4.44328 21.9091 4.08579 21.5316 3.86853C21.1542 3.65128 20.7062 3.59183 20.2852 3.70311L16.6641 4.67577C16.5736 4.69867 16.4868 4.73418 16.4062 4.78124C16.2606 4.53832 16.0545 4.33725 15.8081 4.1976C15.5616 4.05796 15.2832 3.9845 15 3.98436H11.25C10.9147 3.98246 10.5871 4.08484 10.3125 4.27733C10.0379 4.08484 9.71032 3.98246 9.375 3.98436H5.625C5.18988 3.98436 4.77258 4.15721 4.4649 4.46489C4.15723 4.77257 3.98438 5.18986 3.98438 5.62499V24.375C3.98438 24.8101 4.15723 25.2274 4.4649 25.5351C4.77258 25.8428 5.18988 26.0156 5.625 26.0156H9.375C9.71032 26.0175 10.0379 25.9151 10.3125 25.7226C10.5871 25.9151 10.9147 26.0175 11.25 26.0156H15C15.4351 26.0156 15.8524 25.8428 16.1601 25.5351C16.4678 25.2274 16.6406 24.8101 16.6406 24.375V10.9219L20.3555 24.7969C20.4506 25.1467 20.6582 25.4556 20.9462 25.6758C21.2342 25.8961 21.5867 26.0155 21.9492 26.0156C22.0917 26.0134 22.2334 25.9937 22.3711 25.957L25.9922 24.9844C26.4113 24.8717 26.7687 24.5976 26.9861 24.222C27.2035 23.8464 27.2633 23.4 27.1523 22.9805ZM18.0117 10.6289L22.0898 9.53905L24.6445 19.043L20.5664 20.1328L18.0117 10.6289ZM16.8867 6.15233C16.9168 6.09664 16.9671 6.05467 17.0273 6.03514L20.6484 5.06249H20.707C20.7579 5.06363 20.8074 5.07983 20.8491 5.10902C20.8908 5.13822 20.9229 5.17911 20.9414 5.22655L21.7266 8.17967L17.6484 9.26952L16.8633 6.32811C16.849 6.26864 16.8573 6.20597 16.8867 6.15233ZM11.25 5.39061H15C15.0622 5.39061 15.1218 5.4153 15.1657 5.45926C15.2097 5.50321 15.2344 5.56283 15.2344 5.62499V19.9219H11.0156V5.62499C11.0156 5.56283 11.0403 5.50321 11.0843 5.45926C11.1282 5.4153 11.1878 5.39061 11.25 5.39061ZM5.625 5.39061H9.375C9.43716 5.39061 9.49677 5.4153 9.54073 5.45926C9.58468 5.50321 9.60938 5.56283 9.60938 5.62499V8.67186H5.39062V5.62499C5.39062 5.56283 5.41532 5.50321 5.45927 5.45926C5.50323 5.4153 5.56284 5.39061 5.625 5.39061ZM9.375 24.6094H5.625C5.56284 24.6094 5.50323 24.5847 5.45927 24.5407C5.41532 24.4968 5.39062 24.4371 5.39062 24.375V10.0781H9.60938V24.375C9.60938 24.4371 9.58468 24.4968 9.54073 24.5407C9.49677 24.5847 9.43716 24.6094 9.375 24.6094ZM15 24.6094H11.25C11.1878 24.6094 11.1282 24.5847 11.0843 24.5407C11.0403 24.4968 11.0156 24.4371 11.0156 24.375V21.3281H15.2344V24.375C15.2344 24.4371 15.2097 24.4968 15.1657 24.5407C15.1218 24.5847 15.0622 24.6094 15 24.6094ZM25.6289 23.625L22.0078 24.5976C21.9778 24.6065 21.9463 24.6093 21.9152 24.6058C21.8841 24.6024 21.854 24.5927 21.8267 24.5774C21.7994 24.5621 21.7754 24.5415 21.7562 24.5168C21.737 24.4921 21.7229 24.4638 21.7148 24.4336L20.9297 21.4922L25.0078 20.4023L25.793 23.3437C25.8018 23.373 25.8044 23.4037 25.8008 23.434C25.7972 23.4644 25.7875 23.4936 25.7721 23.52C25.7567 23.5464 25.736 23.5693 25.7114 23.5874C25.6868 23.6054 25.6587 23.6182 25.6289 23.625Z" fill="white"/>
</svg>
