<svg width="100" height="100" viewBox="0 0 100 100" fill="none" xmlns="http://www.w3.org/2000/svg">
<path d="M90.5078 76.6016L87.2656 64.5312L74.3359 16.2109C73.9517 14.811 73.0303 13.6193 71.7721 12.8952C70.5139 12.171 69.0207 11.9728 67.6172 12.3437L55.5469 15.5859C55.2454 15.6623 54.9561 15.7806 54.6875 15.9375C54.2019 15.1278 53.515 14.4575 52.6936 13.9921C51.8721 13.5266 50.9442 13.2817 50 13.2812H37.5C36.3823 13.2749 35.2902 13.6162 34.375 14.2578C33.4598 13.6162 32.3677 13.2749 31.25 13.2812H18.75C17.2996 13.2812 15.9086 13.8574 14.883 14.883C13.8574 15.9086 13.2812 17.2996 13.2812 18.75V81.25C13.2812 82.7004 13.8574 84.0914 14.883 85.117C15.9086 86.1426 17.2996 86.7188 18.75 86.7188H31.25C32.3677 86.7251 33.4598 86.3838 34.375 85.7422C35.2902 86.3838 36.3823 86.7251 37.5 86.7188H50C51.4504 86.7188 52.8414 86.1426 53.867 85.117C54.8926 84.0914 55.4687 82.7004 55.4687 81.25V36.4062L67.8516 82.6562C68.1687 83.8225 68.8606 84.852 69.8206 85.5861C70.7807 86.3202 71.9555 86.7182 73.1641 86.7188C73.639 86.7113 74.1113 86.6457 74.5703 86.5234L86.6406 83.2812C88.0376 82.9057 89.2289 81.992 89.9537 80.74C90.6785 79.4881 90.8777 78.0001 90.5078 76.6016ZM60.0391 35.4297L73.6328 31.7969L82.1484 63.4766L68.5547 67.1094L60.0391 35.4297ZM56.2891 20.5078C56.3893 20.3222 56.5571 20.1823 56.7578 20.1172L68.8281 16.875H69.0234C69.1931 16.8788 69.3578 16.9328 69.4969 17.0301C69.6359 17.1274 69.743 17.2638 69.8047 17.4219L72.4219 27.2656L58.8281 30.8984L56.2109 21.0937C56.1632 20.8955 56.1911 20.6866 56.2891 20.5078ZM37.5 17.9687H50C50.2072 17.9687 50.4059 18.0511 50.5524 18.1976C50.6989 18.3441 50.7812 18.5428 50.7812 18.75V66.4062H36.7187V18.75C36.7187 18.5428 36.8011 18.3441 36.9476 18.1976C37.0941 18.0511 37.2928 17.9687 37.5 17.9687ZM18.75 17.9687H31.25C31.4572 17.9687 31.6559 18.0511 31.8024 18.1976C31.9489 18.3441 32.0312 18.5428 32.0312 18.75V28.9062H17.9687V18.75C17.9687 18.5428 18.0511 18.3441 18.1976 18.1976C18.3441 18.0511 18.5428 17.9687 18.75 17.9687ZM31.25 82.0312H18.75C18.5428 82.0312 18.3441 81.9489 18.1976 81.8024C18.0511 81.6559 17.9687 81.4572 17.9687 81.25V33.5937H32.0312V81.25C32.0312 81.4572 31.9489 81.6559 31.8024 81.8024C31.6559 81.9489 31.4572 82.0312 31.25 82.0312ZM50 82.0312H37.5C37.2928 82.0312 37.0941 81.9489 36.9476 81.8024C36.8011 81.6559 36.7187 81.4572 36.7187 81.25V71.0937H50.7812V81.25C50.7812 81.4572 50.6989 81.6559 50.5524 81.8024C50.4059 81.9489 50.2072 82.0312 50 82.0312ZM85.4297 78.75L73.3594 81.9922C73.2593 82.0218 73.1544 82.0311 73.0507 82.0195C72.9471 82.008 72.8467 81.9757 72.7557 81.9248C72.6647 81.8738 72.5848 81.8051 72.5208 81.7228C72.4567 81.6404 72.4098 81.5461 72.3828 81.4453L69.7656 71.6406L83.3594 68.0078L85.9766 77.8125C86.0059 77.91 86.0148 78.0125 86.0028 78.1135C85.9908 78.2146 85.9582 78.3122 85.9069 78.4001C85.8556 78.488 85.7867 78.5645 85.7047 78.6247C85.6226 78.6849 85.529 78.7275 85.4297 78.75Z" fill="#05204A"/>
</svg>
