<svg width="24" height="32" viewBox="0 0 24 32" fill="none" xmlns="http://www.w3.org/2000/svg">
<path d="M11.3839 30.9282C9.74582 28.5535 8.3534 26.5699 7.17008 24.8843C5.05547 21.872 3.60859 19.8108 2.62067 18.1682C1.85975 16.9029 1.39944 15.9298 1.1244 15.001C0.851061 14.078 0.75 13.1627 0.75 12C0.75 5.78677 5.78678 0.75 12 0.75C18.2132 0.75 23.25 5.78677 23.25 12C23.25 13.1627 23.1489 14.078 22.8756 15.001C22.6006 15.9298 22.1402 16.9029 21.3793 18.1682C20.3914 19.8108 18.9445 21.872 16.8299 24.8843C15.6466 26.5699 14.2543 28.5533 12.6163 30.928C12.3186 31.3573 11.6817 31.3573 11.3839 30.9282ZM12 17.75C15.1757 17.75 17.75 15.1756 17.75 12C17.75 8.82435 15.1757 6.25 12 6.25C8.82435 6.25 6.25 8.82435 6.25 12C6.25 15.1756 8.82435 17.75 12 17.75Z" stroke="black" stroke-width="1.5"/>
</svg>
