<svg width="24" height="16" viewBox="0 0 24 16" fill="none" xmlns="http://www.w3.org/2000/svg">
<path d="M16.7337 10.6507C20.5336 8.19694 22.1954 7.10551 23.25 6.39316V14C23.25 14.6093 22.6635 15.25 21.75 15.25H2.25C1.33654 15.25 0.75 14.6093 0.75 14V6.39653C1.80621 7.10806 3.47117 8.19697 7.2706 10.6505C7.39393 10.7305 7.54243 10.8323 7.70963 10.9469C8.1296 11.2348 8.66759 11.6035 9.22127 11.9116C10.0092 12.35 10.9768 12.758 11.9991 12.7542C13.0284 12.7606 14.008 12.3449 14.7993 11.9034C15.3549 11.5935 15.8944 11.2228 16.3072 10.9392C16.4719 10.826 16.6164 10.7267 16.7337 10.6507ZM12.0115 9.91675L12 9.91658L11.9885 9.91675C11.6755 9.92155 11.1747 9.72524 10.5487 9.35535C10.1536 9.12184 9.80891 8.88453 9.49104 8.66568C9.30874 8.54016 9.13526 8.42072 8.96612 8.31154L8.96593 8.31142C3.20978 4.59833 2.38437 4.02411 1.16232 3.17397C1.06549 3.10661 0.966181 3.03752 0.861728 2.965C0.767977 2.89825 0.75 2.82949 0.75 2.79167V2C0.75 1.39065 1.33654 0.75 2.25 0.75H21.75C22.6635 0.75 23.25 1.39065 23.25 2V2.79167C23.25 2.83426 23.2281 2.90301 23.1429 2.96175L23.1398 2.96393C23.0584 3.02067 22.9802 3.0753 22.9038 3.12861C21.6442 4.00785 20.8958 4.53024 15.0341 8.31142L15.0339 8.31154C14.8647 8.42072 14.6913 8.54016 14.509 8.66568C14.1911 8.88453 13.8464 9.12184 13.4513 9.35535C12.8253 9.72524 12.3245 9.92155 12.0115 9.91675Z" stroke="black" stroke-width="1.5"/>
</svg>
