<svg width="24" height="24" viewBox="0 0 24 24" fill="none" xmlns="http://www.w3.org/2000/svg">
<path d="M17.7714 15.3992L23.0164 17.647C23.0169 17.6472 23.0173 17.6474 23.0178 17.6476C23.1 17.6838 23.1672 17.7473 23.2079 17.8275C23.2486 17.9076 23.2602 17.9994 23.2409 18.0871C23.2408 18.0876 23.2407 18.0881 23.2405 18.0886L22.1165 22.9594C22.0974 23.042 22.0509 23.1158 21.9845 23.1686C21.918 23.2213 21.8357 23.2501 21.7509 23.25H21.7504C10.1593 23.25 0.75 13.8586 0.75 2.24961L0.75 2.24945C0.749981 2.16464 0.778709 2.08233 0.831494 2.01595C0.884257 1.9496 0.957943 1.90308 1.04053 1.88398C1.04057 1.88397 1.04061 1.88397 1.04064 1.88396L5.91321 0.759515C5.9135 0.759448 5.9138 0.759381 5.91409 0.759315C6.00067 0.739853 6.09133 0.751095 6.17054 0.791133C6.24949 0.831039 6.31215 0.897064 6.34789 0.977946L8.5967 6.22518C8.59671 6.22521 8.59673 6.22524 8.59674 6.22528C8.62856 6.29961 8.63531 6.38229 8.61596 6.46081C8.5966 6.53936 8.55218 6.60946 8.48942 6.66051L8.48762 6.66198L5.64695 8.98702L5.19396 9.35778L5.4436 9.88725C7.2383 13.6937 10.3016 16.757 14.1081 18.5517L14.6375 18.8013L15.0083 18.3484L17.3333 15.5077L17.3339 15.507C17.3853 15.444 17.4558 15.3995 17.5347 15.38C17.6134 15.3606 17.6963 15.3673 17.771 15.399C17.7711 15.399 17.7713 15.3991 17.7714 15.3992Z" stroke="black" stroke-width="1.5"/>
</svg>
