<svg width="76" height="16" viewBox="0 0 76 16" fill="none" xmlns="http://www.w3.org/2000/svg">
<path fill-rule="evenodd" clip-rule="evenodd" d="M68.0007 0C65.8281 0 65.5554 0.0095 64.702 0.0483333C63.8504 0.0873333 63.269 0.222167 62.7604 0.42C62.2342 0.624333 61.7879 0.897667 61.3432 1.3425C60.8982 1.78717 60.6248 2.2335 60.4198 2.7595C60.2215 3.26833 60.0865 3.84983 60.0482 4.70117C60.01 5.5545 60 5.82733 60 8C60 10.1727 60.0097 10.4445 60.0483 11.2978C60.0875 12.1495 60.2223 12.7308 60.42 13.2395C60.6245 13.7657 60.8978 14.212 61.3427 14.6567C61.7872 15.1017 62.2335 15.3757 62.7594 15.58C63.2684 15.7778 63.8499 15.9127 64.7014 15.9517C65.5547 15.9905 65.8272 16 67.9998 16C70.1726 16 70.4444 15.9905 71.2978 15.9517C72.1495 15.9127 72.7315 15.7778 73.2405 15.58C73.7665 15.3757 74.2121 15.1017 74.6567 14.6567C75.1017 14.212 75.375 13.7657 75.58 13.2397C75.7767 12.7308 75.9117 12.1493 75.9517 11.298C75.99 10.4447 76 10.1727 76 8C76 5.82733 75.99 5.55467 75.9517 4.70133C75.9117 3.84967 75.7767 3.26833 75.58 2.75967C75.375 2.2335 75.1017 1.78717 74.6567 1.3425C74.2116 0.8975 73.7666 0.624167 73.24 0.42C72.73 0.222167 72.1483 0.0873333 71.2966 0.0483333C70.4433 0.0095 70.1716 0 67.9983 0H68.0007ZM67.2826 1.44164C67.4956 1.4413 67.7333 1.44164 68.0003 1.44164C70.1363 1.44164 70.3895 1.4493 71.233 1.48764C72.013 1.5233 72.4363 1.65364 72.7183 1.76314C73.0917 1.90814 73.3579 2.08147 73.6377 2.36147C73.9177 2.64147 74.091 2.90814 74.2364 3.28147C74.3459 3.56314 74.4764 3.98647 74.5119 4.76647C74.5502 5.6098 74.5585 5.86314 74.5585 7.99814C74.5585 10.1331 74.5502 10.3865 74.5119 11.2298C74.4762 12.0098 74.3459 12.4331 74.2364 12.7148C74.0914 13.0881 73.9177 13.354 73.6377 13.6338C73.3577 13.9138 73.0918 14.0871 72.7183 14.2321C72.4367 14.3421 72.013 14.4721 71.233 14.5078C70.3897 14.5461 70.1363 14.5545 68.0003 14.5545C65.8641 14.5545 65.6109 14.5461 64.7676 14.5078C63.9876 14.4718 63.5642 14.3415 63.2821 14.232C62.9087 14.087 62.6421 13.9136 62.3621 13.6336C62.0821 13.3536 61.9087 13.0876 61.7634 12.7141C61.6539 12.4325 61.5234 12.0091 61.4879 11.2291C61.4496 10.3858 61.4419 10.1325 61.4419 7.99614C61.4419 5.8598 61.4496 5.6078 61.4879 4.76447C61.5236 3.98447 61.6539 3.56114 61.7634 3.27914C61.9084 2.9058 62.0821 2.63914 62.3621 2.35914C62.6421 2.07914 62.9087 1.9058 63.2821 1.76047C63.5641 1.65047 63.9876 1.52047 64.7676 1.48464C65.5056 1.4513 65.7916 1.4413 67.2826 1.43964V1.44164ZM72.2701 2.76999C71.7401 2.76999 71.3101 3.19949 71.3101 3.72965C71.3101 4.25965 71.7401 4.68965 72.2701 4.68965C72.8001 4.68965 73.2301 4.25965 73.2301 3.72965C73.2301 3.19965 72.8001 2.76965 72.2701 2.76965V2.76999ZM68 3.89166C65.7311 3.89166 63.8916 5.73116 63.8916 8C63.8916 10.2688 65.7311 12.1075 68 12.1075C70.2688 12.1075 72.1077 10.2688 72.1077 8C72.1077 5.73116 70.2687 3.89166 67.9998 3.89166H68ZM68.0002 5.33331C69.4729 5.33331 70.6669 6.52715 70.6669 7.99998C70.6669 9.47265 69.4729 10.6666 68.0002 10.6666C66.5273 10.6666 65.3335 9.47265 65.3335 7.99998C65.3335 6.52715 66.5273 5.33331 68.0002 5.33331Z" fill="#151515"/>
<path fill-rule="evenodd" clip-rule="evenodd" d="M33.7111 4.25625L33.7545 4.9483L33.0319 4.86356C30.4018 4.53872 28.1041 3.4371 26.1532 1.58693L25.1994 0.668915L24.9538 1.34684C24.4335 2.85804 24.7659 4.45398 25.8497 5.52735C26.4278 6.12054 26.2977 6.20528 25.3006 5.85219C24.9538 5.7392 24.6503 5.65446 24.6214 5.69683C24.5202 5.7957 24.8671 7.08092 25.1416 7.58937C25.5174 8.29553 26.2833 8.98758 27.1214 9.39716L27.8295 9.72199L26.9914 9.73612C26.1821 9.73612 26.1532 9.75024 26.2399 10.0468C26.5289 10.9649 27.6706 11.9394 28.9423 12.3631L29.8382 12.6597L29.0579 13.1116C27.9018 13.7613 26.5434 14.1285 25.185 14.1567C24.5347 14.1709 24 14.2273 24 14.2697C24 14.411 25.763 15.2019 26.7891 15.5126C29.8671 16.4306 33.5233 16.0351 36.269 14.4674C38.2199 13.3517 40.1708 11.1343 41.0812 8.98758C41.5725 7.84359 42.0639 5.75333 42.0639 4.75057C42.0639 4.10089 42.1072 4.01615 42.9165 3.23937C43.3934 2.78742 43.8414 2.2931 43.9281 2.15187C44.0726 1.88352 44.0581 1.88352 43.3211 2.12362C42.0928 2.54732 41.9194 2.49083 42.5263 1.85528C42.9743 1.40333 43.509 0.584174 43.509 0.344077C43.509 0.301707 43.2922 0.372324 43.0466 0.499434C42.7864 0.640668 42.2084 0.852518 41.7749 0.979629L40.9945 1.21973L40.2864 0.753655C39.8962 0.499434 39.3471 0.216967 39.058 0.132227C38.321 -0.0655006 37.1939 -0.0372539 36.5291 0.18872C34.7227 0.824272 33.5811 2.46258 33.7111 4.25625Z" fill="#151515"/>
<path fill-rule="evenodd" clip-rule="evenodd" d="M5.31965 16V7.99906H7.68636L8 5.2419H5.31965L5.32367 3.86191C5.32367 3.1428 5.39689 2.75748 6.50368 2.75748H7.98325V0H5.6162C2.773 0 1.77227 1.33752 1.77227 3.58682V5.24221H0V7.99938H1.77227V16H5.31965Z" fill="#151515"/>
</svg>
