<svg width="16" height="13" viewBox="0 0 16 13" fill="none" xmlns="http://www.w3.org/2000/svg">
<path d="M13.574 3.11239L13.5833 3.51989C13.5833 7.68107 10.4917 12.4751 4.83752 12.4751C3.10211 12.4751 1.48683 11.9542 0.125977 11.0609C0.366338 11.0896 0.611321 11.1056 0.859486 11.1056C2.29996 11.1056 3.62493 10.6022 4.67678 9.75846C3.33154 9.73291 2.19693 8.82203 1.80522 7.57242C1.99404 7.60916 2.18445 7.62677 2.38421 7.62677C2.66513 7.62677 2.93665 7.59003 3.19416 7.51811C1.78803 7.22726 0.72837 5.95688 0.72837 4.43239V4.39244C1.14348 4.62894 1.61635 4.76956 2.12044 4.78717C1.29642 4.22307 0.75332 3.25947 0.75332 2.16803C0.75332 1.59116 0.904714 1.05104 1.16843 0.586033C2.68381 2.49084 4.94985 3.74366 7.5046 3.87471C7.45152 3.64458 7.42503 3.40329 7.42503 3.15723C7.42503 1.42021 8.80149 0.0107422 10.4995 0.0107422C11.3828 0.0107422 12.1819 0.39264 12.7436 1.00467C13.4428 0.862429 14.1014 0.600383 14.696 0.240827C14.4666 0.97592 13.9797 1.59274 13.3445 1.98263C13.9641 1.90751 14.5587 1.73651 15.1096 1.48724C14.6976 2.11683 14.1748 2.67136 13.574 3.11239Z" fill="#E3E3E3"/>
</svg>
