<svg width="8" height="8" viewBox="0 0 8 8" fill="none" xmlns="http://www.w3.org/2000/svg">
<path d="M7.25 0H0.75C0.335938 0 0 0.383929 0 0.857143V7.14286C0 7.61607 0.335938 8 0.75 8H7.25C7.66406 8 8 7.61607 8 7.14286V0.857143C8 0.383929 7.66406 0 7.25 0ZM5.94375 5.1875C6.01875 5.27321 6.01875 5.4125 5.94375 5.49821L5.31094 6.22143C5.23594 6.30714 5.11406 6.30714 5.03906 6.22143L4 5.02321L2.96094 6.22143C2.88594 6.30714 2.76406 6.30714 2.68906 6.22143L2.05625 5.49821C1.98125 5.4125 1.98125 5.27321 2.05625 5.1875L3.10469 4L2.05625 2.8125C1.98125 2.72679 1.98125 2.5875 2.05625 2.50179L2.68906 1.77857C2.76406 1.69286 2.88594 1.69286 2.96094 1.77857L4 2.97679L5.03906 1.77857C5.11406 1.69286 5.23594 1.69286 5.31094 1.77857L5.94375 2.50179C6.01875 2.5875 6.01875 2.72679 5.94375 2.8125L4.89531 4L5.94375 5.1875Z" fill="#151515"/>
</svg>
