<svg width="336" height="184" viewBox="0 0 336 184" fill="none" xmlns="http://www.w3.org/2000/svg">
<rect width="336" height="184" rx="20" fill="url(#paint0_linear_171_27)"/>
<g filter="url(#filter0_b_171_27)">
<rect width="336" height="184" rx="20" fill="white" fill-opacity="0.03"/>
</g>
<path fill-rule="evenodd" clip-rule="evenodd" d="M45.1135 0H20C8.95431 0 0 8.9543 0 20V164C0 175.046 8.95431 184 20 184H316C326.019 184 334.317 176.633 335.773 167.02C333.988 114.774 283.152 42.2299 45.1135 0Z" fill="white" fill-opacity="0.06"/>
<path d="M180.8 151.024C180.085 151.024 179.579 150.864 179.28 150.544C178.992 150.224 178.848 149.829 178.848 149.36V148.912C178.848 148.443 178.992 148.048 179.28 147.728C179.579 147.408 180.085 147.248 180.8 147.248C181.515 147.248 182.016 147.408 182.304 147.728C182.603 148.048 182.752 148.443 182.752 148.912V149.36C182.752 149.829 182.603 150.224 182.304 150.544C182.016 150.864 181.515 151.024 180.8 151.024ZM190.394 151.024C189.679 151.024 189.172 150.864 188.874 150.544C188.586 150.224 188.442 149.829 188.442 149.36V148.912C188.442 148.443 188.586 148.048 188.874 147.728C189.172 147.408 189.679 147.248 190.394 147.248C191.108 147.248 191.61 147.408 191.898 147.728C192.196 148.048 192.346 148.443 192.346 148.912V149.36C192.346 149.829 192.196 150.224 191.898 150.544C191.61 150.864 191.108 151.024 190.394 151.024ZM196.628 156.208L202.196 141.84H203.348L197.78 156.208H196.628ZM209.581 151.024C208.867 151.024 208.36 150.864 208.061 150.544C207.773 150.224 207.629 149.829 207.629 149.36V148.912C207.629 148.443 207.773 148.048 208.061 147.728C208.36 147.408 208.867 147.248 209.581 147.248C210.296 147.248 210.797 147.408 211.085 147.728C211.384 148.048 211.533 148.443 211.533 148.912V149.36C211.533 149.829 211.384 150.224 211.085 150.544C210.797 150.864 210.296 151.024 209.581 151.024ZM219.175 151.024C218.46 151.024 217.954 150.864 217.655 150.544C217.367 150.224 217.223 149.829 217.223 149.36V148.912C217.223 148.443 217.367 148.048 217.655 147.728C217.954 147.408 218.46 147.248 219.175 147.248C219.89 147.248 220.391 147.408 220.679 147.728C220.978 148.048 221.127 148.443 221.127 148.912V149.36C221.127 149.829 220.978 150.224 220.679 150.544C220.391 150.864 219.89 151.024 219.175 151.024ZM228.769 151.024C228.054 151.024 227.547 150.864 227.249 150.544C226.961 150.224 226.817 149.829 226.817 149.36V148.912C226.817 148.443 226.961 148.048 227.249 147.728C227.547 147.408 228.054 147.248 228.769 147.248C229.483 147.248 229.985 147.408 230.273 147.728C230.571 148.048 230.721 148.443 230.721 148.912V149.36C230.721 149.829 230.571 150.224 230.273 150.544C229.985 150.864 229.483 151.024 228.769 151.024ZM238.363 151.024C237.648 151.024 237.141 150.864 236.843 150.544C236.555 150.224 236.411 149.829 236.411 149.36V148.912C236.411 148.443 236.555 148.048 236.843 147.728C237.141 147.408 237.648 147.248 238.363 147.248C239.077 147.248 239.579 147.408 239.867 147.728C240.165 148.048 240.315 148.443 240.315 148.912V149.36C240.315 149.829 240.165 150.224 239.867 150.544C239.579 150.864 239.077 151.024 238.363 151.024Z" fill="white"/>
<path d="M26.608 144.544H26.496V154H25.28V142.832H27.184L30.992 152.192H31.104V142.832H32.32V154H30.416L26.608 144.544ZM38.3938 154.192C37.7111 154.192 37.1244 154.064 36.6338 153.808C36.1431 153.541 35.7378 153.163 35.4178 152.672C35.0978 152.181 34.8631 151.579 34.7138 150.864C34.5644 150.149 34.4898 149.333 34.4898 148.416C34.4898 147.509 34.5644 146.699 34.7138 145.984C34.8631 145.259 35.0978 144.651 35.4178 144.16C35.7378 143.669 36.1431 143.296 36.6338 143.04C37.1244 142.773 37.7111 142.64 38.3938 142.64C39.0764 142.64 39.6631 142.773 40.1538 143.04C40.6444 143.296 41.0498 143.669 41.3698 144.16C41.6898 144.651 41.9244 145.259 42.0738 145.984C42.2231 146.699 42.2978 147.509 42.2978 148.416C42.2978 149.333 42.2231 150.149 42.0738 150.864C41.9244 151.579 41.6898 152.181 41.3698 152.672C41.0498 153.163 40.6444 153.541 40.1538 153.808C39.6631 154.064 39.0764 154.192 38.3938 154.192ZM38.3938 153.024C38.8418 153.024 39.2204 152.939 39.5298 152.768C39.8391 152.587 40.0951 152.336 40.2978 152.016C40.5004 151.696 40.6444 151.312 40.7298 150.864C40.8258 150.405 40.8738 149.893 40.8738 149.328V147.504C40.8738 146.949 40.8258 146.443 40.7298 145.984C40.6444 145.525 40.5004 145.136 40.2978 144.816C40.0951 144.496 39.8391 144.251 39.5298 144.08C39.2204 143.899 38.8418 143.808 38.3938 143.808C37.9458 143.808 37.5671 143.899 37.2578 144.08C36.9484 144.251 36.6924 144.496 36.4898 144.816C36.2871 145.136 36.1378 145.525 36.0418 145.984C35.9564 146.443 35.9138 146.949 35.9138 147.504V149.328C35.9138 149.893 35.9564 150.405 36.0418 150.864C36.1378 151.312 36.2871 151.696 36.4898 152.016C36.6924 152.336 36.9484 152.587 37.2578 152.768C37.5671 152.939 37.9458 153.024 38.3938 153.024ZM50.4675 148.4V144.864H50.3395L47.9875 150.608L45.6355 144.864H45.5075V148.4V154H44.2755V142.832H46.0035L47.9715 147.76H48.0675L50.0355 142.832H51.6995V154H50.4675V148.4ZM54.2213 154V142.832H61.1013V144H55.5653V147.76H60.9093V148.928H55.5653V152.832H61.1013V154H54.2213ZM77.1368 154.192C75.7714 154.192 74.7528 153.696 74.0807 152.704C73.4194 151.712 73.0888 150.283 73.0888 148.416C73.0888 146.549 73.4194 145.12 74.0807 144.128C74.7528 143.136 75.7714 142.64 77.1368 142.64C77.6488 142.64 78.0914 142.709 78.4648 142.848C78.8381 142.987 79.1581 143.173 79.4248 143.408C79.6914 143.643 79.9154 143.909 80.0968 144.208C80.2781 144.496 80.4381 144.789 80.5768 145.088L79.4248 145.616C79.3288 145.371 79.2168 145.141 79.0888 144.928C78.9608 144.704 78.8061 144.512 78.6248 144.352C78.4541 144.181 78.2461 144.048 78.0008 143.952C77.7661 143.856 77.4781 143.808 77.1368 143.808C76.2514 143.808 75.5901 144.144 75.1528 144.816C74.7261 145.488 74.5128 146.384 74.5128 147.504V149.328C74.5128 150.448 74.7261 151.344 75.1528 152.016C75.5901 152.688 76.2514 153.024 77.1368 153.024C77.4781 153.024 77.7661 152.976 78.0008 152.88C78.2461 152.784 78.4541 152.656 78.6248 152.496C78.8061 152.325 78.9608 152.133 79.0888 151.92C79.2168 151.696 79.3288 151.461 79.4248 151.216L80.5768 151.744C80.4381 152.053 80.2781 152.352 80.0968 152.64C79.9154 152.928 79.6914 153.189 79.4248 153.424C79.1581 153.659 78.8381 153.845 78.4648 153.984C78.0914 154.123 77.6488 154.192 77.1368 154.192ZM86.3625 154.192C85.6798 154.192 85.0932 154.064 84.6025 153.808C84.1118 153.541 83.7065 153.163 83.3865 152.672C83.0665 152.181 82.8318 151.579 82.6825 150.864C82.5332 150.149 82.4585 149.333 82.4585 148.416C82.4585 147.509 82.5332 146.699 82.6825 145.984C82.8318 145.259 83.0665 144.651 83.3865 144.16C83.7065 143.669 84.1118 143.296 84.6025 143.04C85.0932 142.773 85.6798 142.64 86.3625 142.64C87.0452 142.64 87.6318 142.773 88.1225 143.04C88.6132 143.296 89.0185 143.669 89.3385 144.16C89.6585 144.651 89.8932 145.259 90.0425 145.984C90.1918 146.699 90.2665 147.509 90.2665 148.416C90.2665 149.333 90.1918 150.149 90.0425 150.864C89.8932 151.579 89.6585 152.181 89.3385 152.672C89.0185 153.163 88.6132 153.541 88.1225 153.808C87.6318 154.064 87.0452 154.192 86.3625 154.192ZM86.3625 153.024C86.8105 153.024 87.1892 152.939 87.4985 152.768C87.8078 152.587 88.0638 152.336 88.2665 152.016C88.4692 151.696 88.6132 151.312 88.6985 150.864C88.7945 150.405 88.8425 149.893 88.8425 149.328V147.504C88.8425 146.949 88.7945 146.443 88.6985 145.984C88.6132 145.525 88.4692 145.136 88.2665 144.816C88.0638 144.496 87.8078 144.251 87.4985 144.08C87.1892 143.899 86.8105 143.808 86.3625 143.808C85.9145 143.808 85.5358 143.899 85.2265 144.08C84.9172 144.251 84.6612 144.496 84.4585 144.816C84.2558 145.136 84.1065 145.525 84.0105 145.984C83.9252 146.443 83.8825 146.949 83.8825 147.504V149.328C83.8825 149.893 83.9252 150.405 84.0105 150.864C84.1065 151.312 84.2558 151.696 84.4585 152.016C84.6612 152.336 84.9172 152.587 85.2265 152.768C85.5358 152.939 85.9145 153.024 86.3625 153.024ZM98.4363 148.4V144.864H98.3083L95.9563 150.608L93.6043 144.864H93.4763V148.4V154H92.2443V142.832H93.9723L95.9403 147.76H96.0363L98.0043 142.832H99.6683V154H98.4363V148.4ZM102.19 154V142.832H106.254C107.289 142.832 108.078 143.115 108.622 143.68C109.166 144.245 109.438 145.035 109.438 146.048C109.438 147.061 109.166 147.851 108.622 148.416C108.078 148.981 107.289 149.264 106.254 149.264H103.534V154H102.19ZM103.534 148.096H106.222C106.787 148.096 107.225 147.957 107.534 147.68C107.854 147.392 108.014 146.987 108.014 146.464V145.632C108.014 145.109 107.854 144.709 107.534 144.432C107.225 144.144 106.787 144 106.222 144H103.534V148.096ZM112.264 154V142.832H113.608V152.832H118.904V154H112.264ZM121.378 154V142.832H128.258V144H122.722V147.76H128.066V148.928H122.722V152.832H128.258V154H121.378ZM135.003 144V154H133.659V144H129.931V142.832H138.731V144H135.003ZM143.925 154.192C143.242 154.192 142.656 154.064 142.165 153.808C141.674 153.541 141.269 153.163 140.949 152.672C140.629 152.181 140.394 151.579 140.245 150.864C140.096 150.149 140.021 149.333 140.021 148.416C140.021 147.509 140.096 146.699 140.245 145.984C140.394 145.259 140.629 144.651 140.949 144.16C141.269 143.669 141.674 143.296 142.165 143.04C142.656 142.773 143.242 142.64 143.925 142.64C144.608 142.64 145.194 142.773 145.685 143.04C146.176 143.296 146.581 143.669 146.901 144.16C147.221 144.651 147.456 145.259 147.605 145.984C147.754 146.699 147.829 147.509 147.829 148.416C147.829 149.333 147.754 150.149 147.605 150.864C147.456 151.579 147.221 152.181 146.901 152.672C146.581 153.163 146.176 153.541 145.685 153.808C145.194 154.064 144.608 154.192 143.925 154.192ZM143.925 153.024C144.373 153.024 144.752 152.939 145.061 152.768C145.37 152.587 145.626 152.336 145.829 152.016C146.032 151.696 146.176 151.312 146.261 150.864C146.357 150.405 146.405 149.893 146.405 149.328V147.504C146.405 146.949 146.357 146.443 146.261 145.984C146.176 145.525 146.032 145.136 145.829 144.816C145.626 144.496 145.37 144.251 145.061 144.08C144.752 143.899 144.373 143.808 143.925 143.808C143.477 143.808 143.098 143.899 142.789 144.08C142.48 144.251 142.224 144.496 142.021 144.816C141.818 145.136 141.669 145.525 141.573 145.984C141.488 146.443 141.445 146.949 141.445 147.504V149.328C141.445 149.893 141.488 150.405 141.573 150.864C141.669 151.312 141.818 151.696 142.021 152.016C142.224 152.336 142.48 152.587 142.789 152.768C143.098 152.939 143.477 153.024 143.925 153.024Z" fill="white"/>
<path d="M28.8 95.024C28.0853 95.024 27.5787 94.864 27.28 94.544C26.992 94.224 26.848 93.8293 26.848 93.36V92.912C26.848 92.4427 26.992 92.048 27.28 91.728C27.5787 91.408 28.0853 91.248 28.8 91.248C29.5147 91.248 30.016 91.408 30.304 91.728C30.6027 92.048 30.752 92.4427 30.752 92.912V93.36C30.752 93.8293 30.6027 94.224 30.304 94.544C30.016 94.864 29.5147 95.024 28.8 95.024ZM38.3938 95.024C37.6791 95.024 37.1724 94.864 36.8738 94.544C36.5858 94.224 36.4418 93.8293 36.4418 93.36V92.912C36.4418 92.4427 36.5858 92.048 36.8738 91.728C37.1724 91.408 37.6791 91.248 38.3938 91.248C39.1084 91.248 39.6098 91.408 39.8978 91.728C40.1964 92.048 40.3458 92.4427 40.3458 92.912V93.36C40.3458 93.8293 40.1964 94.224 39.8978 94.544C39.6098 94.864 39.1084 95.024 38.3938 95.024ZM47.9875 95.024C47.2728 95.024 46.7662 94.864 46.4675 94.544C46.1795 94.224 46.0355 93.8293 46.0355 93.36V92.912C46.0355 92.4427 46.1795 92.048 46.4675 91.728C46.7662 91.408 47.2728 91.248 47.9875 91.248C48.7022 91.248 49.2035 91.408 49.4915 91.728C49.7902 92.048 49.9395 92.4427 49.9395 92.912V93.36C49.9395 93.8293 49.7902 94.224 49.4915 94.544C49.2035 94.864 48.7022 95.024 47.9875 95.024ZM57.5813 95.024C56.8666 95.024 56.3599 94.864 56.0613 94.544C55.7733 94.224 55.6293 93.8293 55.6293 93.36V92.912C55.6293 92.4427 55.7733 92.048 56.0613 91.728C56.3599 91.408 56.8666 91.248 57.5813 91.248C58.2959 91.248 58.7973 91.408 59.0853 91.728C59.3839 92.048 59.5333 92.4427 59.5333 92.912V93.36C59.5333 93.8293 59.3839 94.224 59.0853 94.544C58.7973 94.864 58.2959 95.024 57.5813 95.024ZM74.4488 93.808V92.464H79.0888V93.808H74.4488ZM95.9563 95.024C95.2416 95.024 94.7349 94.864 94.4363 94.544C94.1483 94.224 94.0043 93.8293 94.0043 93.36V92.912C94.0043 92.4427 94.1483 92.048 94.4363 91.728C94.7349 91.408 95.2416 91.248 95.9563 91.248C96.6709 91.248 97.1723 91.408 97.4603 91.728C97.7589 92.048 97.9083 92.4427 97.9083 92.912V93.36C97.9083 93.8293 97.7589 94.224 97.4603 94.544C97.1723 94.864 96.6709 95.024 95.9563 95.024ZM105.55 95.024C104.835 95.024 104.329 94.864 104.03 94.544C103.742 94.224 103.598 93.8293 103.598 93.36V92.912C103.598 92.4427 103.742 92.048 104.03 91.728C104.329 91.408 104.835 91.248 105.55 91.248C106.265 91.248 106.766 91.408 107.054 91.728C107.353 92.048 107.502 92.4427 107.502 92.912V93.36C107.502 93.8293 107.353 94.224 107.054 94.544C106.766 94.864 106.265 95.024 105.55 95.024ZM115.144 95.024C114.429 95.024 113.922 94.864 113.624 94.544C113.336 94.224 113.192 93.8293 113.192 93.36V92.912C113.192 92.4427 113.336 92.048 113.624 91.728C113.922 91.408 114.429 91.248 115.144 91.248C115.858 91.248 116.36 91.408 116.648 91.728C116.946 92.048 117.096 92.4427 117.096 92.912V93.36C117.096 93.8293 116.946 94.224 116.648 94.544C116.36 94.864 115.858 95.024 115.144 95.024ZM124.738 95.024C124.023 95.024 123.516 94.864 123.218 94.544C122.93 94.224 122.786 93.8293 122.786 93.36V92.912C122.786 92.4427 122.93 92.048 123.218 91.728C123.516 91.408 124.023 91.248 124.738 91.248C125.452 91.248 125.954 91.408 126.242 91.728C126.54 92.048 126.69 92.4427 126.69 92.912V93.36C126.69 93.8293 126.54 94.224 126.242 94.544C125.954 94.864 125.452 95.024 124.738 95.024ZM141.605 93.808V92.464H146.245V93.808H141.605ZM163.113 95.024C162.398 95.024 161.891 94.864 161.593 94.544C161.305 94.224 161.161 93.8293 161.161 93.36V92.912C161.161 92.4427 161.305 92.048 161.593 91.728C161.891 91.408 162.398 91.248 163.113 91.248C163.827 91.248 164.329 91.408 164.617 91.728C164.915 92.048 165.065 92.4427 165.065 92.912V93.36C165.065 93.8293 164.915 94.224 164.617 94.544C164.329 94.864 163.827 95.024 163.113 95.024ZM172.706 95.024C171.992 95.024 171.485 94.864 171.186 94.544C170.898 94.224 170.754 93.8293 170.754 93.36V92.912C170.754 92.4427 170.898 92.048 171.186 91.728C171.485 91.408 171.992 91.248 172.706 91.248C173.421 91.248 173.922 91.408 174.21 91.728C174.509 92.048 174.658 92.4427 174.658 92.912V93.36C174.658 93.8293 174.509 94.224 174.21 94.544C173.922 94.864 173.421 95.024 172.706 95.024ZM182.3 95.024C181.585 95.024 181.079 94.864 180.78 94.544C180.492 94.224 180.348 93.8293 180.348 93.36V92.912C180.348 92.4427 180.492 92.048 180.78 91.728C181.079 91.408 181.585 91.248 182.3 91.248C183.015 91.248 183.516 91.408 183.804 91.728C184.103 92.048 184.252 92.4427 184.252 92.912V93.36C184.252 93.8293 184.103 94.224 183.804 94.544C183.516 94.864 183.015 95.024 182.3 95.024ZM191.894 95.024C191.179 95.024 190.672 94.864 190.374 94.544C190.086 94.224 189.942 93.8293 189.942 93.36V92.912C189.942 92.4427 190.086 92.048 190.374 91.728C190.672 91.408 191.179 91.248 191.894 91.248C192.608 91.248 193.11 91.408 193.398 91.728C193.696 92.048 193.846 92.4427 193.846 92.912V93.36C193.846 93.8293 193.696 94.224 193.398 94.544C193.11 94.864 192.608 95.024 191.894 95.024ZM208.761 93.808V92.464H213.401V93.808H208.761ZM230.269 95.024C229.554 95.024 229.047 94.864 228.749 94.544C228.461 94.224 228.317 93.8293 228.317 93.36V92.912C228.317 92.4427 228.461 92.048 228.749 91.728C229.047 91.408 229.554 91.248 230.269 91.248C230.983 91.248 231.485 91.408 231.773 91.728C232.071 92.048 232.221 92.4427 232.221 92.912V93.36C232.221 93.8293 232.071 94.224 231.773 94.544C231.485 94.864 230.983 95.024 230.269 95.024ZM239.863 95.024C239.148 95.024 238.641 94.864 238.343 94.544C238.055 94.224 237.911 93.8293 237.911 93.36V92.912C237.911 92.4427 238.055 92.048 238.343 91.728C238.641 91.408 239.148 91.248 239.863 91.248C240.577 91.248 241.079 91.408 241.367 91.728C241.665 92.048 241.815 92.4427 241.815 92.912V93.36C241.815 93.8293 241.665 94.224 241.367 94.544C241.079 94.864 240.577 95.024 239.863 95.024ZM249.456 95.024C248.742 95.024 248.235 94.864 247.936 94.544C247.648 94.224 247.504 93.8293 247.504 93.36V92.912C247.504 92.4427 247.648 92.048 247.936 91.728C248.235 91.408 248.742 91.248 249.456 91.248C250.171 91.248 250.672 91.408 250.96 91.728C251.259 92.048 251.408 92.4427 251.408 92.912V93.36C251.408 93.8293 251.259 94.224 250.96 94.544C250.672 94.864 250.171 95.024 249.456 95.024ZM259.05 95.024C258.335 95.024 257.829 94.864 257.53 94.544C257.242 94.224 257.098 93.8293 257.098 93.36V92.912C257.098 92.4427 257.242 92.048 257.53 91.728C257.829 91.408 258.335 91.248 259.05 91.248C259.765 91.248 260.266 91.408 260.554 91.728C260.853 92.048 261.002 92.4427 261.002 92.912V93.36C261.002 93.8293 260.853 94.224 260.554 94.544C260.266 94.864 259.765 95.024 259.05 95.024Z" fill="white"/>
<path opacity="0.9" d="M30.144 42.24C29.3653 42.24 28.656 42.112 28.016 41.856C27.376 41.6 26.8267 41.2267 26.368 40.736C25.9093 40.2453 25.552 39.6427 25.296 38.928C25.0507 38.2027 24.928 37.376 24.928 36.448C24.928 35.52 25.0667 34.6987 25.344 33.984C25.632 33.2587 26.016 32.6507 26.496 32.16C26.976 31.6693 27.536 31.296 28.176 31.04C28.816 30.784 29.4987 30.656 30.224 30.656C30.6827 30.656 31.0933 30.688 31.456 30.752C31.8293 30.816 32.1493 30.8907 32.416 30.976C32.6933 31.0613 32.9173 31.1467 33.088 31.232C33.2587 31.3173 33.376 31.3813 33.44 31.424L32.992 32.704C32.896 32.64 32.7573 32.5707 32.576 32.496C32.3947 32.4213 32.1867 32.3467 31.952 32.272C31.728 32.1973 31.4773 32.1387 31.2 32.096C30.9333 32.0427 30.6613 32.016 30.384 32.016C29.7973 32.016 29.2693 32.1173 28.8 32.32C28.3307 32.5227 27.9307 32.816 27.6 33.2C27.2693 33.584 27.0133 34.0533 26.832 34.608C26.6613 35.152 26.576 35.7653 26.576 36.448C26.576 37.1093 26.6507 37.712 26.8 38.256C26.96 38.8 27.1947 39.2693 27.504 39.664C27.8133 40.048 28.1973 40.3467 28.656 40.56C29.1253 40.7733 29.6693 40.88 30.288 40.88C31.0027 40.88 31.5947 40.8053 32.064 40.656C32.5333 40.5067 32.8853 40.3733 33.12 40.256L33.52 41.536C33.4453 41.5893 33.312 41.6587 33.12 41.744C32.928 41.8187 32.688 41.8933 32.4 41.968C32.112 42.0427 31.776 42.1067 31.392 42.16C31.008 42.2133 30.592 42.24 30.144 42.24ZM38.2739 33.504C38.4019 33.504 38.5459 33.5147 38.7059 33.536C38.8765 33.5467 39.0419 33.568 39.2019 33.6C39.3619 33.6213 39.5059 33.648 39.6339 33.68C39.7725 33.7013 39.8739 33.7227 39.9379 33.744L39.6819 35.04C39.5645 34.9973 39.3672 34.9493 39.0899 34.896C38.8232 34.832 38.4765 34.8 38.0499 34.8C37.7725 34.8 37.4952 34.832 37.2179 34.896C36.9512 34.9493 36.7752 34.9867 36.6899 35.008V42H35.2019V34.032C35.5539 33.904 35.9912 33.7867 36.5139 33.68C37.0365 33.5627 37.6232 33.504 38.2739 33.504ZM40.9098 37.856C40.9098 37.12 41.0164 36.48 41.2298 35.936C41.4431 35.3813 41.7258 34.9227 42.0778 34.56C42.4298 34.1973 42.8351 33.9253 43.2938 33.744C43.7524 33.5627 44.2218 33.472 44.7018 33.472C45.8218 33.472 46.6804 33.824 47.2778 34.528C47.8751 35.2213 48.1737 36.2827 48.1737 37.712C48.1737 37.776 48.1737 37.8613 48.1737 37.968C48.1737 38.064 48.1684 38.1547 48.1578 38.24H42.4618C42.5258 39.104 42.7764 39.76 43.2138 40.208C43.6511 40.656 44.3338 40.88 45.2618 40.88C45.7844 40.88 46.2218 40.8373 46.5738 40.752C46.9364 40.656 47.2084 40.5653 47.3898 40.48L47.5978 41.728C47.4164 41.824 47.0964 41.9253 46.6378 42.032C46.1898 42.1387 45.6778 42.192 45.1018 42.192C44.3764 42.192 43.7471 42.0853 43.2138 41.872C42.6911 41.648 42.2591 41.344 41.9178 40.96C41.5764 40.576 41.3204 40.1227 41.1497 39.6C40.9898 39.0667 40.9098 38.4853 40.9098 37.856ZM46.6218 37.04C46.6324 36.368 46.4618 35.8187 46.1098 35.392C45.7684 34.9547 45.2938 34.736 44.6858 34.736C44.3444 34.736 44.0404 34.8053 43.7738 34.944C43.5178 35.072 43.2991 35.2427 43.1178 35.456C42.9364 35.6693 42.7924 35.9147 42.6858 36.192C42.5898 36.4693 42.5258 36.752 42.4938 37.04H46.6218ZM46.6058 30.528L44.3498 32.72L43.5978 32.048L45.6458 29.584L46.6058 30.528ZM55.6873 35.44C55.5059 35.2907 55.2446 35.1467 54.9033 35.008C54.5619 34.8693 54.1886 34.8 53.7833 34.8C53.3566 34.8 52.9886 34.88 52.6793 35.04C52.3806 35.1893 52.1353 35.4027 51.9433 35.68C51.7513 35.9467 51.6126 36.2667 51.5273 36.64C51.4419 37.0133 51.3993 37.4133 51.3993 37.84C51.3993 38.8107 51.6393 39.5627 52.1193 40.096C52.5993 40.6187 53.2393 40.88 54.0393 40.88C54.4446 40.88 54.7806 40.864 55.0473 40.832C55.3246 40.7893 55.5379 40.7467 55.6873 40.704V35.44ZM55.6873 29.84L57.1753 29.584V41.76C56.8339 41.856 56.3966 41.952 55.8633 42.048C55.3299 42.144 54.7166 42.192 54.0233 42.192C53.3833 42.192 52.8073 42.0907 52.2953 41.888C51.7833 41.6853 51.3459 41.3973 50.9833 41.024C50.6206 40.6507 50.3379 40.1973 50.1353 39.664C49.9433 39.12 49.8473 38.512 49.8473 37.84C49.8473 37.2 49.9273 36.6133 50.0872 36.08C50.2579 35.5467 50.5033 35.088 50.8233 34.704C51.1433 34.32 51.5326 34.0213 51.9913 33.808C52.4606 33.5947 52.9939 33.488 53.5913 33.488C54.0713 33.488 54.4926 33.552 54.8553 33.68C55.2286 33.808 55.5059 33.9307 55.6873 34.048V29.84ZM61.2211 42H59.7331V33.68H61.2211V42ZM60.4691 32.176C60.2025 32.176 59.9731 32.0907 59.7811 31.92C59.5998 31.7387 59.5091 31.4987 59.5091 31.2C59.5091 30.9013 59.5998 30.6667 59.7811 30.496C59.9731 30.3147 60.2025 30.224 60.4691 30.224C60.7358 30.224 60.9598 30.3147 61.1411 30.496C61.3331 30.6667 61.4291 30.9013 61.4291 31.2C61.4291 31.4987 61.3331 31.7387 61.1411 31.92C60.9598 32.0907 60.7358 32.176 60.4691 32.176ZM65.172 33.68H68.324V34.928H65.172V38.768C65.172 39.184 65.204 39.5307 65.268 39.808C65.332 40.0747 65.428 40.288 65.556 40.448C65.684 40.5973 65.844 40.704 66.036 40.768C66.228 40.832 66.452 40.864 66.708 40.864C67.156 40.864 67.5133 40.816 67.78 40.72C68.0573 40.6133 68.2493 40.5387 68.356 40.496L68.644 41.728C68.4947 41.8027 68.2333 41.8933 67.86 42C67.4867 42.1173 67.06 42.176 66.58 42.176C66.0147 42.176 65.5453 42.1067 65.172 41.968C64.8093 41.8187 64.516 41.6 64.292 41.312C64.068 41.024 63.908 40.672 63.812 40.256C63.7267 39.8293 63.684 39.3387 63.684 38.784V31.36L65.172 31.104V33.68ZM77.3428 37.84C77.3428 38.5013 77.2468 39.0987 77.0548 39.632C76.8628 40.1653 76.5908 40.624 76.2388 41.008C75.8974 41.392 75.4868 41.6907 75.0068 41.904C74.5268 42.1067 74.0041 42.208 73.4388 42.208C72.8734 42.208 72.3508 42.1067 71.8708 41.904C71.3908 41.6907 70.9748 41.392 70.6228 41.008C70.2814 40.624 70.0148 40.1653 69.8228 39.632C69.6308 39.0987 69.5348 38.5013 69.5348 37.84C69.5348 37.1893 69.6308 36.5973 69.8228 36.064C70.0148 35.52 70.2814 35.056 70.6228 34.672C70.9748 34.288 71.3908 33.9947 71.8708 33.792C72.3508 33.5787 72.8734 33.472 73.4388 33.472C74.0041 33.472 74.5268 33.5787 75.0068 33.792C75.4868 33.9947 75.8974 34.288 76.2388 34.672C76.5908 35.056 76.8628 35.52 77.0548 36.064C77.2468 36.5973 77.3428 37.1893 77.3428 37.84ZM75.7908 37.84C75.7908 36.9013 75.5774 36.16 75.1508 35.616C74.7348 35.0613 74.1641 34.784 73.4388 34.784C72.7134 34.784 72.1374 35.0613 71.7108 35.616C71.2948 36.16 71.0868 36.9013 71.0868 37.84C71.0868 38.7787 71.2948 39.5253 71.7108 40.08C72.1374 40.624 72.7134 40.896 73.4388 40.896C74.1641 40.896 74.7348 40.624 75.1508 40.08C75.5774 39.5253 75.7908 38.7787 75.7908 37.84Z" fill="white"/>
<defs>
<filter id="filter0_b_171_27" x="-80" y="-80" width="496" height="344" filterUnits="userSpaceOnUse" color-interpolation-filters="sRGB">
<feFlood flood-opacity="0" result="BackgroundImageFix"/>
<feGaussianBlur in="BackgroundImage" stdDeviation="40"/>
<feComposite in2="SourceAlpha" operator="in" result="effect1_backgroundBlur_171_27"/>
<feBlend mode="normal" in="SourceGraphic" in2="effect1_backgroundBlur_171_27" result="shape"/>
</filter>
<linearGradient id="paint0_linear_171_27" x1="-48.1433" y1="-19.8919" x2="381.57" y2="207.359" gradientUnits="userSpaceOnUse">
<stop offset="0.119355" stop-color="#282828"/>
<stop offset="0.843296" stop-color="#0B0B0B"/>
</linearGradient>
</defs>
</svg>
