<svg width="34" height="25" viewBox="0 0 34 25" fill="none" xmlns="http://www.w3.org/2000/svg">
<path d="M11.0301 17.1875C10.9057 17.1875 10.7812 17.2046 10.6625 17.2407C9.98766 17.4463 9.27793 17.5781 8.5307 17.5781C7.78348 17.5781 7.07375 17.4463 6.39839 17.2407C6.27966 17.2046 6.15573 17.1875 6.03128 17.1875C2.79974 17.1875 0.182119 19.6523 0.199303 22.6865C0.206593 23.9688 1.33081 25 2.69872 25H14.3627C15.7306 25 16.8548 23.9688 16.8621 22.6865C16.8793 19.6523 14.2617 17.1875 11.0301 17.1875ZM8.5307 15.625C11.2915 15.625 13.5295 13.5264 13.5295 10.9375C13.5295 8.34863 11.2915 6.25 8.5307 6.25C5.76989 6.25 3.53186 8.34863 3.53186 10.9375C3.53186 13.5264 5.76989 15.625 8.5307 15.625ZM31.0255 0H11.0301C9.6518 0 8.5307 1.08643 8.5307 2.42139V4.6875C9.75021 4.6875 10.8791 5.01855 11.8633 5.55664V3.125H30.1923V17.1875H26.8598V14.0625H20.1947V17.1875H16.2248C17.2193 18.0024 17.9494 19.0786 18.2915 20.3125H31.0255C32.4038 20.3125 33.5249 19.2261 33.5249 17.8911V2.42139C33.5249 1.08643 32.4038 0 31.0255 0Z" fill="#044177"/>
</svg>
