<svg width="51" height="51" viewBox="0 0 51 51" fill="none" xmlns="http://www.w3.org/2000/svg">
<path d="M25.0996 49C38.0783 49 48.5996 38.4787 48.5996 25.5C48.5996 12.5213 38.0783 2 25.0996 2C12.1209 2 1.59961 12.5213 1.59961 25.5C1.59961 38.4787 12.1209 49 25.0996 49Z" stroke="#044177" stroke-width="3"/>
<path d="M21.0301 30.1875C20.9057 30.1875 20.7812 30.2046 20.6625 30.2407C19.9877 30.4463 19.2779 30.5781 18.5307 30.5781C17.7835 30.5781 17.0737 30.4463 16.3984 30.2407C16.2797 30.2046 16.1557 30.1875 16.0313 30.1875C12.7997 30.1875 10.1821 32.6523 10.1993 35.6865C10.2066 36.9687 11.3308 38 12.6987 38H24.3627C25.7306 38 26.8548 36.9687 26.8621 35.6865C26.8793 32.6523 24.2617 30.1875 21.0301 30.1875ZM18.5307 28.625C21.2915 28.625 23.5295 26.5264 23.5295 23.9375C23.5295 21.3486 21.2915 19.25 18.5307 19.25C15.7699 19.25 13.5319 21.3486 13.5319 23.9375C13.5319 26.5264 15.7699 28.625 18.5307 28.625ZM41.0255 13H21.0301C19.6518 13 18.5307 14.0864 18.5307 15.4214V17.6875C19.7502 17.6875 20.8791 18.0186 21.8633 18.5566V16.125H40.1923V30.1875H36.8598V27.0625H30.1947V30.1875H26.2248C27.2193 31.0024 27.9494 32.0786 28.2915 33.3125H41.0255C42.4038 33.3125 43.5249 32.2261 43.5249 30.8911V15.4214C43.5249 14.0864 42.4038 13 41.0255 13Z" fill="#044177"/>
</svg>
